<svg width="177" height="183" viewBox="0 0 177 183" fill="none" xmlns="http://www.w3.org/2000/svg">
<g clip-path="url(#clip0_114_527)">
<path d="M4.25286 136.751C5.422 137.182 6.55716 137.699 7.64894 138.297C7.79987 138.511 7.86504 138.773 7.83174 139.032V139.757C7.91542 140.385 7.78685 141.022 7.46616 141.57C7.22564 141.818 6.42713 141.933 5.08986 141.933C4.71465 141.933 4.12779 141.303 3.3389 140.024C2.82375 139.065 2.1049 138.229 1.23198 137.572C0.998342 137.407 0.809355 137.188 0.681803 136.933C0.554251 136.678 0.49208 136.396 0.500807 136.112C1.77975 136.104 3.05008 136.32 4.25286 136.751ZM6.55219 140.845C6.54075 140.919 6.54704 140.994 6.57055 141.066C6.59406 141.137 6.63413 141.201 6.68753 141.254C6.74092 141.307 6.80613 141.347 6.87789 141.37C6.94964 141.394 7.02593 141.4 7.10057 141.389C7.34108 141.389 7.46616 141.207 7.46616 140.845C7.46616 140.482 7.34108 140.12 7.10057 140.12C6.86005 140.12 6.55219 140.32 6.55219 140.797V140.845ZM45.8044 180.137C45.8044 179.183 45.8044 178.353 45.891 177.685C46.0522 176.827 46.4676 176.037 47.084 175.414V174.317C46.8098 174.024 46.5914 173.685 46.4394 173.315C46.2662 172.895 45.9199 172.8 45.4773 173.048C45.7178 172.313 45.4773 172.094 44.7461 172.313C44.1208 172.075 43.8803 172.313 44.0054 172.953C44.1234 173.461 44.1234 173.99 44.0054 174.498C44.0054 174.985 44.1208 175.223 44.3709 175.223C44.6806 175.201 44.9729 175.073 45.1983 174.861C45.5194 174.603 45.7985 174.297 46.0257 173.954C46.1395 173.826 46.2165 173.67 46.2486 173.502C46.2808 173.334 46.2669 173.161 46.2085 173C46.3689 173.021 46.5317 172.988 46.6703 172.905C46.808 172.829 46.9663 172.799 47.1224 172.819C47.1163 172.602 47.1488 172.385 47.2186 172.18C47.2703 172.032 47.2994 171.878 47.3052 171.722C47.363 170.308 47.1776 168.895 46.7569 167.542C46.4238 166.632 45.9605 165.774 45.3811 164.995C44.8327 164.27 44.2459 163.535 43.6398 162.81C42.9348 161.895 42.4362 160.841 42.1774 159.718V162.81L39.6087 160.262L39.4163 160.625C39.5039 161.326 39.7908 161.988 40.2437 162.533C40.6008 163.078 40.9997 163.595 41.4366 164.079C40.6751 164.576 39.7794 164.832 38.8679 164.813H36.4916C34.936 164.867 33.4096 164.385 32.172 163.449C31.4894 162.778 30.6341 162.306 29.6995 162.085H29.5167C29.4919 162.081 29.4668 162.084 29.4432 162.092C29.4196 162.1 29.3981 162.113 29.3805 162.131C29.3628 162.148 29.3495 162.17 29.3414 162.193C29.3333 162.216 29.3307 162.241 29.3339 162.266C29.756 162.819 30.0962 163.43 30.344 164.079C30.5827 164.735 30.9236 165.35 31.3542 165.901V167.18L30.344 169.088C29.7957 170.119 29.4493 170.758 29.3339 170.997C29.3851 171.324 29.4755 171.644 29.6033 171.951C29.7028 172.292 29.8589 172.614 30.065 172.905V178.725C30.9213 178.601 31.3542 178.964 31.3542 179.813C31.3815 180.358 31.2589 180.899 30.9996 181.38C30.7403 181.86 30.3541 182.262 29.8822 182.542C29.2996 182.781 28.6753 182.904 28.0447 182.905H26.3996C25.7839 183.153 25.4375 182.904 25.4375 182.179C25.4375 181.454 25.7358 181.225 26.3996 181.454C26.2745 180.968 26.3996 180.786 26.8614 180.901C27.1713 181.017 27.5135 181.017 27.8234 180.901C27.708 181.273 27.7657 181.511 28.0062 181.635C28.2835 181.772 28.5343 181.956 28.747 182.179V179.689C28.1838 179.628 27.6289 179.507 27.0923 179.326C26.5735 179.108 26.0016 179.045 25.4471 179.145C24.7076 179.523 24.1477 180.174 23.8886 180.958C23.4525 181.931 22.9329 182.418 22.33 182.418C21.5893 182.418 21.1659 182.179 21.0409 181.693V179.508C21.0496 178.6 21.1823 177.698 21.4353 176.826C21.6877 175.939 21.8108 175.02 21.8009 174.098C21.8115 173.294 21.688 172.495 21.4353 171.731C21.1873 170.967 21.0639 170.168 21.0697 169.365C21.0407 167.973 21.3719 166.596 22.0318 165.367C22.7052 164.074 23.0362 162.633 22.9939 161.178V160.09C23.0422 159.718 22.9786 159.339 22.8111 159.003C22.6945 158.259 22.511 157.528 22.2627 156.818C22.0544 156.077 21.8071 155.348 21.5219 154.632C21.5219 154.27 21.5219 153.573 21.6181 152.543C21.7143 151.512 21.7336 150.386 21.8009 149.175C21.8683 147.963 21.9164 146.846 21.9837 145.816C22.051 144.785 22.0703 144.079 22.0703 143.717H18.8378C17.3754 143.717 15.8746 143.717 14.3449 143.631C12.9955 143.584 11.6498 143.463 10.3139 143.268C9.14977 143.087 8.57252 142.753 8.57252 142.267H10.0349C10.8911 142.267 11.7473 142.266 12.6036 142.171C13.4598 142.076 14.2583 142.057 14.9895 141.99C15.7207 141.923 16.269 141.894 16.6442 141.894C17.0194 141.894 17.6063 141.808 18.8378 141.627C20.0692 141.446 20.7619 141.35 21.0409 141.35C22.0029 141.236 22.4744 140.873 22.4166 140.263C22.3589 139.652 22.7533 138.994 23.6096 138.259C23.899 138.068 24.2277 137.945 24.5716 137.896C24.917 137.854 25.2469 137.729 25.5337 137.534C26.4958 136.809 27.3328 136.198 28.0062 135.711C28.6402 135.254 29.3167 134.858 30.0266 134.528C30.7846 134.208 31.5847 133.996 32.4029 133.898C33.5906 133.762 34.7861 133.701 35.9817 133.717H37.6365C38.0021 133.717 38.6466 133.717 39.5606 133.803C40.4746 133.889 41.427 133.956 42.3987 134.08C43.3704 134.204 44.3228 134.29 45.2849 134.347C46.247 134.404 46.8434 134.442 47.209 134.442C46.7108 135.062 46.2818 135.734 45.9295 136.446C45.5631 137.178 45.3753 137.986 45.3811 138.803C45.3322 140.008 45.7564 141.184 46.5644 142.085C47.3794 142.949 48.2713 143.738 49.2294 144.442V143.536C49.2386 143.078 49.1134 142.628 48.8691 142.24C48.6248 141.852 48.272 141.543 47.8536 141.35C47.4352 141.161 47.082 140.853 46.8376 140.467C46.5931 140.08 46.4681 139.631 46.4779 139.175C46.5084 138.852 46.5696 138.532 46.6606 138.221C47.8857 136.643 48.8477 135.492 49.5468 134.767C50.1381 134.106 50.8141 133.526 51.5576 133.04C52.3051 132.582 53.1064 132.216 53.9435 131.952L58.0707 130.587C58.9946 130.246 59.8837 129.817 60.726 129.309C61.284 128.946 61.765 128.612 62.198 128.307C62.786 127.944 63.4394 127.698 64.1221 127.582C65.5181 127.359 66.9321 127.266 68.3456 127.305C68.5861 127.305 69.3076 127.305 70.4525 127.401C71.5973 127.496 72.3766 127.486 72.7422 127.486C74.4994 128.222 76.1893 129.106 77.793 130.129C78.8675 130.837 79.7736 131.768 80.4483 132.858C81.0901 133.974 81.5848 135.167 81.9203 136.408C82.2859 137.744 82.8343 139.379 83.5654 141.312C83.6582 141.656 83.8148 141.98 84.0272 142.267C84.3455 142.787 84.6191 143.332 84.845 143.898C85.0761 144.466 85.3527 145.015 85.6724 145.539C85.8787 145.812 86.035 146.119 86.1341 146.446V146.99C86.1645 147.417 86.0556 147.842 85.8235 148.203C85.5913 148.564 85.2482 148.841 84.845 148.993C85.2658 148.814 85.7192 148.721 86.1774 148.721C86.6357 148.721 87.0891 148.814 87.5099 148.993C88.3031 149.359 88.9259 150.011 89.2512 150.816C88.2884 151.256 87.4172 151.871 86.6825 152.629C87.4025 152.208 88.2357 152.018 89.0684 152.085C89.4169 152.133 89.7482 152.265 90.0333 152.47C90.3184 152.675 90.5487 152.945 90.7039 153.258C91.217 154.114 91.6179 155.031 91.8969 155.987C92.1952 157.004 92.4392 158.036 92.6281 159.079C92.7796 159.828 92.8728 160.587 92.9071 161.35C92.8607 162.373 92.5776 163.372 92.0797 164.27C91.5068 165.388 90.8304 166.452 90.0594 167.447C89.2962 168.446 88.3655 169.308 87.3079 169.995C86.4124 170.597 85.3595 170.929 84.2774 170.949H83.9695C84.1137 170.858 84.237 170.738 84.3315 170.596C84.4259 170.455 84.4895 170.295 84.5179 170.128C84.6206 169.819 84.682 169.499 84.7007 169.174C84.7007 169.06 84.5179 168.84 84.1523 168.544C83.7867 168.248 83.5462 168.029 83.4211 167.905V167.18C84.8346 166.614 86.1881 165.911 87.4618 165.081C88.193 164.537 88.5585 163.239 88.5585 161.169C88.6031 159.92 88.2679 158.686 87.5965 157.629C86.9695 156.693 86.1966 155.862 85.3068 155.167C84.3467 154.412 83.3005 153.771 82.1897 153.258C81.0847 152.747 80.0116 152.17 78.9764 151.531C78.4907 151.171 78.0598 150.744 77.6968 150.262C77.4563 149.89 76.8983 149.709 76.0421 149.709C76.0613 150.499 76.0324 151.289 75.9555 152.075C75.8882 152.438 76.475 152.867 77.6968 153.354C77.5718 153.841 77.1485 154.079 76.4077 154.079C75.8047 154.104 75.2039 153.994 74.6494 153.758C74.0949 153.522 73.601 153.165 73.204 152.715C72.8581 152.286 72.4187 151.94 71.9188 151.704C71.4189 151.468 70.8716 151.347 70.3178 151.35C69.6909 151.355 69.0706 151.478 68.4899 151.713C67.8466 151.963 67.1604 152.086 66.4695 152.075C65.8815 152.045 65.298 151.956 64.7282 151.808C63.9297 151.627 63.5352 151.293 63.5352 150.854C63.6065 150.519 63.7298 150.197 63.9008 149.9C64.0691 149.618 64.1924 149.312 64.2664 148.993V147.362C64.2624 145.643 63.9192 143.941 63.2563 142.352C62.6088 140.764 62.282 139.066 62.2942 137.353C62.2942 137.114 62.3519 136.99 62.477 136.99C62.5001 136.559 62.5613 136.131 62.6598 135.711C62.7277 135.275 62.8505 134.849 63.0254 134.442C62.6952 134.631 62.4149 134.894 62.2075 135.211C62.0001 135.528 61.8715 135.889 61.8324 136.265C61.7651 136.99 61.7362 137.715 61.7362 138.44C61.7289 139.861 61.9464 141.275 62.3808 142.629C62.8145 143.98 63.032 145.39 63.0254 146.808C63.0673 147.422 63.0055 148.038 62.8426 148.631C62.7175 148.879 62.1691 148.993 61.1878 148.993C59.8409 148.993 58.9558 148.688 58.5325 148.039C57.8746 147.274 57.0152 146.706 56.0504 146.398C55.3356 146.194 54.5996 146.073 53.8569 146.035C53.1105 146.003 52.3708 145.881 51.6538 145.673C51.3103 145.659 50.9704 145.598 50.6436 145.492C50.314 145.395 49.9924 145.274 49.6815 145.129V145.673C49.6815 146.283 50.48 146.913 52.0674 147.581C53.6549 148.249 55.425 148.946 57.3877 149.671C59.3503 150.396 61.1108 151.102 62.7079 151.77C64.3049 152.438 65.0938 153.068 65.0938 153.678C65.1395 154.359 65.0119 155.04 64.7227 155.658C64.4335 156.277 63.9921 156.813 63.439 157.218C62.317 158.056 61.3418 159.071 60.5529 160.224C59.9371 161.178 59.6966 161.894 59.8217 162.314C59.8761 162.612 60.0014 162.893 60.1873 163.134C60.3027 163.258 60.1873 163.287 59.7255 163.23C58.6601 163.14 57.5907 163.108 56.5218 163.134C56.5246 165.505 56.3993 167.875 56.1466 170.233C55.906 172.59 55.906 174.966 56.1466 177.323C55.9252 177.7 55.6036 178.01 55.2168 178.219C54.83 178.427 54.3929 178.527 53.9531 178.506C53.1628 178.426 52.3724 178.656 51.75 179.145C51.5341 179.227 51.3528 179.379 51.2357 179.577C51.1186 179.775 51.0726 180.006 51.1054 180.233C51.1631 180.719 52.1155 181.082 53.9916 181.33C54.2321 182.055 53.9916 182.284 53.2508 182.055C53.5009 182.78 53.2508 183.009 52.5196 182.78C51.9039 183.029 51.6634 182.904 51.7885 182.418C51.9073 182.065 51.9073 181.683 51.7885 181.33C51.6634 180.843 51.7885 180.662 52.2406 180.777C52.551 180.891 52.8923 180.891 53.2027 180.777V181.33H52.4715C52.7216 182.055 52.4715 182.284 51.7403 182.055C51.8558 182.78 51.6153 182.904 50.9996 182.418C50.5678 182.035 50.0732 181.729 49.5372 181.511C49.261 181.943 48.8824 182.301 48.4347 182.553C47.9869 182.806 47.4835 182.946 46.9685 182.962H46.6029C46.4779 182.962 46.3528 182.876 46.2373 182.695C46.1219 182.513 45.9872 182.418 45.8717 182.418L45.8044 180.137ZM26.3611 158.497C26.3611 158.974 26.4765 159.155 26.7267 159.041C26.8348 158.996 26.9271 158.92 26.9921 158.823C27.0571 158.727 27.092 158.613 27.0923 158.497C27.1105 158.352 27.0856 158.206 27.0206 158.075C26.9556 157.945 26.8534 157.836 26.7267 157.762C26.4765 157.6 26.3611 157.838 26.3611 158.449V158.497ZM27.4578 160.31C27.6525 160.513 27.8356 160.726 28.0062 160.949C28.2021 161.212 28.4554 161.427 28.747 161.579V161.035C28.5732 160.735 28.356 160.462 28.1024 160.224C27.7946 159.919 27.5829 159.766 27.4578 159.766L27.2751 159.947C27.297 160.07 27.3617 160.182 27.4578 160.262V160.31ZM28.9298 140.272C28.9298 140.635 29.0453 140.816 29.2954 140.816C29.37 140.827 29.4463 140.821 29.5181 140.798C29.5898 140.775 29.655 140.735 29.7084 140.682C29.7618 140.629 29.8019 140.564 29.8254 140.493C29.8489 140.422 29.8552 140.346 29.8438 140.272C29.8438 139.786 29.661 139.547 29.2954 139.547C28.9298 139.547 28.9298 139.767 28.9298 140.253V140.272ZM29.3916 144.547C29.0837 144.852 29.0453 145.062 29.2954 145.186C29.3977 145.246 29.5174 145.269 29.6346 145.251C29.7519 145.234 29.8596 145.177 29.94 145.091C30.0272 145.011 30.0836 144.903 30.0994 144.787C30.1152 144.67 30.0894 144.551 30.0266 144.452C29.9015 144.194 29.6898 144.223 29.3916 144.528V144.547ZM30.2093 136.456C30.2093 136.818 30.3344 136.999 30.5749 136.999C30.6496 137.011 30.7259 137.005 30.7976 136.981C30.8694 136.958 30.9346 136.918 30.988 136.865C31.0414 136.812 31.0814 136.748 31.105 136.676C31.1285 136.605 31.1348 136.53 31.1233 136.456C31.1233 135.969 30.9501 135.721 30.5749 135.721C30.1997 135.721 30.2093 135.95 30.2093 136.436V136.456ZM30.2093 140.816C30.2093 141.179 30.3344 141.36 30.5749 141.36C30.6496 141.371 30.7259 141.365 30.7976 141.342C30.8694 141.318 30.9346 141.279 30.988 141.226C31.0414 141.173 31.0814 141.108 31.105 141.037C31.1285 140.966 31.1348 140.89 31.1233 140.816C31.1233 140.339 30.9501 140.091 30.5749 140.091C30.1997 140.091 30.2093 140.32 30.2093 140.797V140.816ZM30.2093 145.186C30.2093 145.549 30.3344 145.73 30.5749 145.73C30.6496 145.741 30.7259 145.735 30.7976 145.712C30.8694 145.689 30.9346 145.649 30.988 145.596C31.0414 145.543 31.0814 145.478 31.105 145.407C31.1285 145.336 31.1348 145.26 31.1233 145.186C31.1233 144.7 30.9501 144.452 30.5749 144.452C30.1997 144.452 30.2093 144.681 30.2093 145.167V145.186ZM31.4985 136.599C31.2484 136.599 31.1907 136.713 31.3157 136.961C31.4408 137.209 31.3735 137.324 31.4985 137.324C31.6236 137.324 31.739 137.2 31.8641 136.961C31.9892 136.723 31.8641 136.618 31.4985 136.618V136.599ZM37.6365 169.336C37.7038 167.886 38.2811 167.161 39.3778 167.161C40.6934 167.178 41.9959 167.423 43.2261 167.886C43.8658 168.099 44.4138 168.52 44.7808 169.082C45.1477 169.643 45.3119 170.311 45.2464 170.977C45.2368 171.233 45.1643 171.482 45.0352 171.703C44.906 171.925 44.7242 172.111 44.5056 172.246C43.9197 172.675 43.3094 173.07 42.6777 173.43C41.9369 173.859 41.2057 174.317 40.4746 174.794C39.7723 175.248 39.2019 175.876 38.8198 176.617C38.4912 176.426 38.2121 176.162 38.0049 175.846C37.7977 175.529 37.6683 175.169 37.6269 174.794C37.5691 174.069 37.5403 173.344 37.5403 172.609C37.5403 171.874 37.5788 170.815 37.6365 169.355V169.336ZM41.2154 176.617V175.157C40.9748 174.556 41.0614 174.279 41.4944 174.346C41.8289 174.396 42.1663 174.424 42.5045 174.431V175.157C43.2357 174.918 43.4666 175.157 43.2357 175.891C43.4762 176.378 43.3896 176.645 42.9567 176.702C42.5802 176.747 42.2272 176.908 41.9465 177.16L41.2154 176.617ZM81.5643 126.771H83.4019C82.8826 126.657 82.397 126.425 81.9831 126.094C81.5691 125.763 81.2381 125.342 81.016 124.862C80.7521 123.948 80.6289 122.999 80.6504 122.048C80.6587 121.68 80.6909 121.314 80.7466 120.95C80.7949 120.59 80.8238 120.226 80.8332 119.863C80.9894 119.825 81.1323 119.745 81.246 119.633C81.3597 119.52 81.4399 119.378 81.4778 119.223C81.5355 118.924 81.5355 118.616 81.4778 118.317C81.4046 118.003 81.4046 117.677 81.4778 117.363C81.5141 117.208 81.594 117.067 81.7081 116.955C81.8222 116.844 81.9658 116.767 82.1223 116.733C82.0766 116.68 82.0207 116.637 81.9579 116.606C81.8951 116.575 81.8268 116.556 81.7567 116.552L81.5643 116.733C81.4489 116.733 81.2276 116.943 80.9294 117.363C80.6311 117.783 80.4002 118.002 80.2848 118.002C79.8576 117.94 79.4499 117.783 79.0918 117.544C78.6882 117.368 78.3394 117.088 78.0817 116.733V118.622H74.0506C73.99 117.847 74.1153 117.069 74.4162 116.351C74.5246 116.15 74.6814 115.979 74.8728 115.852C75.0641 115.726 75.284 115.648 75.513 115.626C76.0946 115.559 76.6822 115.559 77.2639 115.626C78.0283 115.681 78.7966 115.649 79.5536 115.531C80.0207 115.492 80.482 115.402 80.9294 115.263C81.3524 115.186 81.757 115.031 82.1223 114.806H82.4879C82.7284 114.806 83.0363 115.015 83.4019 115.445C83.7972 115.905 84.1635 116.39 84.4986 116.895C84.8489 117.425 85.17 117.972 85.4607 118.536C85.6674 118.844 85.8233 119.182 85.9225 119.538V119.901L84.6333 121.17V126.256C84.7584 123.956 85.0951 122.439 85.5954 121.8C85.8233 121.496 86.1117 121.242 86.4427 121.053C86.7737 120.864 87.1402 120.745 87.5195 120.702C88.2635 120.645 89.1197 120.616 90.0882 120.616C91.3563 120.56 92.5758 120.117 93.5805 119.347C93.9036 118.751 94.3047 118.199 94.7735 117.706C95.3767 116.946 96.0189 116.216 96.6976 115.521C96.9409 115.223 97.1567 114.904 97.3422 114.567C97.5208 114.214 97.7335 113.878 97.9771 113.565H98.5351C99.0163 113.863 99.4731 114.198 99.9013 114.567C100.575 115.12 100.979 115.454 101.094 115.521H101.835C101.344 113.222 100.055 111.943 97.9868 111.704V110.035C97.895 107.183 98.3622 104.341 99.3625 101.667C100.276 99.4815 102.759 98.3938 106.79 98.3938C107.233 98.3728 107.676 98.4472 108.088 98.6119C108.5 98.7766 108.871 99.0277 109.176 99.348C109.48 99.6683 109.851 99.9194 110.263 100.084C110.675 100.249 111.118 100.323 111.561 100.302H112.658C112.615 99.9039 112.464 99.5246 112.222 99.2039C111.98 98.8833 111.656 98.6331 111.282 98.4797C110.664 98.1823 110.02 97.9397 109.358 97.7545C109.108 97.7545 108.502 97.7545 107.53 97.6591C106.559 97.5637 105.876 97.5732 105.51 97.5732C104.421 97.5532 103.336 97.7079 102.297 98.0312C101.353 98.3647 100.364 98.5514 99.3625 98.5846V91.4952C99.9727 90.8796 100.523 90.2087 101.008 89.4914L102.48 87.3064H107.617C106.772 87.1326 105.911 87.0432 105.048 87.0392C104.192 86.9514 103.328 86.9803 102.48 87.1251C101.917 87.2626 101.387 87.509 100.921 87.8502C100.364 88.1607 99.8418 88.5286 99.3625 88.9476L98.6314 86.3999C100.083 86.1946 101.5 85.7967 102.845 85.2167C104.175 84.6497 105.612 84.3699 107.059 84.3962C108.274 84.3756 109.485 84.5595 110.638 84.94C111.852 85.3294 113.124 85.5132 114.4 85.4839V85.3026C114.424 85.3057 114.449 85.3032 114.473 85.2952C114.497 85.2872 114.518 85.2739 114.536 85.2564C114.553 85.2389 114.567 85.2176 114.575 85.1942C114.583 85.1708 114.586 85.1459 114.582 85.1213C114.169 84.5684 113.708 84.0513 113.207 83.5756C112.533 82.9172 112.139 82.6214 112.014 82.6214H101.931C100.895 83.4875 99.7126 84.1657 98.4389 84.6251V82.6214C98.4389 83.5756 98.3812 85.169 98.2562 87.3923C98.1311 89.6155 98.0156 91.915 97.8906 94.3958C97.7655 96.8767 97.65 99.2525 97.525 101.495C97.3999 103.737 97.3422 105.311 97.3422 106.132C97.2949 107.138 97.1727 108.14 96.9766 109.128C96.7221 110.552 96.3521 111.953 95.8702 113.317C95.4187 114.648 94.7702 115.906 93.9461 117.048C93.6428 117.539 93.2191 117.946 92.7145 118.232C92.2098 118.517 91.6407 118.671 91.0599 118.679C89.9607 118.721 88.8839 118.365 88.0294 117.678C87.2172 117.002 86.4817 116.24 85.8359 115.407C85.1625 114.557 84.4794 113.708 83.8156 112.859C83.2168 112.071 82.4255 111.447 81.5162 111.046C81.3516 110.448 81.2294 109.839 81.1507 109.224C81.0352 108.374 80.9101 107.439 80.7851 106.361C80.66 105.283 80.5445 104.367 80.4195 103.451C80.3207 102.819 80.2596 102.182 80.2367 101.543V100.999C81.8209 99.6629 83.3506 98.4797 84.8257 97.4492C86.4202 96.2913 87.8392 94.9128 89.0396 93.3558C88.8884 93.1457 88.8231 92.8866 88.8568 92.6306C88.834 92.259 88.8965 91.8871 89.0396 91.5429C89.3983 91.0516 89.8334 90.6201 90.3287 90.2643C90.8181 89.9086 91.2497 89.4806 91.6083 88.9953C92.8189 87.6479 93.7944 86.1097 94.4945 84.4439C95.2274 82.7453 96.086 81.1029 97.0632 79.5299V82.0775C98.3358 80.7207 100.029 79.8241 101.874 79.5299C103.72 79.1839 105.594 79.0019 107.473 78.986V77.717H106.732C106.491 77.717 105.77 77.8028 104.538 77.9841C103.307 78.1654 102.614 78.2609 102.335 78.2609H101.19L101.931 77.717C101.861 77.714 101.792 77.6963 101.729 77.665C101.666 77.6338 101.61 77.5897 101.566 77.5357C101.494 77.5391 101.424 77.5569 101.359 77.5881C101.295 77.6193 101.237 77.6631 101.19 77.717C100.739 77.7859 100.305 77.938 99.9109 78.1654C99.4456 78.3742 99.0143 78.6508 98.6314 78.986C98.1311 78.8715 97.8906 78.5089 97.8906 77.8983V76.4384C97.9102 75.9116 98.0534 75.3968 98.309 74.9346C98.5645 74.4725 98.9253 74.0758 99.3625 73.7763C100.226 73.0255 101.332 72.6059 102.48 72.5931H112.745C113.471 72.7195 114.125 73.1067 114.582 73.6809C115.065 74.1185 115.498 74.6081 115.872 75.1407V74.2342C115.876 73.8346 115.844 73.4354 115.775 73.0415C115.639 72.6125 115.42 72.2139 115.131 71.8679C113.668 71.6198 112.437 71.4767 111.465 71.4099C110.494 71.3431 109.32 71.3145 107.983 71.3145C106.645 71.3145 105.26 71.3145 103.855 71.4099C102.531 71.4625 101.212 71.6156 99.9109 71.8679C99.7858 71.9824 99.478 72.2305 98.9969 72.5931C98.718 72.839 98.3903 73.0242 98.0349 73.137L97.6693 73.3183L97.3037 73.137C97.0677 72.8805 96.8521 72.6061 96.6591 72.3163C96.4172 72.0022 96.2047 71.6669 96.0242 71.3145C95.9919 70.8274 95.9276 70.343 95.8317 69.8642C95.7163 69.139 95.5624 68.3757 95.3796 67.5933C95.1968 66.8108 95.0429 66.0475 94.9178 65.3128C94.814 64.7745 94.7529 64.2289 94.735 63.6811V63.2804C94.7006 62.2691 94.9586 61.2691 95.4785 60.3984C95.9985 59.5277 96.7586 58.8227 97.6693 58.3664C99.3885 57.3384 101.348 56.7727 103.355 56.7253C104.432 56.7249 105.507 56.8175 106.568 57.002C107.626 57.1837 108.698 57.2731 109.772 57.2691C109.772 56.668 109.589 56.315 109.224 56.315C108.858 56.315 108.493 56.0192 108.127 55.4085H105.558C103.546 55.3835 101.54 55.6274 99.5934 56.1337C97.6098 56.773 95.8994 58.0529 94.735 59.7691H94.1866V52.317C94.1866 51.4678 94.735 50.7712 95.8317 50.2178C97.0108 49.6494 98.2413 49.1926 99.5068 48.8534C100.772 48.5081 102.057 48.2373 103.355 48.0424C104.577 47.8611 105.279 47.7656 105.558 47.7656C107.546 47.7454 109.514 48.1488 111.331 48.9488C113.068 49.7211 114.755 50.6007 116.381 51.5823C116.862 51.4678 117.113 51.0384 117.113 50.3132C117.113 49.8298 116.593 49.3432 115.554 48.8534C114.372 48.3247 113.146 47.9 111.889 47.5843C110.558 47.2361 109.209 46.9622 107.848 46.7637C106.969 46.6221 106.082 46.5328 105.193 46.4965C103.175 46.4832 101.188 46.9826 99.4202 47.9469C97.7743 48.886 95.9122 49.3888 94.0134 49.4068C94.0083 47.8551 94.3847 46.3256 95.1102 44.9508C95.8414 43.5577 97.2556 42.8517 99.3337 42.8517H110.157C110.78 42.9889 111.391 43.1739 111.985 43.4051C112.184 43.5751 112.4 43.7253 112.629 43.8535C112.821 43.9926 113.041 44.0872 113.274 44.1302C113.344 44.1256 113.412 44.1071 113.475 44.076C113.538 44.0449 113.594 44.0017 113.64 43.9489C113.88 43.7009 114.005 43.5196 114.005 43.4051L112.716 42.1265H97.3229C97.0801 42.3109 96.7965 42.4352 96.4956 42.4891C96.1665 42.5868 95.845 42.708 95.5335 42.8517H94.8023V40.8574C94.8023 40.7334 95.2257 40.3708 96.0915 39.7601C96.7285 39.2874 97.4007 38.8632 98.1022 38.4911C98.9862 37.9662 100.008 37.7137 101.037 37.7659H104.173C105.315 37.7539 106.455 37.8756 107.569 38.1285C108.623 38.3705 109.701 38.4922 110.782 38.4911H111.513C111.123 37.8918 110.54 37.4411 109.859 37.2125C109.002 36.8499 108.454 36.6114 108.214 36.4873H104.173C102.641 36.4611 101.11 36.5536 99.5934 36.7641C98.1492 37.0833 96.7785 37.6692 95.5527 38.4911C95.4116 37.0388 95.3506 35.5799 95.37 34.121C95.437 32.3586 95.0601 30.6073 94.2732 29.0257C94.1228 29.4345 94.0605 29.8702 94.0904 30.3043C94.3309 30.915 94.1481 31.1536 93.542 31.0295C93.0584 30.913 92.5537 30.913 92.0701 31.0295C91.4544 31.2776 91.2138 31.0295 91.3389 30.3902C91.4566 29.8816 91.4566 29.3531 91.3389 28.8444C91.5523 28.9107 91.778 28.9288 91.9994 28.8974C92.2207 28.8661 92.4323 28.786 92.6185 28.6631C92.9639 28.4384 93.3353 28.2558 93.7248 28.1193C93.4372 27.7695 93.0726 27.4895 92.6591 27.301C92.2455 27.1124 91.7939 27.0203 91.3389 27.0315C90.8483 27.0315 90.5693 27.2128 90.5115 27.5754C90.4493 27.9346 90.4203 28.2987 90.425 28.6631C90.4022 28.9662 90.4474 29.2705 90.5572 29.5542C90.6669 29.838 90.8386 30.0941 91.0599 30.3043C91.4928 30.6669 91.9162 31.0581 92.3491 31.4875C92.822 31.9631 93.2503 32.4805 93.6286 33.0332C94.0995 33.7978 94.3244 34.6864 94.2732 35.5809V37.2125C94.1513 37.8486 93.9974 38.8505 93.8114 40.2182C93.6286 41.6112 93.3881 43.0807 93.0802 44.6741C92.7724 46.2676 92.4934 47.7656 92.2529 49.2255C92.0124 50.6854 91.8296 51.7063 91.7045 52.317C91.2917 52.4814 90.863 52.6029 90.425 52.6796C90.0014 52.7773 89.57 52.838 89.1358 52.8609H88.5874C88.4125 52.8846 88.2344 52.8678 88.0671 52.8119C87.8999 52.756 87.7479 52.6625 87.623 52.5387C87.4982 52.4149 87.404 52.2642 87.3476 52.0983C87.2913 51.9324 87.2744 51.7558 87.2982 51.5823V51.0384C88.2795 48.6148 89.2576 46.2199 90.2325 43.8535C91.231 41.3984 91.7312 38.7719 91.7045 36.1247C91.6976 35.4896 91.5394 34.8652 91.2427 34.3023L90.425 32.6707C90.4758 35.5622 90.1525 38.4482 89.4629 41.2582C88.6678 44.028 87.5269 46.6885 86.0668 49.1778H83.9695C82.6652 49.1985 81.3659 49.0117 80.1212 48.6244C79.026 48.2701 77.979 47.7829 77.0041 47.174C76.0421 46.5634 75.08 45.8955 74.0699 45.1703C73.0597 44.4451 71.9918 43.6531 70.77 42.8039C70.4579 42.6617 70.1365 42.5406 69.8079 42.4413C69.4593 42.3561 69.1206 42.2346 68.7977 42.0788C68.5476 42.0788 68.0858 42.0788 67.422 41.9929L65.3055 41.8116L63.112 41.6208L61.8228 41.5349C61.1078 41.4036 60.4285 41.1252 59.8287 40.7177C59.2288 40.3101 58.7218 39.7824 58.3401 39.1685C57.2007 37.6481 56.248 35.9986 55.502 34.2546C54.7231 32.4859 54.0799 30.6614 53.5779 28.7967C53.1819 27.4959 52.9366 26.1546 52.8467 24.7988V21.9363C53.2367 21.1517 53.8028 20.4663 54.5015 19.9325C55.1113 19.4532 55.6633 18.9057 56.1466 18.3009C57.8548 16.0445 59.7261 13.9142 61.7458 11.927C63.4091 10.3126 65.2902 8.93506 67.3354 7.83368C69.4174 6.76652 71.6433 6.00172 73.9448 5.56275C76.8001 5.0404 79.7002 4.7975 82.6034 4.83758C83.0844 4.83758 84.0946 4.8376 85.6242 4.92348C87.1539 5.00935 88.1641 5.01887 88.6547 5.01887C89.7515 5.62954 90.8867 6.20204 92.0508 6.74591C93.2238 7.29468 94.506 7.57509 95.8029 7.56648C97.2418 7.42446 98.5938 6.81769 99.6511 5.83944C100.862 4.80914 102.309 4.08843 103.865 3.74026C104.058 3.58402 104.276 3.4614 104.51 3.37767C104.746 3.29937 104.965 3.17628 105.154 3.01514C105.093 3.1433 105.061 3.28347 105.061 3.42542C105.061 3.56738 105.093 3.70755 105.154 3.83571C105.27 4.14104 105.452 4.29369 105.703 4.29369C105.987 4.28151 106.267 4.22015 106.53 4.1124C106.828 3.98836 106.982 3.8643 106.982 3.74026V4.29369L110.83 5.56275H111.561C112.056 5.47361 112.545 5.35249 113.024 5.20016C113.88 4.96162 114.775 4.74218 115.689 4.56089C116.603 4.3796 117.459 4.1983 118.257 4.017C118.768 3.88027 119.289 3.78765 119.816 3.74026C120.778 3.62576 121.403 3.55896 121.654 3.55896C122.824 3.54957 123.981 3.80065 125.04 4.29369C126.105 4.77907 127.264 5.02663 128.436 5.01887C129.118 4.93662 129.759 4.65043 130.274 4.1983C131.005 3.65442 131.832 3.08192 132.746 2.47126C133.66 1.86059 134.67 1.28809 135.68 0.744213C136.667 0.211794 137.771 -0.0701663 138.894 -0.076416C140.777 -0.0311643 142.625 0.435311 144.301 1.2881C146.002 2.1371 147.826 2.71968 149.707 3.01514C149.832 3.01514 150.256 3.01512 150.997 3.11053C151.737 3.20595 152.459 3.26317 153.2 3.37767C153.94 3.49217 154.633 3.59717 155.307 3.65442C155.98 3.71167 156.432 3.74026 156.682 3.74026C158.179 3.91168 159.618 4.41032 160.896 5.20016C162.003 5.92533 163.34 6.71727 164.937 7.56648C166.257 8.26522 167.638 8.84328 169.064 9.29353C169.801 9.48499 170.464 9.8892 170.97 10.4548C171.475 11.0205 171.799 11.7221 171.902 12.4709C172.263 13.9105 172.539 15.3696 172.73 16.841C172.998 18.4664 173.153 20.1083 173.191 21.755C173.225 23.1088 173.037 24.4591 172.633 25.7529C172.268 26.8502 171.873 27.938 171.45 29.0257C171 30.1825 170.63 31.3685 170.344 32.5753C170.023 34.0992 169.929 35.6615 170.065 37.2125C168.72 38.749 167.143 40.0688 165.389 41.1246C163.637 42.3178 161.764 43.3252 159.799 44.1302C158.63 44.5294 157.434 44.8482 156.221 45.0844C154.961 45.3204 153.788 45.8872 152.824 46.7256C152.215 47.2146 151.689 47.7977 151.266 48.4526C150.843 49.1206 150.448 49.7599 150.083 50.361C149.708 50.975 149.241 51.5285 148.697 52.0021C148.043 52.5249 147.245 52.8407 146.407 52.9086C145.801 53.0326 144.541 53.1757 142.646 53.357C140.751 53.5383 139.5 53.6338 138.894 53.6338C138.251 54.3808 137.471 54.9993 136.594 55.4562C135.724 55.9294 134.749 56.1787 133.756 56.1814C133.424 56.1343 133.1 56.0412 132.794 55.9047C132.466 55.8089 132.156 55.6571 131.88 55.4562L131.697 55.2749C131.743 53.4243 132.317 51.6245 133.352 50.0842C134.419 48.4282 134.99 46.5057 134.997 44.5405V43.4527C134.997 43.3287 134.997 42.8707 134.911 42.0883C134.824 41.3059 134.786 40.5044 134.728 39.722C134.67 38.9396 134.603 38.1762 134.545 37.4415C134.487 36.7068 134.449 36.2297 134.449 35.9912V35.6286C134.442 34.2075 134.659 32.794 135.094 31.4398C135.532 30.0276 135.75 28.5569 135.738 27.0792C135.755 26.2154 135.628 25.3547 135.363 24.5316C135.106 23.7069 134.983 22.847 134.997 21.984C135.016 20.9002 135.201 19.8256 135.546 18.7971C135.872 17.8193 136.119 16.8174 136.287 15.801C137.062 15.5943 137.782 15.2196 138.393 14.7037C138.942 14.2266 139.49 13.7495 140.039 13.3392C140.609 12.9103 141.225 12.5455 141.876 12.2515C142.724 11.9284 143.644 11.8329 144.541 11.9747C144.416 11.3736 143.983 11.0969 143.252 11.1637L141.972 11.2496C140.938 11.2588 139.914 11.4427 138.942 11.7934C137.975 12.1162 137.075 12.611 136.287 13.2533L134.959 12.0034C134.353 11.4023 133.92 10.9824 133.679 10.7343C133.439 10.4862 133.371 10.6389 133.131 10.8202C132.974 10.9611 132.781 11.0568 132.573 11.0969L132.39 11.2782C132.664 11.6933 133.006 12.0608 133.4 12.366C133.946 12.8494 134.266 13.1675 134.362 13.3201V13.864C134.224 14.0036 134.069 14.1255 133.901 14.2266C133.718 14.3507 133.631 14.4746 133.631 14.5892V14.7704C133.619 15.3386 133.744 15.9015 133.997 16.4116C134.245 16.9233 134.37 17.4851 134.362 18.0528C134.361 18.6387 134.271 19.221 134.093 19.7798C133.901 20.3237 133.323 20.4764 132.342 20.2283C133.016 21.028 133.573 21.9177 133.997 22.8714C134.266 23.7228 134.39 24.6129 134.362 25.5048C134.377 26.8715 134.129 28.2283 133.631 29.5028C133.128 30.7792 132.876 32.1398 132.89 33.5103C132.89 33.8729 132.89 34.4645 132.987 35.2374C133.083 36.0102 133.083 36.4873 133.083 36.6018C133.083 36.7163 133.169 37.6992 133.352 39.1495C133.535 40.5998 133.631 41.449 133.631 41.6971C133.631 41.9452 133.506 42.4223 133.266 43.5195C133.025 44.6168 132.737 45.7618 132.438 46.9736C132.155 48.1191 131.785 49.2419 131.332 50.3323C130.909 51.3724 130.514 51.8781 130.149 51.8781C129.507 51.8781 129.017 51.3342 128.677 50.2465C128.311 49.1492 128.061 48.424 127.945 48.0614V49.5213C127.899 50.9598 128.35 52.3708 129.225 53.5193C130.059 54.5504 130.514 55.8327 130.514 57.1547C130.529 57.6134 130.484 58.072 130.379 58.5191C130.31 58.7 130.206 58.8656 130.072 59.0064C129.939 59.1473 129.778 59.2605 129.6 59.3397L128.311 56.7921H127.58C128.415 60.4758 128.965 64.2175 129.225 67.9844C129.475 71.6866 129.6 75.4143 129.6 79.1673V85.7129C129.592 88.4587 129.364 91.1994 128.917 93.9092C128.504 96.5608 127.686 99.1346 126.493 101.543C126.015 102.593 125.33 103.537 124.477 104.319C123.624 105.101 122.621 105.704 121.528 106.094V105.359C121.502 103.156 121.748 100.958 122.26 98.8136C122.796 96.4279 123.042 93.9868 122.991 91.5429C122.992 87.5597 122.53 83.5896 121.615 79.7112C120.699 75.8361 120.238 71.8691 120.239 67.889V66.9826C120.355 66.3719 120.48 65.1887 120.605 63.433C120.73 61.6774 120.855 60.4942 120.97 59.8836C121.645 58.9276 122.38 58.016 123.174 57.1547C123.664 56.6776 124.828 56.3722 126.656 56.2482H120.605V49.8839C120.355 53.1599 120.143 56.827 119.97 60.8854C119.797 64.9438 119.476 68.6142 119.008 71.8966C118.975 72.3831 118.914 72.8674 118.825 73.3469C118.7 74.072 118.575 74.864 118.46 75.7132C118.344 76.5625 118.18 77.383 117.998 78.1654C117.88 78.6149 117.787 79.0704 117.719 79.5299C117.594 81.5891 117.594 83.6538 117.719 85.7129C117.844 87.6212 117.902 89.5964 117.902 91.5429C117.904 93.3682 117.782 95.1917 117.536 97.0007C117.234 99.0013 116.682 100.957 115.891 102.821C114.75 105.557 113.399 108.201 111.85 110.731C110.145 113.572 108.181 116.252 105.982 118.737C103.867 121.145 101.43 123.255 98.7372 125.006C96.2737 126.658 93.3699 127.545 90.3961 127.553H87.2694C86.9472 127.481 86.6387 127.359 86.3554 127.191C86.0182 126.998 85.6452 126.874 85.2587 126.828C85.0256 126.871 84.8052 126.966 84.6141 127.105C84.3849 127.233 84.169 127.383 83.9695 127.553C85.1467 128.194 86.415 128.654 87.7312 128.918C89.0256 129.21 90.348 129.364 91.6756 129.376C93.3239 129.308 94.9493 128.969 96.4859 128.374C98.1216 127.826 99.6977 127.116 101.19 126.256V126.437C101.196 127.735 100.982 129.026 100.555 130.253C100.124 131.48 99.9059 132.771 99.9109 134.07C99.9051 135.14 100.028 136.207 100.276 137.248C100.519 138.293 100.642 139.362 100.642 140.434C100.642 140.797 100.613 141.312 100.555 141.98C100.479 142.691 100.324 143.392 100.094 144.07C99.8981 144.735 99.571 145.354 99.1316 145.892C98.9186 146.131 98.6439 146.308 98.3371 146.404C98.0303 146.5 97.703 146.511 97.3903 146.436C97.2652 146.436 96.9574 146.14 96.4282 145.53C95.8991 144.919 95.6297 144.576 95.4662 144.432H94.735C95.0364 144.703 95.2591 145.049 95.3796 145.434C95.4366 145.749 95.4656 146.068 95.4662 146.388C95.4586 146.76 95.3417 147.122 95.1298 147.429C94.9178 147.736 94.6201 147.974 94.2732 148.116C93.6695 148.469 93.0229 148.745 92.3491 148.936C91.5454 148.878 90.7476 148.757 89.9632 148.574C88.7413 148.335 88.039 148.03 87.7696 147.619C87.235 146.727 86.8332 145.763 86.5767 144.757C86.3939 143.908 86.1726 142.934 85.9321 141.837C85.5665 141.112 85.3164 140.749 85.2009 140.749C85.1382 140.423 85.0448 140.104 84.9219 139.795C84.7949 139.471 84.7015 139.136 84.6429 138.793L83.9118 137.343C83.5462 136.618 83.1517 135.854 82.7188 135.072C82.2859 134.29 81.8914 133.526 81.5259 132.792L80.7947 131.341L81.5643 126.771ZM56.897 179.069C57.5705 179.25 57.8591 179.832 57.8591 180.796C57.8591 181.759 57.2433 182.437 56.0215 182.437C55.1653 182.437 54.7131 181.922 54.6458 180.891C54.5784 179.861 54.5592 179.164 54.5592 178.802C55.3479 178.792 56.1343 178.888 56.897 179.088V179.069ZM55.704 160.94C55.704 161.426 55.8291 161.607 56.0696 161.483C56.181 161.442 56.2769 161.368 56.344 161.27C56.4112 161.173 56.4464 161.057 56.4448 160.94C56.4628 160.795 56.4366 160.649 56.3697 160.52C56.3028 160.39 56.1982 160.284 56.0696 160.214C55.8291 160.148 55.704 160.386 55.704 160.987V160.94ZM59.1867 167.857C59.3118 167.619 59.5234 167.161 59.8313 166.493C60.1392 165.825 60.4759 165.128 60.8415 164.403C61.2071 163.678 61.5438 162.972 61.8035 162.304C62.0633 161.636 62.3231 161.188 62.4481 160.94C62.4481 160.462 62.6309 160.214 62.9965 160.214H63.5449C63.9334 162.706 64.8374 165.09 66.2002 167.218C67.5188 169.366 69.232 171.25 71.251 172.771V173.134C71.2429 173.32 71.1764 173.499 71.0609 173.646C70.9454 173.793 70.7865 173.901 70.6064 173.954C70.1735 174.126 69.6925 174.317 69.1441 174.498C68.5558 174.692 67.9986 174.968 67.4893 175.319C67.2076 175.535 66.9759 175.809 66.81 176.122C66.644 176.435 66.5476 176.779 66.5273 177.132H65.7961C66.0366 177.742 65.8538 177.981 65.2381 177.857C64.7577 177.741 64.2562 177.741 63.7758 177.857C63.16 178.105 62.9195 177.924 63.0446 177.313C63.1617 176.837 63.1617 176.339 63.0446 175.863C62.7945 175.252 63.0446 174.985 63.7758 175.042C64.0719 175.033 64.365 175.104 64.6229 175.249C64.8808 175.394 65.0936 175.606 65.2381 175.863C65.1701 175.677 65.0457 175.517 64.8821 175.405C64.7122 175.297 64.5835 175.136 64.5166 174.947C63.8401 175.135 63.2271 175.5 62.7414 176.004C62.2558 176.507 61.9153 177.131 61.7554 177.809C61.097 177.383 60.6101 176.742 60.3797 175.996C60.0624 175.108 59.8179 174.195 59.6485 173.267C59.4672 172.322 59.3451 171.366 59.2829 170.405C59.2252 169.451 59.1867 168.649 59.1867 168.039V167.857ZM70.0099 141.293H69.4616C69.9562 140.813 70.6084 140.525 71.2991 140.482C72.0303 140.415 72.7037 140.387 73.3098 140.387V139.433H70.0099V141.293ZM70.1927 142.028C70.183 142.103 70.1908 142.178 70.2156 142.249C70.2403 142.32 70.2814 142.385 70.3354 142.437C70.3895 142.49 70.4551 142.53 70.5272 142.553C70.5992 142.576 70.6757 142.583 70.7507 142.572C70.9912 142.572 71.1163 142.391 71.1163 142.028C71.1163 141.665 70.9912 141.293 70.7507 141.293C70.5102 141.293 70.1927 141.589 70.1927 142.076V142.028ZM72.0303 142.572H72.5787C72.9892 142.616 73.4019 142.511 73.7399 142.275C74.0779 142.04 74.3183 141.691 74.4162 141.293L72.0303 142.572ZM87.8947 28.9685C88.39 30.1081 89.0372 31.1768 89.8188 32.1459V31.4207C89.8281 30.4985 89.705 29.5796 89.4533 28.6918C89.2056 27.8031 89.0826 26.8849 89.0877 25.9629C89.0741 24.7139 89.3231 23.4757 89.8188 22.3275C90.3088 21.2348 90.8613 20.1708 91.4736 19.1406C92.0809 18.1125 92.6301 17.0517 93.1187 15.9632C93.623 14.8139 93.8755 13.5716 93.8595 12.3183C93.4385 12.2716 93.0123 12.3213 92.6137 12.4636C92.2151 12.6058 91.8547 12.8368 91.5602 13.1389C91.1518 13.6544 90.8421 14.2397 90.6462 14.8659C90.4681 15.4573 90.3773 16.0711 90.3768 16.6883C90.4034 16.8801 90.3624 17.075 90.2607 17.2402C90.159 17.4054 90.0029 17.5306 89.8188 17.5948V17.0509C89.654 17.2231 89.4556 17.3601 89.2356 17.4536C89.0156 17.5471 88.7787 17.5952 88.5393 17.5948C87.9236 17.4803 87.4618 16.9937 87.1636 16.1444C86.9882 15.4681 86.5622 14.8821 85.9706 14.5033C85.3549 14.5033 84.0465 14.5701 82.1223 14.6846C80.1982 14.7991 78.8802 14.9327 78.2741 15.0472C77.7638 15.2065 77.243 15.3309 76.7155 15.4193C76.0421 15.5338 75.7535 15.6578 75.7535 15.7819V17.0509C76.6834 17.0607 77.6099 16.9386 78.505 16.6883C79.401 16.4427 80.3269 16.3207 81.2565 16.3257C82.6444 16.2081 84.0388 16.4584 85.2971 17.0509C86.4982 17.9698 87.6036 19.0055 88.597 20.1424C88.1203 21.0042 87.752 21.9207 87.5003 22.8714C87.3546 23.7126 87.2902 24.5657 87.3079 25.419C87.2589 26.6449 87.4584 27.8682 87.8947 29.0162V28.9685ZM80.6504 114.195H77.1677C76.552 114.433 76.273 114.348 76.3403 113.918C76.3888 113.602 76.4177 113.283 76.4269 112.964C76.0613 111.876 76.273 111.39 77.0715 111.514C77.7714 111.638 78.4881 111.638 79.188 111.514C79.1205 111.644 79.0927 111.791 79.1081 111.937C79.1235 112.082 79.1813 112.221 79.2746 112.334L79.9192 112.964C79.7941 113.451 79.9192 113.632 80.3714 113.508C80.6978 113.391 81.0551 113.391 81.3815 113.508L80.6504 114.195ZM79.9192 78.9955C79.6691 77.965 79.3708 76.8391 78.9571 75.6273C78.8047 74.8482 78.7465 74.0538 78.784 73.261V70.9137C78.7623 67.6387 79.2856 64.3827 80.3329 61.2767C81.4017 58.127 82.2314 54.9024 82.815 51.63H85.9321L87.2116 55.4467C87.3941 55.8833 87.5171 56.3422 87.5772 56.8111C87.6616 57.202 87.7259 57.5969 87.7696 57.9943V59.2633C87.7696 59.9885 87.6734 61.353 87.4907 63.3567C87.3079 65.3605 87.1251 67.4501 86.9423 69.6351C86.7595 71.8202 86.5767 73.9098 86.3939 75.9136C86.2111 77.9173 86.0572 79.339 85.9321 80.1882C85.3164 82.6118 84.5275 85.3122 83.5462 88.2796C82.7333 91.006 81.139 93.4392 78.9571 95.2832C78.9571 95.0446 78.9571 94.4054 78.8706 93.3749C78.784 92.3444 78.784 91.7051 78.784 91.4665C78.7576 89.9187 79.0051 88.3783 79.5151 86.9152C80.0214 85.4511 80.2687 83.9113 80.2463 82.3638C80.2633 81.2483 80.1536 80.1344 79.9192 79.0433V78.9955ZM89.8188 54.8933C89.9314 54.6025 90.1044 54.3384 90.3264 54.1181C90.5485 53.8979 90.8148 53.7263 91.108 53.6147H91.666C92.519 56.7952 93.2823 60.0998 93.9557 63.5285C94.6001 66.8554 94.9222 70.2359 94.9178 73.6236C94.8962 76.1627 94.4642 78.6818 93.6382 81.0852C92.7707 83.6522 91.6324 86.1213 90.2422 88.4514C88.8582 90.7881 87.1624 92.9289 85.2009 94.8157C83.3911 96.5957 81.277 98.0431 78.9571 99.0904C78.9472 98.9523 78.8854 98.8229 78.784 98.7278C79.9962 96.5396 81.0031 94.7521 81.8049 93.3654C82.6066 91.9786 83.3409 90.6746 84.008 89.4532C84.4534 88.689 84.8518 87.8988 85.2009 87.0869C85.3606 86.8974 85.4845 86.6808 85.5665 86.4476C85.6428 86.2147 85.7673 86.0002 85.9321 85.8179C88.1421 75.6592 89.4427 65.3267 89.8188 54.941V54.8933ZM81.7567 146.388C81.7567 146.751 81.8722 146.932 82.1223 146.932C82.197 146.944 82.2733 146.937 82.345 146.914C82.4168 146.891 82.482 146.851 82.5354 146.798C82.5888 146.745 82.6288 146.681 82.6524 146.609C82.6759 146.538 82.6821 146.462 82.6707 146.388C82.6707 145.902 82.4879 145.663 82.1223 145.663C81.7567 145.663 81.7567 145.95 81.7567 146.436V146.388ZM82.8535 105.273C82.9095 105.857 83.0946 106.421 83.3956 106.926C83.6966 107.431 84.106 107.863 84.5948 108.193C85.4874 109.029 86.6022 109.596 87.8081 109.825C88.1737 109.825 88.9337 109.825 90.0978 109.739C90.8688 109.728 91.6365 109.635 92.3876 109.462H90.3768C90.8579 109.462 91.6852 109.462 92.8493 109.367C93.7982 109.379 94.727 109.095 95.5046 108.556C95.4984 108.288 95.4038 108.03 95.2353 107.821C95.0933 107.63 94.939 107.448 94.7735 107.277H94.5522C93.6878 107.266 92.8252 107.359 91.9835 107.554C91.1413 107.746 90.2788 107.835 89.4148 107.821H86.5286C86.1479 107.294 85.955 106.656 85.9802 106.008V105.273C86.2207 105.273 87.1058 105.159 88.6355 104.911C89.6985 104.822 90.7308 104.513 91.666 104.004V103.46C91.3951 103.081 91.0118 102.794 90.5693 102.64C90.0346 102.453 89.4789 102.331 88.9145 102.277C88.2988 102.22 87.7504 102.182 87.2598 102.182H86.5286V101.819C86.5286 101.342 86.8364 101.066 87.4907 100.999C88.1449 100.932 88.5201 100.913 88.7702 100.913C90.2908 100.776 91.8054 101.231 92.9937 102.182C93.4234 102.609 93.9376 102.943 94.5039 103.163C95.0701 103.383 95.6762 103.484 96.2839 103.46C96.2839 102.004 95.3379 101.002 93.4458 100.455C91.9911 99.9881 90.4802 99.7153 88.953 99.6437C87.4626 99.6398 85.9901 99.9658 84.6429 100.598C83.972 100.899 83.3915 101.368 82.958 101.958C82.5246 102.548 82.2532 103.24 82.1704 103.966H89.867C88.7191 104.222 87.5558 104.404 86.3843 104.51C85.2272 104.629 84.0648 104.69 82.9016 104.691L82.8535 105.273ZM82.3051 132.563C82.2937 132.637 82.3 132.712 82.3235 132.783C82.347 132.855 82.3871 132.919 82.4405 132.972C82.4939 133.025 82.5591 133.065 82.6308 133.088C82.7026 133.112 82.7789 133.118 82.8535 133.106C83.094 133.106 83.2191 132.925 83.2191 132.563C83.2191 132.2 83.094 131.837 82.8535 131.837C82.613 131.837 82.3051 132.133 82.3051 132.61V132.563ZM82.8535 150.215C82.8287 150.212 82.8036 150.214 82.78 150.222C82.7564 150.23 82.735 150.243 82.7173 150.261C82.6997 150.278 82.6863 150.3 82.6782 150.323C82.6701 150.347 82.6676 150.371 82.6707 150.396C82.6707 150.635 82.7284 150.759 82.8535 150.759L83.4019 149.48C83.0074 149.528 82.8535 149.776 82.8535 150.262V150.215ZM83.5847 120.197C83.3345 120.197 83.2768 120.321 83.4019 120.559C83.5269 120.798 83.6424 120.922 83.7675 120.922C83.8925 120.922 83.9502 120.807 83.9502 120.559C83.9502 120.311 83.9695 120.244 83.5847 120.244V120.197ZM89.8188 143.097V142.915C89.8188 142.317 89.636 141.999 89.2705 141.961C88.908 141.901 88.5412 141.869 88.1737 141.866H87.2116L89.8188 143.097ZM87.9909 16.5261C87.9795 16.6002 87.9858 16.6758 88.0093 16.747C88.0328 16.8181 88.0729 16.8828 88.1263 16.9358C88.1797 16.9887 88.2449 17.0285 88.3166 17.0518C88.3884 17.0751 88.4647 17.0814 88.5393 17.07C88.7798 17.07 88.9049 16.8887 88.9049 16.5261C88.9049 16.1636 88.7798 15.801 88.5393 15.801C88.2988 15.801 87.9909 16.0681 87.9909 16.5261ZM90.3768 146.951C90.6216 146.141 91.1374 145.438 91.8392 144.957C92.5993 144.521 93.3979 144.153 94.2251 143.86H90.3768V146.951ZM94.5522 108.603C94.5522 108.966 94.4271 109.147 94.1866 109.147C93.9461 109.147 93.821 108.966 93.821 108.603C93.821 108.241 93.9365 107.869 94.1866 107.869C94.4367 107.869 94.5522 108.126 94.5522 108.603ZM105.924 76.7628H103.538C103.172 76.7628 103.047 76.8296 103.172 76.9441C103.598 77.2471 104.124 77.3799 104.644 77.3162C105.22 77.3882 105.802 77.2564 106.289 76.9441C106.453 76.8296 106.328 76.7628 105.962 76.7628H105.924ZM106.472 82.0393C106.472 82.4019 106.597 82.5832 106.838 82.5832C106.912 82.5946 106.989 82.5884 107.06 82.565C107.132 82.5417 107.197 82.502 107.251 82.449C107.304 82.3961 107.344 82.3314 107.368 82.2602C107.391 82.1891 107.398 82.1134 107.386 82.0393C107.386 81.5622 107.213 81.3142 106.838 81.3142C106.463 81.3142 106.511 81.5622 106.511 82.0393H106.472ZM111.61 39.1017C111.61 39.4643 111.725 39.6456 111.975 39.6456C112.121 39.6456 112.26 39.5883 112.363 39.4863C112.466 39.3843 112.524 39.246 112.524 39.1017C112.524 38.9575 112.466 38.8192 112.363 38.7172C112.26 38.6152 112.121 38.5579 111.975 38.5579C111.764 38.5675 111.648 38.7487 111.648 39.1113L111.61 39.1017ZM115.275 86.5812C115.265 86.6557 115.273 86.7315 115.298 86.8025C115.323 86.8736 115.364 86.938 115.418 86.9907C115.472 87.0434 115.537 87.0829 115.609 87.1063C115.682 87.1296 115.758 87.136 115.833 87.1251C116.074 87.1251 116.199 86.9438 116.199 86.5812C116.199 86.2186 116.074 85.856 115.833 85.856C115.593 85.856 115.314 86.1041 115.314 86.5907L115.275 86.5812ZM126.377 144.423C126.587 143.963 126.862 143.535 127.195 143.154C126.829 143.402 126.464 143.307 126.098 142.877C125.946 142.684 125.752 142.527 125.531 142.418C125.309 142.309 125.066 142.251 124.819 142.247V145.158C124.819 145.272 124.665 145.396 124.357 145.52C124.096 145.633 123.815 145.695 123.53 145.701C123.223 145.718 122.918 145.75 122.616 145.797C122.252 145.845 121.886 145.873 121.519 145.883C120.934 145.884 120.35 145.855 119.768 145.797C119.22 145.73 118.95 145.272 118.95 144.423C118.919 143.88 119.051 143.341 119.328 142.873C119.606 142.404 120.016 142.027 120.509 141.789C121.45 141.294 122.473 140.971 123.53 140.835C123.315 140.691 123.056 140.627 122.798 140.654H121.336C121.086 140.654 120.961 140.721 120.961 140.835C120.732 140.881 120.515 140.975 120.326 141.112C120.133 141.247 119.913 141.338 119.681 141.379C119.556 141.379 119.316 141.198 118.95 140.835C118.825 140.597 118.642 140.167 118.402 139.566C118.459 139.212 118.616 138.882 118.854 138.612C119.104 138.258 119.38 137.923 119.681 137.61C119.681 136.522 119.614 135.158 119.499 133.517C119.383 131.876 119.316 130.215 119.316 128.517C119.304 126.812 119.426 125.108 119.681 123.422C119.862 122.024 120.296 120.669 120.961 119.424V109.147C121.988 108.374 122.953 107.522 123.847 106.6C124.971 105.49 126.016 104.304 126.974 103.05C127.918 101.825 128.746 100.515 129.446 99.1381C130.063 97.9579 130.393 96.6507 130.408 95.3214V63.6716C131.243 61.6796 131.856 59.6031 132.236 57.479H138.807C140.261 57.1974 141.656 56.6749 142.934 55.9333C144.232 55.1957 145.615 54.6159 147.052 54.2062C148.698 53.9272 150.246 53.2414 151.554 52.2121C152.426 51.4088 153.251 50.5583 154.027 49.6644C155.951 47.3348 158.709 45.8338 161.724 45.4756C162.606 45.2843 163.426 44.8776 164.109 44.2924L166.707 42.2887L168.997 40.4663C169.522 39.9781 170.202 39.6877 170.921 39.6456C171.234 39.6875 171.534 39.794 171.802 39.9584C172.071 40.1228 172.302 40.3413 172.479 40.5998C173.061 41.2634 173.556 41.9976 173.951 42.7849C174.375 43.6373 174.769 44.4865 175.135 45.3325C175.45 45.9583 175.639 46.6388 175.693 47.3362C176.278 50.3317 176.552 53.3787 176.51 56.4295C176.453 59.2252 176.424 62.3739 176.424 65.8948V78.299C176.305 81.0136 176 83.717 175.51 86.3903C175.019 89.0048 174.5 91.6383 173.951 94.31C173.403 96.9817 172.903 99.6151 172.479 102.22C172.043 104.895 171.827 107.601 171.835 110.311C171.835 112.258 171.896 114.109 172.018 115.865C172.155 117.691 172.527 119.493 173.124 121.227V133.784C173.124 135.234 172.604 136.141 171.565 136.513C170.594 136.864 169.569 137.047 168.535 137.057C167.316 137.057 166.643 136.57 166.515 135.597C166.444 135.103 166.258 134.632 165.973 134.222C165.687 133.811 165.309 133.472 164.869 133.23C165.035 133.885 165.097 134.561 165.052 135.234C165.093 135.848 165.032 136.463 164.869 137.057C164.744 137.543 164.321 137.782 163.58 137.782H162.301C161.935 137.782 161.416 137.782 160.742 137.686C160.069 137.591 159.78 137.295 159.78 136.732C159.739 136.167 159.833 135.599 160.055 135.077C160.278 134.554 160.622 134.092 161.06 133.727C162.023 133.021 163.173 132.61 164.369 132.544C163.707 132.696 163.028 132.757 162.349 132.725C161.73 132.772 161.108 132.71 160.511 132.544C160.386 132.544 160.175 132.362 159.867 132C159.559 131.637 159.347 131.456 159.232 131.456C159.116 131.456 158.982 131.274 158.501 131.274H158.048C157.923 131.274 157.856 131.332 157.856 131.456C158.227 131.915 158.508 132.439 158.683 133.002C158.909 133.493 159.065 134.013 159.145 134.547C159.145 135.759 158.808 136.456 158.183 136.732C157.382 136.992 156.543 137.114 155.701 137.095H154.056C153.584 136.532 153.325 135.823 153.325 135.091C153.507 133.596 154.041 132.165 154.883 130.912C155.922 129.086 156.625 127.75 156.99 126.904V110.989C157.011 110.52 157.128 110.06 157.333 109.637C157.538 109.214 157.827 108.836 158.183 108.527C158.906 107.856 159.443 107.011 159.742 106.075V105.34L157.173 107.344V105.712C157.148 104.075 157.738 102.487 158.828 101.256C159.91 100.018 160.495 98.429 160.473 96.7908V96.6095C160.107 97.2202 159.511 98.2221 158.731 99.6152C157.952 101.008 157.106 101.705 156.259 101.705H156.076V101.523C155.951 101.523 155.739 101.285 155.432 100.798C155.124 100.312 154.912 99.9491 154.787 99.7105C154.662 99.472 154.421 99.0427 154.056 98.432V91.5238C155.756 90.4996 157.326 89.2758 158.731 87.8789C160.405 86.2829 161.941 84.5497 163.321 82.6977C164.687 80.8861 165.855 78.9349 166.803 76.8773C167.683 75.0256 168.152 73.0083 168.179 70.9614C168.165 70.7177 168.133 70.4753 168.083 70.2363C168.039 69.9966 168.01 69.7544 167.996 69.5111C165.925 74.7228 163 79.5589 159.338 83.8237C156.041 87.5259 151.333 90.1053 145.214 91.562C145.064 91.3481 144.998 91.0862 145.032 90.8272C145.032 89.6104 145.281 88.4061 145.763 87.2873C146.257 86.1295 146.776 84.975 147.321 83.8237C147.87 82.6787 148.389 81.4955 148.88 80.2837C149.368 79.0698 149.617 77.774 149.611 76.467V75.6846L147.6 80.7799V70.0359C147.1 72.4359 146.778 74.8693 146.638 77.3162C146.503 79.7604 146.181 82.1909 145.676 84.587C145.479 85.33 145.235 86.0598 144.945 86.772C144.454 88.1079 144.089 89.0716 143.839 89.6345C142.893 91.8572 142.187 94.1727 141.732 96.5427C141.292 98.9447 141.076 101.382 141.087 103.823C141.082 105.769 141.204 107.713 141.453 109.643C141.71 111.573 141.835 113.518 141.828 115.464C141.86 117.754 141.422 120.027 140.539 122.143C139.676 124.188 139.241 126.386 139.259 128.603C139.225 130.859 139.694 133.094 140.635 135.148C141.49 136.846 141.96 138.709 142.011 140.606C142.05 141.837 141.625 143.038 140.818 143.974C140.419 144.425 139.923 144.782 139.367 145.018C138.811 145.254 138.209 145.364 137.605 145.339C137.349 145.358 137.092 145.318 136.854 145.224C136.615 145.13 136.402 144.983 136.229 144.795C135.93 144.437 135.684 144.038 135.498 143.612C135.315 143.182 135.132 142.791 134.949 142.429C134.856 142.247 134.71 142.097 134.53 141.998C134.35 141.9 134.144 141.857 133.939 141.875H133.574C133.799 142.087 133.979 142.341 134.105 142.623C134.23 142.905 134.298 143.209 134.305 143.516V145.158C134.305 146.493 133.997 147.343 133.391 147.705C132.475 148.13 131.465 148.317 130.456 148.249C129.544 148.215 128.643 148.031 127.792 147.705C127.321 147.57 126.895 147.313 126.557 146.961C126.219 146.609 125.981 146.174 125.867 145.701C125.966 145.247 126.152 144.816 126.416 144.432L126.377 144.423ZM119.037 87.6689C119.095 84.0617 119.494 80.4677 120.23 76.9345C120.408 77.6524 120.531 78.383 120.595 79.1196C120.72 80.2169 120.845 81.3619 120.961 82.5737C121.076 83.7855 121.211 84.94 121.336 86.0373C121.461 87.1346 121.519 87.9457 121.519 88.3941V94.2241C121.519 95.3118 121.452 96.4664 121.336 97.6782C121.226 98.7806 121.04 99.8741 120.778 100.951C120.538 101.905 120.23 102.411 119.816 102.411C119.2 102.411 118.902 101.8 118.902 100.588V98.4033C118.96 94.8984 119.017 91.3234 119.075 87.6785L119.037 87.6689ZM120.634 42.2887C120.509 44.197 120.384 45.4088 120.268 46.01V48.5576C120.719 47.5226 120.967 46.4119 120.999 45.2848V38.6056C120.884 39.1781 120.759 40.3804 120.634 42.2887ZM123.751 141.331C123.751 141.694 123.876 141.875 124.116 141.875C124.262 141.875 124.401 141.818 124.504 141.716C124.607 141.614 124.665 141.476 124.665 141.331C124.665 141.187 124.607 141.049 124.504 140.947C124.401 140.845 124.262 140.787 124.116 140.787C123.876 140.797 123.751 140.978 123.751 141.341V141.331ZM127.33 31.0963C127.387 31.3444 127.609 31.4589 127.974 31.4589C128.598 31.3311 129.21 31.1491 129.802 30.915C130.052 30.8005 130.322 30.6765 130.63 30.5524C130.937 30.4284 131.091 30.3139 131.091 30.1898L131.823 26.5545C131.636 26.5461 131.452 26.514 131.274 26.459C131.095 26.4103 130.911 26.3783 130.726 26.3636C128.398 26.3636 127.234 27.6995 127.234 30.3711C127.236 30.619 127.268 30.8657 127.33 31.1059V31.0963ZM128.157 141.522C127.907 141.522 127.849 141.646 127.974 141.885C128.099 142.123 128.032 142.257 128.157 142.257C128.208 142.263 128.259 142.258 128.307 142.242C128.355 142.225 128.398 142.198 128.434 142.162C128.469 142.126 128.496 142.082 128.511 142.034C128.527 141.986 128.531 141.935 128.523 141.885C128.638 141.646 128.523 141.522 128.157 141.522ZM128.157 30.3807C128.104 30.0101 128.139 29.6323 128.258 29.2773C128.378 28.9222 128.579 28.5996 128.846 28.3349C129.113 28.0702 129.438 27.8707 129.796 27.7522C130.154 27.6336 130.535 27.5992 130.909 27.6517C130.962 28.0223 130.927 28.4001 130.807 28.7552C130.688 29.1102 130.487 29.4328 130.22 29.6975C129.953 29.9622 129.628 30.1617 129.27 30.2802C128.912 30.3988 128.531 30.4332 128.157 30.3807ZM132.737 141.16H130.149C129.773 141.16 129.648 141.226 129.773 141.341C130.292 141.58 130.856 141.704 131.428 141.704C132 141.704 132.565 141.58 133.083 141.341C133.227 141.226 133.112 141.16 132.737 141.16ZM129.995 17.1177C129.983 17.1917 129.989 17.2674 130.013 17.3386C130.037 17.4097 130.077 17.4744 130.13 17.5274C130.183 17.5803 130.249 17.6201 130.32 17.6434C130.392 17.6667 130.468 17.673 130.543 17.6616C130.784 17.6616 130.909 17.4803 130.909 17.1177C130.909 16.7551 130.784 16.3925 130.543 16.3925C130.303 16.3925 129.995 16.612 129.995 17.0986V17.1177ZM131.091 19.484H131.823L131.091 18.9402V19.484ZM133.112 13.8449V13.301L132.371 12.5663H131.823L133.112 13.8449ZM142.829 110.893C142.581 109.053 142.459 107.197 142.463 105.34C142.463 104.978 142.463 104.167 142.55 102.888C142.636 101.609 142.646 100.798 142.646 100.436C142.854 99.5663 143.131 98.7145 143.473 97.8881C143.852 97.0708 144.455 96.3761 145.214 95.8843V111.714C145.584 112.953 145.768 114.239 145.763 115.531V123.717C145.435 124.469 145.004 125.172 144.483 125.807C144.265 126.149 143.968 126.434 143.617 126.64C143.266 126.845 142.87 126.966 142.463 126.99C142.467 125.257 142.589 123.526 142.829 121.809C143.072 120.029 143.194 118.234 143.194 116.437C143.199 114.577 143.077 112.718 142.829 110.874V110.893ZM150.804 68.4138C150.496 69.8737 150.285 70.847 150.159 71.2763V72.5549C150.769 71.7102 151.15 70.7246 151.266 69.6924C151.381 68.6657 151.442 67.6338 151.449 66.6009V65.6467C151.314 66.0379 151.112 66.9444 150.804 68.3947V68.4138ZM169.593 63.5762C169.046 64.6199 168.734 65.7692 168.679 66.9444V67.4883C169.17 66.639 169.718 65.58 170.334 64.3014C170.899 63.2653 171.227 62.1186 171.296 60.9427V60.5801C170.66 61.5391 170.091 62.5402 169.593 63.5762Z" fill="#FFD395"/>
</g>
<defs>
<clipPath id="clip0_114_527">
<rect width="176" height="183" fill="white" transform="translate(0.5)"/>
</clipPath>
</defs>
</svg>
