<svg width="293" height="285" viewBox="0 0 293 285" fill="none" xmlns="http://www.w3.org/2000/svg">
<g clip-path="url(#clip0_114_538)">
<path d="M256.064 131.864C256.064 131.864 266.237 158.172 293 153.975C272.672 148.837 264.36 123.797 264.385 122.598C264.411 121.399 256.064 131.864 256.064 131.864Z" fill="white"/>
<path d="M265.879 110.497C249.434 62.1811 258.259 72.92 251.303 56.5462C244.348 40.1724 239.535 17.8982 206.636 15.4832C173.737 13.0682 177.484 -0.890598 145.652 6.35429C113.819 13.5992 154.476 16.5537 154.476 16.5537C154.476 16.5537 122.652 19.1228 82.1325 10.6533C53.2447 5.01836 53.2447 24.7406 37.1921 31.2062C21.1396 37.6718 -5.7342 51.7591 1.08451 108.913C7.90323 166.067 27.5401 185.002 33.5822 199.089C39.6243 213.176 52.8436 258.273 51.6403 278.004C67.7014 285.223 87.7479 289.282 94.157 277.978C104.987 284.015 115.424 277.173 115.424 277.173C115.424 277.173 150.14 283.167 170.196 280.162C190.251 277.156 170.998 268.301 167.388 262.263C163.778 256.226 170.998 248.176 175.811 232.47C180.624 216.764 194.262 179.375 187.383 121.767C216.928 137.062 233.373 144.264 240.593 161.16C247.813 178.057 239.996 199.235 234.175 201.41C228.355 203.585 220.734 194.773 228.56 186.714C232.375 181.285 217.329 177.294 212.909 179.47C208.488 181.645 209.495 197.59 217.927 210.299C226.358 223.007 248.018 225.191 259.248 209.091C270.479 192.992 282.333 158.805 265.879 110.497ZM70.4921 239.33C70.8932 233.686 64.0744 201.076 64.0744 201.076C64.0744 201.076 76.5086 197.856 77.7289 195.441C78.9152 200.673 77.7119 213.964 70.4921 239.33ZM127.44 213.159C121.466 234.089 122.627 232.076 115.407 257.04C114.204 254.222 106.574 221.612 108.178 213.964C109.783 206.317 114.639 201.076 121.466 182.561C131.895 176.524 137.015 165.434 137.015 165.434C137.015 165.434 133.482 192.221 127.44 213.159Z" fill="#4E364A"/>
<path d="M174.001 70.6335C172.797 51.7162 167.173 40.0439 167.173 40.0439L163.965 13.0683C163.965 13.0683 137.082 -4.24755 118.231 0.984869C99.3788 6.21729 97.3733 16.2882 94.156 27.1555C90.9386 38.0229 98.1329 58.5586 107.981 65.7693C117.829 72.9799 123.479 77.4502 128.685 90.33C133.891 103.21 138.294 103.612 143.91 117.306C149.525 130.999 164.391 144.513 171.219 131.513C178.046 118.513 175.23 89.5592 174.001 70.6335Z" fill="#472628"/>
<path d="M174 70.6335C172.797 51.7162 167.173 40.0439 167.173 40.0439L163.964 13.0683C163.964 13.0683 137.082 -4.24755 118.23 0.984869C99.3786 6.21729 97.5097 14.1387 96.716 24.3381C95.8199 35.6422 104.516 58.4216 114.364 65.6751C124.213 72.9285 129.453 76.1399 134.65 89.0197C139.847 101.9 141.947 96.2732 147.528 109.958C153.109 123.643 159.424 137.182 166.243 124.182C173.062 111.183 175.229 89.5592 174 70.6335Z" fill="#4E364A"/>
<path d="M221.987 137.139C224.787 147.307 231.477 155.953 240.6 161.195C255.85 169.81 280.71 162.565 280.71 162.565C280.71 162.565 259.921 162.565 248.238 154.001C238.629 146.97 236.785 141.215 235.778 136.523C234.447 130.271 221.868 130.151 221.987 137.139Z" fill="white"/>
<path d="M224.351 86.3221C224.351 86.3221 221.791 78.0667 209.707 79.0772C211.713 85.7312 219.939 89.1567 224.351 86.3221Z" fill="#D56D20"/>
</g>
<defs>
<clipPath id="clip0_114_538">
<rect width="293" height="285" fill="white"/>
</clipPath>
</defs>
</svg>
