<svg width="160" height="201" viewBox="0 0 160 201" fill="none" xmlns="http://www.w3.org/2000/svg">
<g clip-path="url(#clip0_114_533)">
<path d="M25.0262 78.1184C26.5244 79.0302 28.1701 79.6747 29.8895 80.0231C31.5645 80.3146 33.2623 80.4547 34.9624 80.4418C35.6647 80.4418 36.6185 80.4418 37.8133 80.3372C38.9842 80.2692 40.1498 80.1293 41.3035 79.9185C42.3821 79.7116 43.436 79.3924 44.4479 78.9661C45.3071 78.6339 46.0403 78.0409 46.5442 77.2706C45.0426 78.1127 43.3904 78.6531 41.6809 78.8614C40.4127 78.9347 38.7881 78.9661 36.8176 78.9661C34.7056 78.9272 32.6083 78.6069 30.5813 78.0137C28.2836 77.3898 26.0778 76.4679 24.02 75.2716C22.0518 74.1434 20.2988 72.6765 18.8423 70.9386C17.4486 69.2866 16.7036 67.1851 16.7461 65.0254H29.0091C30.5604 63.8048 32.1845 62.6794 33.8724 61.6553C35.7101 60.5249 37.5443 59.3283 39.375 58.0654C41.15 56.8404 42.8126 55.4605 44.3431 53.9418C45.7922 52.5104 46.8464 50.7295 47.4036 48.7716C47.4036 48.6355 47.477 48.1332 47.6133 47.2959C47.7495 46.4586 47.9382 45.6004 48.1478 44.7631C48.3574 43.9258 48.5356 43.1095 48.6719 42.335C48.7843 41.8112 48.8544 41.2792 48.8815 40.7442C48.9792 40.308 49.1232 39.8834 49.3112 39.4778C49.5984 38.7554 49.8468 38.0183 50.0554 37.2695C50.2557 36.516 50.5007 35.7751 50.7891 35.0507C51.0099 34.5817 51.1516 34.0796 51.2083 33.5645C51.3283 33.3745 51.4035 33.1597 51.4284 32.9365C51.3911 32.6458 51.3172 32.3609 51.2083 32.0888C49.738 34.6945 48.7042 37.5227 48.1478 40.4616C47.6215 43.3271 46.8068 46.1323 45.7162 48.8344C44.5272 51.8321 42.5099 54.4309 39.8991 56.3281C37.1875 58.2827 34.1941 59.8142 31.0215 60.8703C27.7623 61.9836 24.3979 62.7622 20.9805 63.1938C17.9636 63.5878 14.9253 63.7975 11.8828 63.8218C9.14931 63.759 6.49794 62.8765 4.27344 61.289C3.12239 60.6254 2.16549 59.6724 1.49797 58.5247C0.830448 57.3771 0.475597 56.0749 0.46875 54.7477C0.502322 53.3663 0.903919 52.0189 1.63218 50.8439C1.99731 50.1955 2.53813 49.663 3.19256 49.3075C3.84699 48.9521 4.58852 48.7881 5.33205 48.8344H31.3359C31.6189 48.6983 32.2897 48.4158 33.3483 47.9971C34.4069 47.5785 35.0672 47.2959 35.3607 47.1599C37.782 46.3035 39.9335 44.8231 41.5971 42.8687C43.3659 40.8124 44.7825 38.4785 45.7895 35.9612C46.8535 33.3664 47.6336 30.6645 48.1163 27.9023C48.5854 25.3469 48.8309 22.7555 48.85 20.1575C48.8865 16.3737 47.9017 12.65 45.9991 9.37747C44.0793 6.07021 41.8509 2.95148 39.3436 0.0627441H39.7628C41.391 0.104772 43.0002 0.423265 44.5213 1.00465C46.2674 1.62199 47.9078 2.50453 49.3846 3.62115C50.8271 4.69511 52.0779 6.00429 53.0845 7.4936C54.044 8.87753 54.5594 10.5201 54.5623 12.2033C54.572 13.9476 54.2886 15.6811 53.7238 17.3317C53.1496 18.9802 52.8624 20.7147 52.8748 22.46V23.7159C53.0111 23.4438 53.2941 22.774 53.7238 21.7274C53.9646 20.9105 54.4884 20.2057 55.2016 19.7389L60.6938 30.6236H66.8253C66.8253 31.3248 66.4061 31.7748 65.5571 31.9841C65.0061 32.1433 64.441 32.2484 63.8696 32.2981C64.1413 32.7003 64.3864 33.1199 64.6033 33.554C64.8276 33.9778 65.1557 34.3378 65.5571 34.6006H64.7186C64.1445 34.639 63.5682 34.5679 63.0206 34.3913C62.2612 34.1979 61.4756 34.1272 60.6938 34.182V35.4379C60.8526 35.1415 61.1188 34.9169 61.438 34.81C61.7403 34.6823 62.0637 34.6113 62.3918 34.6006C62.528 34.6006 62.811 34.8414 63.2303 35.3333C63.6495 35.8252 63.8696 36.1391 63.8696 36.2752C65.0256 36.8935 66.2756 37.3179 67.5695 37.5311C68.6176 37.6672 69.5714 38.5045 70.4204 40.043C71.2249 41.5394 71.8645 43.1185 72.328 44.7527C72.6317 46.1623 72.7724 47.6021 72.7472 49.0437C72.749 50.8224 72.4623 52.5896 71.8982 54.2767C71.3391 55.9828 71.056 57.767 71.0597 59.5621V59.7714C71.7421 58.6862 72.2745 57.5138 72.6424 56.2862C73.0078 55.0576 73.5403 53.885 74.2251 52.8011C75.5046 53.7545 76.5374 54.9995 77.2375 56.4322C77.9376 57.865 78.2846 59.444 78.2498 61.0378C78.2114 63.4933 77.7432 65.9231 76.8663 68.2175C75.0099 73.332 72.0509 77.9768 68.1984 81.8233C66.5437 83.5548 64.5728 84.9545 62.3918 85.9469H62.811C64.6487 85.9469 66.5877 84.9248 68.6281 82.8804C70.8145 80.6448 72.7639 78.1897 74.4451 75.5542C76.1992 72.8749 77.7176 70.0489 78.9835 67.1081C80.0054 64.9916 80.6171 62.7011 80.7863 60.3575C80.8098 58.9259 80.4824 57.5102 79.8325 56.2339C79.1765 54.9635 78.8487 53.5497 78.8787 52.1207C79.787 52.1244 80.6758 52.3835 81.4433 52.8685C82.2108 53.3535 82.8258 54.0447 83.2179 54.8628C84.3159 56.8123 85.0676 58.9369 85.4399 61.1424C85.8552 63.4448 86.1004 65.7746 86.1736 68.1129C86.247 70.4363 86.2785 72.0899 86.2785 73.0737C86.3221 77.124 85.3415 81.1198 83.4275 84.691C81.527 88.1951 78.9809 91.3092 75.923 93.8697C69.6883 99.0633 61.8429 101.937 53.7238 102.002H50.3593C49.3653 102.053 48.3688 101.979 47.3932 101.782C46.3835 101.55 45.3949 101.235 44.4375 100.84C43.4676 100.501 42.5449 100.04 41.6914 99.469C40.6628 98.5895 39.738 97.5958 38.9348 96.5071C38.2509 95.5573 37.6177 94.5722 37.0377 93.5558C36.4717 92.572 35.8743 91.5777 35.2349 90.5939C34.5659 89.561 33.827 88.5749 33.0234 87.6424L31.7552 86.376L29.4283 84.0526C28.5794 83.2048 27.8038 82.4722 27.1015 81.8338C26.6073 81.4483 26.179 80.9853 25.8333 80.4628C25.7823 80.1938 25.6712 79.9398 25.5084 79.7196C25.3606 79.4573 25.1849 79.2117 24.9843 78.987V78.1393L25.0262 78.1184ZM8.52881 36.7357C8.7672 36.9983 8.98122 37.2821 9.16818 37.5834L10.0172 46.4482H5.99237V38.4207C5.99237 38.2846 6.20198 38.044 6.63171 37.6881C7.06144 37.3323 7.40732 37.0183 7.67983 36.7357H8.51831H8.52881ZM12.344 44.7631C12.3206 44.1816 12.428 43.6022 12.6584 43.0676C12.868 42.649 13.4655 42.4397 14.4507 42.4397H14.8804L15.5093 43.9154L15.9285 44.1247C16.0107 44.1212 16.0914 44.1008 16.1653 44.0648C16.2392 44.0288 16.3049 43.9779 16.3583 43.9154C16.4945 43.9154 16.6413 43.6747 16.7775 43.1723C16.9138 42.6699 17.0605 42.4397 17.1968 42.4397C17.3576 42.2766 17.5016 42.0978 17.6265 41.9059C17.7627 41.6966 17.9095 41.5919 18.0458 41.5919C18.3754 41.4457 18.7333 41.3742 19.0939 41.3826H19.9638V45.569H23.1082V36.0763C23.1082 35.9298 23.2549 35.7519 23.5379 35.5425C23.7772 35.345 24.0765 35.2344 24.3869 35.2286C24.5231 35.2286 24.869 35.2286 25.435 35.1239C25.8553 35.0635 26.2788 35.0286 26.7032 35.0192V43.884L25.8647 44.7317C26.2892 44.7415 26.7127 44.7764 27.133 44.8364C27.4804 44.8887 27.8302 44.9236 28.1811 44.9411C29.5758 44.9456 30.9517 44.6191 32.1954 43.9886C33.4929 43.3362 34.7011 42.5202 35.7905 41.5605L39.1759 38.6091C40.231 37.6758 41.3596 36.8288 42.5508 36.0763V36.495C42.3464 38.1538 41.6902 39.7249 40.6537 41.0372C39.7754 42.5433 38.5411 43.8117 37.0587 44.7317C36.5116 44.8951 35.9343 44.9309 35.3712 44.8364C34.5222 44.7631 34.0191 44.7317 33.8829 44.7317C33.3201 44.9388 32.7878 45.2204 32.3002 45.569C31.9438 45.862 31.6294 46.1028 31.3464 46.3121C31.0283 46.5431 30.6742 46.7199 30.2983 46.8354C29.6144 47.0128 28.9079 47.0868 28.202 47.0552C25.3721 47.0552 22.7309 47.0552 20.2678 46.9505C17.8047 46.8459 15.1529 46.6993 12.344 46.4167V44.7631ZM16.3583 10.8742C17.4342 8.75154 18.903 6.85158 20.687 5.2748C22.5006 3.6973 24.5755 2.44716 26.8185 1.58033C29.1551 0.663445 31.6449 0.198182 34.1554 0.209284C36.6918 0.209284 38.3479 0.920973 39.0187 2.30249C39.6894 3.684 40.6432 5.44226 41.7752 7.36801C42.75 8.91698 43.5675 10.152 44.2069 11.0625C44.7866 11.8901 45.2817 12.7736 45.6847 13.6999C46.0495 14.6145 46.2995 15.5708 46.4289 16.5467C46.5869 17.9854 46.6569 19.4325 46.6385 20.8797V26.3743C46.7164 27.3171 46.542 28.2635 46.1331 29.1168C45.7243 29.9701 45.0957 30.6996 44.3117 31.2305C44.0287 31.084 43.4941 30.0269 42.7185 28.0907C41.9429 26.1545 41.1359 23.9043 40.2869 21.5495C39.4379 19.1946 38.7042 16.9026 38.0753 14.7884C37.644 13.5532 37.3248 12.2817 37.1216 10.9893C37.1025 10.3631 37.247 9.74266 37.5408 9.18909C37.836 8.63983 37.9807 8.02247 37.9601 7.39944C37.9601 5.30623 37.0482 4.25963 35.214 4.25963C33.9331 4.41135 32.6843 4.76459 31.5141 5.30623C29.7533 6.00397 27.9225 6.81335 26.022 7.73436C24.2475 8.57786 22.547 9.56858 20.9386 10.6962C19.4607 11.7428 18.727 12.6324 18.727 13.3337C18.7123 13.8626 18.7474 14.3917 18.8319 14.914C18.9735 15.4189 19.2239 15.8869 19.5655 16.2851C20.6748 16.03 21.8186 15.9592 22.951 16.0758C23.1963 16.1205 23.4284 16.2199 23.6298 16.3667C23.8313 16.5135 23.9969 16.7038 24.1144 16.9235C24.362 17.4608 24.5415 18.0268 24.6489 18.6085C24.8688 19.4773 25.3051 20.2766 25.9171 20.932C28.3069 24.0299 30.2424 26.636 31.7237 28.7501C33.2121 30.8433 33.9457 33.889 33.9457 37.8242C33.9457 37.9602 33.9458 38.4521 34.0506 39.2999C34.1554 40.1476 33.8095 40.6395 33.1073 40.7755C32.9605 40.2208 32.709 39.0173 32.3631 37.1857C32.1757 35.9582 31.8559 34.7546 31.4093 33.5959C30.9169 31.5908 29.666 29.8541 27.9191 28.7501C26.1239 27.6045 24.2541 26.58 22.3221 25.6836C20.4985 24.8423 18.7459 23.8552 17.0815 22.7321C16.3221 22.2424 15.7047 21.5623 15.2908 20.7597C14.877 19.9571 14.6813 19.0602 14.7232 18.1585C14.6696 15.634 15.2307 13.1343 16.3583 10.8742ZM19.9533 14.9873C20.0118 13.8533 20.4597 12.7741 21.2216 11.9312C21.5682 11.4445 22.0535 11.0735 22.6144 10.8662C23.1752 10.659 23.7856 10.6253 24.3659 10.7695C25.2838 10.9837 26.1009 11.5043 26.6823 12.2452C26.7046 11.0553 27.0331 9.89117 27.6361 8.86464C27.9071 8.34666 28.3176 7.91451 28.8213 7.61682C29.3249 7.31913 29.9018 7.16772 30.487 7.17963C30.4521 8.73499 30.8552 10.2689 31.6504 11.6067C32.4694 13.0262 32.9433 14.6179 33.0339 16.2537C33.0916 15.5808 33.1967 14.9128 33.3483 14.2547C33.382 13.8293 33.5265 13.4201 33.7673 13.0677C34.0082 12.7152 34.337 12.4317 34.7213 12.2452C35.5645 13.2011 36.2093 14.3146 36.6185 15.5211C37.4675 17.4154 38.2745 19.4982 39.0606 21.8007C39.8467 24.1032 40.4965 26.1964 41.0625 28.2373C41.4944 29.577 41.7791 30.9597 41.9115 32.3609C41.9126 33.0502 41.766 33.7318 41.4817 34.3599C41.3376 34.6766 41.0966 34.9394 40.7933 35.1105C40.4901 35.2817 40.1403 35.3523 39.7943 35.3123H39.375C38.9942 34.3107 38.6756 33.2866 38.4212 32.2458C38.1401 31.0914 37.6766 29.9891 37.0482 28.9804V37.6357L36.1992 38.4731C35.78 36.5055 35.3223 34.6425 34.8262 32.8842C34.3301 31.1259 33.7431 29.2525 33.0653 27.2639C32.727 26.261 32.0999 25.38 31.2626 24.7312C30.9062 24.4486 30.487 24.1032 29.9943 23.6846C29.3478 23.1014 28.7484 22.4679 28.202 21.7902C27.8024 21.2644 27.546 20.6442 27.4579 19.99C27.2325 19.0249 26.949 18.0743 26.6089 17.1433C26.263 16.1595 25.9381 15.2385 25.6551 14.4012C25.3721 13.5639 25.1625 13.1348 25.0262 13.1348C24.3664 13.7902 23.5722 14.2952 22.6983 14.615C21.8244 14.9347 20.8915 15.0618 19.9638 14.9873H19.9533ZM26.0848 14.778C26.0732 14.868 26.081 14.9594 26.1075 15.0461C26.1341 15.1329 26.1788 15.213 26.2389 15.2812C26.2989 15.3493 26.3727 15.4038 26.4555 15.4412C26.5383 15.4786 26.6281 15.498 26.719 15.498C26.8098 15.498 26.8996 15.4786 26.9824 15.4412C27.0652 15.4038 27.1391 15.3493 27.1991 15.2812C27.2591 15.213 27.3038 15.1329 27.3304 15.0461C27.3569 14.9594 27.3647 14.868 27.3531 14.778C27.3531 14.2233 27.1434 13.9302 26.7137 13.9302C26.284 13.9302 26.0848 14.2233 26.0848 14.778ZM27.7723 15.4164C27.7723 15.9711 27.9086 16.2537 28.202 16.2537C28.4955 16.2537 28.8309 15.9711 28.8309 15.4164C28.8309 14.8617 28.6213 14.5686 28.202 14.5686C27.7828 14.5686 27.7723 14.8512 27.7723 15.4164ZM28.4117 16.2537C28.4117 16.8188 28.6213 17.1014 29.0405 17.1014C29.4703 17.1014 29.6799 16.8188 29.6799 16.2537C29.6799 15.6885 29.4703 15.4164 29.0405 15.4164C28.6108 15.4164 28.4117 15.7513 28.4117 16.2537ZM29.2502 17.1014C29.2379 17.1881 29.2461 17.2764 29.2739 17.3595C29.3017 17.4425 29.3484 17.518 29.4104 17.5799C29.4724 17.6418 29.548 17.6884 29.6311 17.7162C29.7143 17.7439 29.8027 17.7521 29.8895 17.7399C29.9755 17.7503 30.0628 17.7408 30.1446 17.7123C30.2264 17.6837 30.3005 17.6368 30.3613 17.5751C30.422 17.5135 30.4678 17.4387 30.495 17.3565C30.5223 17.2744 30.5303 17.1871 30.5184 17.1014C30.5184 16.5362 30.3088 16.2537 29.8895 16.2537C29.4703 16.2537 29.2502 16.5362 29.2502 17.1014ZM33.5894 6.12255C34.5086 5.55622 35.5699 5.26223 36.6499 5.2748C36.6249 6.40763 36.5198 7.53726 36.3355 8.65531C36.3199 8.95446 36.2438 9.24742 36.1118 9.51641C35.9797 9.7854 35.7945 10.0249 35.5673 10.2205C35.3401 10.4161 35.0756 10.5637 34.7897 10.6544C34.5038 10.7452 34.2024 10.7772 33.9038 10.7485C33.6735 10.7823 33.4384 10.7617 33.2175 10.6883C32.9965 10.6149 32.796 10.4907 32.6319 10.3258C32.4677 10.1609 32.3446 9.95982 32.2725 9.73877C32.2003 9.51773 32.1811 9.28283 32.2164 9.05302C32.1573 8.48612 32.2539 7.91384 32.4958 7.39759C32.7377 6.88133 33.1157 6.44057 33.5894 6.12255ZM33.4846 19.0062C33.4756 19.0632 33.4803 19.1216 33.4982 19.1765C33.5161 19.2313 33.5467 19.2812 33.5876 19.322C33.6285 19.3629 33.6784 19.3934 33.7334 19.4113C33.7883 19.4292 33.8467 19.4338 33.9038 19.4249C34.4698 19.1458 34.4698 18.8632 33.9038 18.5771C33.8461 18.5701 33.7876 18.5764 33.7328 18.5956C33.678 18.6148 33.6283 18.6464 33.5878 18.688C33.5472 18.7295 33.5168 18.7798 33.4989 18.835C33.481 18.8902 33.4761 18.9488 33.4846 19.0062ZM91.6239 193.506C91.93 192.815 92.2801 192.144 92.672 191.497H91.8335V189.173L89.7373 192.763C89.4666 193.152 89.2547 193.579 89.1083 194.03C87.9764 194.03 87.3371 193.611 87.2008 192.763C87.0638 191.996 86.9936 191.219 86.9912 190.44C86.9879 189.06 87.2735 187.694 87.8297 186.431C88.4178 185.123 89.09 183.854 89.842 182.632C90.5941 181.41 91.2663 180.141 91.8545 178.833C92.4118 177.566 92.6974 176.197 92.693 174.814C92.6058 174.413 92.4647 174.026 92.2737 173.663C92.0835 173.296 91.9426 172.905 91.8545 172.501C91.7077 171.789 91.4248 170.523 91.0055 168.691C90.5863 166.86 90.3032 165.74 90.1565 165.321C89.8671 163.079 89.7271 160.821 89.7373 158.56C89.7546 156.268 89.4007 153.989 88.6891 151.81C88.572 151.366 88.3957 150.94 88.1651 150.543C87.8087 149.832 87.4524 149.099 87.117 148.324C86.7816 147.55 86.4042 146.807 86.0688 146.106C85.7977 145.653 85.6195 145.152 85.5448 144.63C85.4495 143.778 85.306 142.933 85.115 142.097C84.9807 141.54 84.769 141.005 84.4862 140.506C84.3731 140.281 84.1827 140.105 83.9498 140.009C83.7168 139.913 83.457 139.903 83.2179 139.983V140.402C83.1852 143.348 83.7969 146.266 85.0102 148.952C86.2399 151.707 86.8551 154.697 86.813 157.712C85.2215 157.72 83.6313 157.615 82.0545 157.399C80.4548 157.152 78.9134 156.616 77.5057 155.818C76.9397 155.399 75.9859 154.656 74.6548 153.599C73.3237 152.542 71.8982 151.422 70.4623 150.219L66.2698 146.838C64.9282 145.792 63.9744 145.049 63.4085 144.63L61.4065 143.259C60.7098 142.705 59.8627 142.374 58.9749 142.306H58.5452L59.3941 143.144C59.8134 143.576 60.8615 144.529 62.5385 146.001C64.2155 147.473 66.0462 149.057 68.0306 150.753C70.0011 152.434 71.8703 153.983 73.6381 155.399C75.399 156.802 76.489 157.712 76.9083 158.142C77.8935 158.989 78.3966 159.544 78.3966 159.827V161.92C78.46 163.692 78.1344 165.457 77.4428 167.09C76.5897 168.65 75.3053 169.933 73.7429 170.785C74.7743 170.475 75.8788 170.512 76.8873 170.889C77.4533 171.245 77.7363 172.124 77.7363 173.537C77.7511 174.589 77.5366 175.632 77.1074 176.593C76.6625 177.577 76.3116 178.6 76.0593 179.649C75.7793 180.903 75.6005 182.177 75.5247 183.459C75.4664 184.643 75.255 185.814 74.8958 186.944C74.5426 188.118 73.7878 189.131 72.763 189.807C71.7382 190.482 70.5084 190.776 69.2884 190.639C68.6492 190.646 68.0117 190.573 67.3913 190.419C66.8253 190.283 66.5423 189.864 66.5423 189.152V188.315C66.5998 187.639 66.7048 186.967 66.8568 186.306C66.9621 185.619 67.1413 184.945 67.3913 184.296C66.4015 185.083 65.725 186.196 65.4837 187.436C65.0645 188.985 64.3517 189.759 63.3875 189.759H57.5914C57.1616 189.759 56.9206 189.508 56.8472 189.016C56.7847 188.632 56.7497 188.244 56.7424 187.855C56.7105 186.823 57.0487 185.813 57.6962 185.008C58.4037 184.163 59.2215 183.417 60.1278 182.789H57.5914L53.7867 189.121C53.4402 189.425 53.0364 189.656 52.599 189.802C52.1616 189.947 51.6994 190.004 51.2397 189.969C50.5677 189.955 49.898 189.885 49.2378 189.759C49.0639 189.74 48.8956 189.686 48.7427 189.601C48.5898 189.516 48.4552 189.402 48.347 189.265C48.2387 189.127 48.1589 188.97 48.1121 188.802C48.0653 188.633 48.0525 188.457 48.0744 188.284C48.0717 187.73 48.1828 187.181 48.401 186.671C48.6191 186.162 48.9396 185.703 49.3427 185.322C49.7464 184.944 50.0675 184.486 50.2857 183.978C50.504 183.471 50.6147 182.923 50.6109 182.37V181.115C50.266 182.203 49.645 183.184 48.8081 183.961C48.1145 184.677 47.3759 185.349 46.5966 185.971V185.123C46.5937 184.222 46.8017 183.332 47.2038 182.526C47.6059 181.719 48.1912 181.017 48.9129 180.476C50.5087 179.184 52.3425 178.217 54.3107 177.629C56.3576 176.992 58.4651 176.567 60.5995 176.363C62.2859 176.139 63.9967 176.174 65.6724 176.468C64.0967 176.087 62.5729 175.518 61.134 174.772C59.7819 174.071 59.1216 172.742 59.1216 170.764H64.8339C62.9938 169.804 61.4011 168.432 60.1802 166.755C60.1802 166.19 60.0754 165.028 59.8658 163.27C59.6562 161.512 59.478 160.35 59.3312 159.785C59.2766 159.489 59.1701 159.206 59.0168 158.947C58.8852 158.638 58.7047 158.352 58.4823 158.1C57.6438 156.833 56.5433 155.389 55.2121 153.767C53.8733 152.158 52.6376 150.466 51.5123 148.701C50.3971 146.978 49.4729 145.139 48.7557 143.217C48.067 141.436 47.8504 139.507 48.1268 137.618C46.5465 136.223 45.1579 134.625 43.9972 132.866C43.1001 131.414 42.3955 129.852 41.901 128.219C41.3853 126.527 40.9965 124.799 40.7376 123.049C40.4546 121.217 40.0248 119.177 39.4693 116.926C39.3655 116.39 39.2219 115.861 39.0396 115.346C38.7566 114.425 38.5156 113.514 38.3059 112.593C38.0963 111.672 37.8448 110.804 37.5618 109.956C37.3504 109.415 37.2095 108.848 37.1425 108.271V107.005C37.0515 106.016 37.3526 105.032 37.981 104.262C38.2506 106.041 38.6785 107.793 39.2597 109.495C39.9851 111.875 40.8926 114.194 41.9744 116.434C42.9944 118.643 44.3365 120.689 45.9572 122.505C46.57 123.268 47.3403 123.89 48.2158 124.329C49.0912 124.768 50.0512 125.013 51.0301 125.048L51.2397 124.828C50.5454 124.133 49.7632 123.531 48.9129 123.039C48.0291 122.509 47.2451 121.829 46.5966 121.029C44.4814 118.085 42.8077 114.848 41.6285 111.421C40.5333 108.042 39.9952 104.507 40.0353 100.955H40.4651C40.6941 100.939 40.9202 101.015 41.0939 101.165C42.1919 101.664 43.3231 102.087 44.4794 102.431C45.416 102.701 46.368 102.914 47.3302 103.069C48.2526 103.205 49.2378 103.31 50.2964 103.383C51.355 103.457 52.6547 103.488 54.206 103.488H60.7567C64.1276 102.682 67.367 101.403 70.3784 99.6888C73.6428 97.8955 76.6648 95.6939 79.3713 93.1371C82.0158 90.6445 84.2607 87.7606 86.0269 84.5864C87.7416 81.5967 88.6515 78.2145 88.6682 74.7692C88.6687 72.3212 88.5288 69.8751 88.2489 67.443C87.9651 65.0112 87.8216 62.5651 87.8192 60.1168V59.0702C89.6856 60.045 91.3697 61.3338 92.7978 62.8798C94.4312 64.5876 95.882 66.4606 97.1265 68.4687C98.3905 70.4951 99.4207 72.6579 100.197 74.9158C100.924 76.9321 101.317 79.053 101.361 81.1954V108.899C102.921 105.156 103.709 101.137 103.677 97.0828V84.6282C103.685 82.9779 103.438 81.3363 102.944 79.7615C102.46 78.2555 101.893 76.7775 101.246 75.3344C100.617 73.9319 100.051 72.519 99.5582 71.148C99.0797 69.8036 98.8317 68.3883 98.8245 66.9616H100.512L107.702 74.1412V73.3144C107.555 73.0319 107.209 72.2679 106.654 70.991C106.34 70.1623 105.913 69.3805 105.386 68.6675C107.356 67.5511 109.452 66.3197 111.674 64.9731C113.776 63.6855 116.189 62.9944 118.655 62.974C125.657 62.8264 132.611 64.1566 139.062 66.8778C144.91 69.4873 149.802 74.3087 153.736 81.3419C153.996 82.0321 154.312 82.7006 154.679 83.3409C155.171 84.2619 155.664 85.2143 156.167 86.1981C156.67 87.1819 157.111 88.1344 157.54 89.0449C157.97 89.9555 158.242 90.5624 158.379 90.8346C159.075 92.2099 159.435 93.7309 159.427 95.2721V99.9191C159.513 102.944 159.16 105.965 158.379 108.888C157.68 111.212 156.908 114.205 156.062 117.868C154.784 123.213 153.547 128.561 152.352 133.913C151.157 139.264 149.997 144.752 148.872 150.376C148.825 150.917 148.716 151.451 148.547 151.967C148.386 152.481 148.28 153.01 148.233 153.547C148.086 153.547 147.918 153.756 147.709 154.175C147.55 154.436 147.44 154.723 147.384 155.023C147.533 157.199 148.225 159.304 149.396 161.145C150.616 163.122 151.309 165.377 151.409 167.697C151.409 169.79 150.361 170.837 148.443 170.837H148.233C148.086 170.837 147.814 170.628 147.384 170.209V164.473L145.738 166.159V171.695C145.738 172.396 145.319 172.742 144.47 172.647C143.621 172.553 143.129 172.543 142.992 172.543C141.431 172.543 140.519 172.218 140.236 171.59C139.812 170.324 139.531 169.015 139.397 167.687C139.376 168.944 139.161 170.19 138.758 171.381C138.583 172.01 138.189 172.557 137.648 172.923C137.106 173.289 136.452 173.451 135.802 173.38H135.593C133.895 172.543 133.056 171.978 133.056 171.695V165.363C132.763 166.2 132.417 167.195 132.008 168.315C131.636 169.383 130.892 170.282 129.912 170.847C129.721 170.792 129.55 170.685 129.418 170.536C129.286 170.388 129.2 170.206 129.168 170.01C129.104 169.665 129.069 169.315 129.063 168.963C129.063 166.87 129.699 165.391 130.97 164.526C132.346 163.64 133.898 163.065 135.519 162.841C137.335 162.557 139.174 162.448 141.011 162.516C142.604 162.612 144.203 162.507 145.77 162.202C145.487 162.202 144.889 162.202 143.967 162.098L141.116 161.888C140.131 161.815 139.177 161.711 138.265 161.574C137.6 161.454 136.928 161.381 136.253 161.355C135.684 161.213 135.147 160.964 134.67 160.622C134.424 160.442 134.226 160.203 134.096 159.927C133.966 159.651 133.908 159.346 133.926 159.042C134.013 158.594 134.236 158.185 134.565 157.869C134.985 157.388 135.341 157.001 135.614 156.718C135.277 156.589 134.992 156.354 134.803 156.047C134.613 155.741 134.53 155.381 134.565 155.023C134.565 153.62 135.404 153.128 137.102 153.547C136.354 153.414 135.675 153.03 135.176 152.46C134.676 151.889 134.387 151.165 134.356 150.407C134.099 148.945 133.956 147.465 133.926 145.98V144.714C135.243 142.79 136.807 141.048 138.58 139.533C140.676 137.635 142.72 135.629 144.711 133.515C146.565 131.513 148.314 129.417 149.952 127.235C151.375 125.543 152.194 123.426 152.279 121.217L152.069 121.008C151.217 122.404 150.301 123.778 149.323 125.132C148.29 126.498 147.086 127.726 145.738 128.784V128.355C145.837 127.068 146.274 125.83 147.007 124.765C147.852 123.37 148.767 121.824 149.753 120.129C150.738 118.433 151.66 116.717 152.509 114.896C153.314 113.289 153.747 111.522 153.777 109.726V108.25C152.735 113.803 150.496 119.063 147.216 123.666C143.981 128.167 140.599 132.81 137.07 137.597C133.102 143.241 127.599 147.635 121.212 150.261C121.046 150.107 120.867 149.967 120.678 149.842C120.468 149.706 120.363 149.559 120.363 149.423C119 144.674 118.022 139.823 117.439 134.917C116.87 130.011 116.799 125.06 117.229 120.139L116.38 117.816C116.101 120.767 115.888 123.37 115.741 125.624C115.605 127.874 115.532 130.417 115.532 133.222C115.519 135.957 115.984 138.673 116.905 141.249C117.83 143.824 118.295 146.541 118.278 149.277C118.255 150.33 118.15 151.38 117.963 152.417C117.754 153.683 116.915 154.322 115.322 154.322C115.24 154.317 115.161 154.294 115.089 154.257C115.016 154.219 114.953 154.166 114.903 154.102C114.48 152.931 114.13 151.736 113.855 150.522C113.75 149.847 113.511 149.2 113.151 148.619C112.791 148.038 112.317 147.536 111.758 147.142V147.351C111.754 148.595 111.894 149.835 112.178 151.046C112.464 152.256 112.608 153.496 112.607 154.74V157.273C112.461 157.552 112.178 158.222 111.758 159.282C111.339 160.329 111.056 161.009 110.909 161.281C110.499 162.914 110.218 164.576 110.071 166.253C109.946 167.754 109.662 169.239 109.222 170.68C108.826 171.98 108.137 173.172 107.209 174.165C106.063 175.285 104.643 176.086 103.09 176.489H108.163C108.163 179.586 107.353 181.331 105.732 181.722C103.542 182.236 101.318 182.586 99.076 182.768H108.582C110.28 185.168 111.329 186.717 111.727 187.415C112.169 188.161 112.557 188.938 112.89 189.738C113.229 190.54 113.407 191.401 113.414 192.271C113.44 192.771 113.349 193.27 113.146 193.728C112.944 194.186 112.638 194.59 112.251 194.909C111.435 195.566 110.444 195.97 109.4 196.07L107.713 189.1H106.224C106.626 189.624 106.879 190.245 106.958 190.9C107.031 191.564 107.066 192.231 107.063 192.899H106.224V199.242C106.224 199.943 105.658 200.403 104.526 200.613C103.76 200.777 102.982 200.882 102.199 200.927H100.512C100.459 200.007 100.354 199.092 100.197 198.185C100.035 197.278 99.9262 196.362 99.8726 195.442V193.349C99.8873 192.883 99.8162 192.419 99.6629 191.978C99.5267 191.622 99.1703 191.444 98.6148 191.444V200.1C98.6148 200.246 98.3738 200.393 97.8812 200.529C97.4813 200.633 97.0919 200.773 96.7177 200.948H96.288C95.5774 200.972 94.8699 200.844 94.2135 200.571C93.557 200.298 92.9669 199.888 92.4833 199.367C91.4967 198.31 90.9659 196.908 91.0055 195.463C91.0898 194.779 91.2994 194.115 91.6239 193.506ZM47.6028 76.6426C47.6028 77.0613 47.7495 77.2706 48.0325 77.2706C48.1179 77.2829 48.2051 77.275 48.2869 77.2478C48.3689 77.2206 48.4433 77.1747 48.5043 77.1137C48.5654 77.0528 48.6113 76.9785 48.6386 76.8967C48.6658 76.815 48.6737 76.7279 48.6614 76.6426C48.6614 76.0775 48.4517 75.7949 48.0325 75.7949C47.7914 75.7949 47.6447 76.0775 47.6447 76.6426H47.6028ZM54.4156 128.784C54.5518 128.784 54.6252 128.502 54.6252 127.937C54.6215 127.368 54.4381 126.815 54.1011 126.356C53.9192 126.109 53.6779 125.911 53.3995 125.782C53.1212 125.652 52.8146 125.594 52.508 125.613H52.0887L54.4156 128.784ZM54.8348 140.391C54.7771 140.384 54.7186 140.39 54.6638 140.41C54.6089 140.429 54.5593 140.461 54.5187 140.502C54.4782 140.544 54.4478 140.594 54.4299 140.649C54.412 140.704 54.4071 140.763 54.4156 140.82C54.5518 141.103 54.6985 141.239 54.8348 141.239C54.8923 141.247 54.951 141.243 55.0062 141.225C55.0615 141.207 55.1119 141.176 55.1535 141.136C55.1951 141.095 55.2268 141.046 55.246 140.991C55.2653 140.936 55.2716 140.878 55.2645 140.82C55.4008 140.548 55.2645 140.402 54.8348 140.402V140.391ZM54.6252 129.622C54.6252 130.187 54.8348 130.469 55.2645 130.469C55.6943 130.469 55.8934 130.187 55.8934 129.622C55.8934 129.056 55.6838 128.784 55.2645 128.784C54.8453 128.784 54.6252 129.077 54.6252 129.632V129.622ZM56.952 141.03C56.2498 141.03 55.9668 141.166 56.103 141.448C56.1555 141.574 56.2444 141.681 56.3584 141.756C56.4723 141.83 56.6061 141.869 56.7424 141.867C56.9094 141.888 57.0789 141.859 57.2298 141.785C57.3807 141.71 57.5065 141.593 57.5914 141.448C57.8639 141.176 57.6962 141.04 56.952 141.04V141.03ZM62.6643 31.241C62.6643 31.8062 62.8739 32.0783 63.2931 32.0783C63.7124 32.0783 63.7229 31.8062 63.7229 31.241C63.7229 30.6758 63.5761 30.3933 63.2931 30.3933C63.0102 30.3933 62.6643 30.6863 62.6643 31.2515V31.241ZM71.3218 176.928H66.8777C66.3118 176.928 66.1755 177.001 66.4585 177.137C68.2444 177.709 70.1647 177.709 71.9506 177.137C72.1078 177.001 71.8982 176.928 71.3218 176.928ZM67.1293 171.235C66.5633 171.235 66.3432 171.371 66.4899 171.653C66.5398 171.781 66.6282 171.889 66.7428 171.964C66.8573 172.039 66.9924 172.077 67.1293 172.072C67.2949 172.093 67.4632 172.065 67.6126 171.99C67.762 171.916 67.8856 171.798 67.9678 171.653C68.0831 171.371 67.8106 171.235 67.1293 171.235ZM68.1774 183.689C68.167 183.775 68.1764 183.862 68.205 183.944C68.2336 184.026 68.2806 184.1 68.3424 184.16C68.4042 184.221 68.479 184.267 68.5613 184.294C68.6435 184.321 68.7309 184.329 68.8167 184.317C68.9022 184.329 68.9893 184.322 69.0712 184.294C69.1531 184.267 69.2276 184.221 69.2886 184.16C69.3496 184.099 69.3955 184.025 69.4228 183.943C69.4501 183.861 69.4579 183.774 69.4456 183.689C69.4456 183.124 69.236 182.841 68.8167 182.841C68.3765 182.841 68.1774 183.124 68.1774 183.689ZM79.0674 45.2864L77.0654 45.0771C76.4569 45.0221 75.854 44.917 75.2627 44.7631C75.0453 44.7129 74.844 44.609 74.6774 44.4609C74.5107 44.3127 74.384 44.1252 74.3089 43.9154C75.1946 43.5584 76.1201 43.309 77.0654 43.1723C77.7677 43.1095 78.6795 43.0676 79.8115 43.0676C80.5574 43.0717 81.3013 43.1453 82.0335 43.2874C82.7987 43.4235 83.197 44.0619 83.197 45.1818C83.2174 45.6151 83.1427 46.0476 82.9779 46.449C82.8131 46.8504 82.5623 47.2109 82.2432 47.5053C81.5574 48.0996 80.769 48.5642 79.9164 48.8763C78.9966 49.2289 78.0404 49.4781 77.0654 49.6193C76.2255 49.745 75.3782 49.815 74.529 49.8287C74.5096 49.1671 74.7352 48.5216 75.1625 48.0157C75.5899 47.5098 76.1891 47.179 76.8454 47.0866C78.1699 46.7492 79.4478 46.25 80.6501 45.6004C80.1273 45.443 79.59 45.3378 79.0464 45.2864H79.0674ZM80.8701 138.507C80.89 138.661 80.9653 138.803 81.082 138.905C81.1987 139.008 81.3489 139.064 81.5043 139.064C81.6597 139.064 81.8098 139.008 81.9265 138.905C82.0432 138.803 82.1185 138.661 82.1384 138.507C82.1384 137.942 81.9288 137.66 81.499 137.66C81.0693 137.66 80.8492 137.942 80.8492 138.507H80.8701ZM81.7086 139.135C81.7086 139.7 81.9288 139.983 82.348 139.983C82.7673 139.983 82.9769 139.7 82.9769 139.135C82.9769 138.57 82.7673 138.298 82.348 138.298C81.9288 138.298 81.6877 138.581 81.6877 139.135H81.7086ZM90.5967 187.907C90.5882 187.964 90.5931 188.023 90.611 188.078C90.6289 188.133 90.6593 188.184 90.6999 188.225C90.7405 188.267 90.7901 188.298 90.8449 188.318C90.8998 188.337 90.9583 188.343 91.0159 188.336C91.5819 188.057 91.5819 187.774 91.0159 187.488C90.9573 187.476 90.8965 187.477 90.8387 187.493C90.7809 187.51 90.7279 187.54 90.6845 187.581C90.641 187.622 90.6084 187.674 90.5894 187.73C90.5705 187.787 90.5658 187.848 90.5757 187.907H90.5967ZM92.9235 175.662C92.9235 176.227 93.0598 176.509 93.3428 176.509C93.6258 176.509 93.9716 176.227 93.9716 175.662C93.9716 175.097 93.762 174.814 93.3428 174.814C92.9235 174.814 92.9026 175.107 92.9026 175.662H92.9235ZM98.4157 114.645C98.4041 114.735 98.4118 114.826 98.4384 114.913C98.4649 115 98.5097 115.08 98.5697 115.148C98.6297 115.216 98.7035 115.271 98.7863 115.308C98.8691 115.345 98.959 115.365 99.0498 115.365C99.1407 115.365 99.2305 115.345 99.3133 115.308C99.396 115.271 99.4699 115.216 99.5299 115.148C99.5899 115.08 99.6347 115 99.6613 114.913C99.6878 114.826 99.6955 114.735 99.6839 114.645C99.6839 114.08 99.4743 113.797 99.0551 113.797C98.5729 113.797 98.3948 114.132 98.3948 114.645H98.4157ZM99.2646 112.96C99.2646 113.525 99.4743 113.797 99.8936 113.797C100.313 113.797 100.323 113.525 100.323 112.96C100.323 112.395 100.177 112.112 99.8936 112.112C99.6106 112.112 99.2437 112.395 99.2437 112.96H99.2646ZM100.114 111.055C100.105 111.112 100.109 111.17 100.127 111.225C100.145 111.28 100.176 111.33 100.217 111.371C100.258 111.411 100.307 111.442 100.362 111.46C100.417 111.478 100.476 111.483 100.533 111.474C100.816 111.338 100.952 111.201 100.952 111.055C100.961 110.998 100.956 110.94 100.939 110.885C100.921 110.83 100.89 110.78 100.849 110.739C100.808 110.698 100.758 110.668 100.703 110.65C100.648 110.632 100.59 110.627 100.533 110.636C100.229 110.5 100.093 110.636 100.093 111.055H100.114ZM104.757 192.345C104.777 192.498 104.852 192.64 104.969 192.742C105.085 192.845 105.236 192.901 105.391 192.901C105.546 192.901 105.696 192.845 105.813 192.742C105.93 192.64 106.005 192.498 106.025 192.345C106.025 191.779 105.815 191.497 105.396 191.497C104.946 191.497 104.736 191.779 104.736 192.345H104.757ZM108.121 75.4076C108.112 75.4647 108.117 75.523 108.135 75.5779C108.153 75.6328 108.183 75.6826 108.224 75.7234C108.265 75.7642 108.315 75.7948 108.37 75.8127C108.425 75.8306 108.483 75.8353 108.541 75.8263C108.824 75.6903 108.97 75.5437 108.97 75.4076C108.977 75.3501 108.971 75.2916 108.952 75.2368C108.933 75.1821 108.901 75.1325 108.859 75.092C108.818 75.0515 108.767 75.0212 108.712 75.0033C108.657 74.9854 108.598 74.9805 108.541 74.989C108.258 74.8111 108.121 74.9576 108.121 75.4076ZM110.867 146.346V145.499C110.731 145.226 110.48 144.797 110.134 144.232C109.91 143.867 109.661 143.517 109.39 143.186C109.253 143.186 109.18 143.479 109.18 144.033C109.204 144.538 109.377 145.023 109.677 145.43C109.978 145.836 110.392 146.144 110.867 146.315V146.346ZM118.058 156.268C118.052 157.426 117.725 158.56 117.114 159.544C116.525 160.54 115.774 161.431 114.892 162.181C116.16 161.763 116.894 162.004 117.114 162.925C117.318 163.789 117.424 164.674 117.429 165.562C117.429 168.702 115.731 170.209 112.356 170.209C112.297 167.474 112.579 164.742 113.194 162.077C113.76 159.9 115.385 157.817 118.058 155.85V156.268ZM115.343 115.911C115.343 116.895 115.479 117.251 115.762 116.958C115.915 116.786 116.032 116.586 116.106 116.368C116.179 116.151 116.209 115.92 116.192 115.691C116.192 115.126 116.045 114.781 115.762 114.645C115.479 114.509 115.343 114.791 115.343 115.911ZM140.498 157.043H136.903C136.337 157.043 136.127 157.116 136.263 157.252C136.988 157.597 137.791 157.741 138.59 157.671C139.458 157.75 140.331 157.606 141.127 157.252C141.242 157.158 141.032 157.043 140.498 157.043ZM153.075 118.507C152.719 118.863 152.687 119.114 152.97 119.25C153.089 119.312 153.225 119.335 153.357 119.314C153.49 119.294 153.612 119.232 153.707 119.138C153.802 119.043 153.864 118.921 153.884 118.788C153.904 118.656 153.882 118.521 153.819 118.402C153.652 118.161 153.4 118.203 153.075 118.549V118.507Z" fill="#FFD395"/>
</g>
<defs>
<clipPath id="clip0_114_533">
<rect width="159" height="201" fill="white" transform="translate(0.5)"/>
</clipPath>
</defs>
</svg>
