<svg width="146" height="173" viewBox="0 0 146 173" fill="none" xmlns="http://www.w3.org/2000/svg">
<g clip-path="url(#clip0_114_531)">
<path d="M38.0046 112.631L36.7938 111.941C36.6759 111.941 36.2794 111.585 35.5829 110.863L33.1613 108.427L30.3111 105.559C29.336 104.578 28.5537 103.738 27.9858 103.037C25.6577 100.581 23.652 97.8344 22.0174 94.8654C20.3462 91.8544 18.9853 88.6793 17.9563 85.3897C15.8981 78.837 14.8501 72.0058 14.8488 65.1338C14.8488 63.0424 14.9024 61.0804 15.0203 59.2262C15.1633 57.2767 15.5227 55.3495 16.0918 53.4804C16.1845 53.1436 16.3291 52.8235 16.5204 52.5317C16.8062 51.9999 17.0954 51.4501 17.3883 50.8824C17.6449 50.3422 17.9311 49.8167 18.2456 49.3085C18.4396 49.0482 18.5881 48.7565 18.6848 48.4461V47.7453C18.2056 48.3173 17.7722 48.9265 17.3883 49.5672L16.0918 51.5723C15.865 51.9537 15.6885 52.3632 15.5668 52.7905L14.881 53.4804C13.865 52.8812 12.751 52.4687 11.5913 52.2622C10.5025 52.1417 9.4078 52.0841 8.31245 52.0898C6.78153 52.0499 5.27858 52.5073 4.02632 53.3942C3.11316 54.1504 1.99088 54.6058 0.811714 54.6986H0.46875C0.81957 52.5967 1.52255 50.57 2.54759 48.7048C3.56758 46.8176 4.32128 44.7966 4.78706 42.7002C5.24425 40.5011 5.60143 38.0971 5.8586 35.4883C6.11739 32.9891 6.79107 30.5513 7.85163 28.2764C9.05409 25.9745 10.6964 23.9339 12.6843 22.2718C14.9592 20.2947 17.3573 18.4656 19.8636 16.7955C22.4567 15.0635 25.0176 13.4105 27.5464 11.8366C30.0753 10.2627 32.2648 8.78585 34.1149 7.40599C36.3009 5.78897 38.3475 4.13961 40.2548 2.4579C42.2452 0.74214 44.804 -0.158258 47.4234 -0.0646602C48.7046 0.0413985 49.9761 0.243182 51.2274 0.539026C53.1884 0.948672 55.2242 1.43378 57.3673 2.01591C59.5104 2.59804 61.4283 3.18017 63.1535 3.7623C64.1811 4.0317 65.1686 4.43773 66.0896 4.96967C65.7467 5.444 65.0823 6.27408 64.1072 7.49223C63.1321 8.71039 62.1142 9.99323 61.0748 11.3192C60.0354 12.6451 59.0282 13.8956 58.0531 15.0599C57.078 16.2242 56.4136 17.0327 56.0707 17.4962L54.6456 19.0378C54.2079 19.5062 53.885 20.071 53.7026 20.6871C51.9667 22.6599 50.0166 24.7513 47.8199 26.9504C45.6255 29.159 43.5781 31.5106 41.6908 33.9899C39.819 36.4283 38.1964 39.0504 36.8474 41.8163C35.546 44.4337 34.8674 47.3197 34.8651 50.2463V52.1544C35.2759 50.0083 35.8234 47.891 36.5044 45.8157C37.1121 43.9488 37.8943 42.144 38.8404 40.4256C39.7789 38.7129 40.8166 37.0571 41.9479 35.4667C43.2428 33.659 44.6268 31.9176 46.0948 30.2492C47.2087 29.8599 48.1947 29.17 48.9451 28.2548C50.1523 27.0331 51.4202 25.6712 52.7489 24.1691C54.0776 22.6599 55.3099 21.1507 56.4671 19.6415C57.3195 18.4851 58.2429 17.3834 59.2318 16.3427L61.2998 14.2514L64.5144 11.0173L67.729 7.7833C68.4381 7.04628 69.1896 6.35157 69.9793 5.70272C73.4487 5.00343 76.8154 3.86233 79.9981 2.30698C83.1774 0.756988 86.6662 -0.0430715 90.1991 -0.032321C92.39 -0.0751855 94.5697 0.29031 96.6283 1.0457C98.5639 1.78551 100.394 2.77865 102.072 3.99946C103.794 5.27258 105.384 6.71725 106.819 8.31153C108.319 9.93574 109.747 11.5564 111.105 13.1734C112.002 14.3134 113.09 15.2874 114.319 16.0517C115.548 16.812 116.636 17.7824 117.534 18.9192C115.984 19.8811 114.707 21.2289 113.826 22.8324C113.118 24.1762 112.51 25.5706 112.005 27.0043C111.544 28.3303 111.148 29.5269 110.794 30.5618C110.648 31.0551 110.382 31.5044 110.022 31.8693C109.661 32.2343 109.215 32.5036 108.726 32.6531C106.619 32.5261 104.504 32.6128 102.415 32.9119C100.324 33.2144 98.2147 33.3586 96.1032 33.3431C95.1362 33.3547 94.1738 33.2091 93.253 32.9119L90.6598 32.0387L87.981 31.1762C86.9729 30.8749 85.9251 30.7295 84.8735 30.745C84.0838 30.0716 83.5376 29.1544 83.3198 28.1362C83.0841 27.0582 82.827 26.0449 82.5376 24.9992C82.2685 24.0037 81.8297 23.0627 81.241 22.2179C80.8526 21.7623 80.3778 21.3893 79.8442 21.1209C79.3105 20.8525 78.729 20.694 78.1336 20.6548L63.1322 18.2185C62.1999 17.9921 61.5463 18.4233 61.1391 19.5229C60.802 20.3246 60.5992 21.177 60.539 22.0455C60.5567 23.6927 60.7873 25.3306 61.2248 26.9181C61.6499 28.6278 62.3214 30.2658 63.2178 31.7799C64.1165 33.264 65.2874 34.5627 66.6682 35.6069C68.0652 36.6547 69.7693 37.2047 71.5115 37.17H72.3795C72.6045 37.0622 73.1188 36.8251 73.9332 36.4801C74.7476 36.1351 75.2511 35.898 75.4869 35.7794C76.2905 35.6716 76.7192 35.8656 76.7835 36.3938C76.8478 36.9221 76.8692 37.3425 76.8692 37.6982C76.8692 39.0889 76.0655 40.2424 74.4475 41.1695C72.8295 42.0965 71.5115 42.8512 70.4722 43.4333C70.2396 43.1353 70.0384 42.8138 69.872 42.4739C69.5713 41.9159 69.212 41.3919 68.8005 40.9107C68.3669 40.4206 67.9055 39.9563 67.4183 39.5201C67.0985 39.1809 66.6694 38.9669 66.2075 38.9164H65.5217C64.7432 40.1111 64.1032 41.3915 63.6143 42.7326C63.285 43.7304 63.0236 44.7497 62.8321 45.7834L62.3178 48.7371C62.0849 49.9083 61.7069 51.0455 61.1926 52.1221C60.4035 53.9626 59.4192 55.7119 58.2566 57.3397C57.0994 58.9675 56.0172 60.5737 54.9778 62.1261C53.9351 63.6888 53.0383 65.3452 52.299 67.0742C51.5525 68.8948 51.1877 70.851 51.2274 72.82C51.2028 73.9772 51.4067 75.1277 51.8274 76.205C52.2511 77.2855 52.4586 78.4394 52.4382 79.6007C52.4479 80.364 52.2357 81.1134 51.8274 81.7568C51.408 82.4662 51.1998 83.2818 51.2274 84.1068C51.1509 85.4106 51.4484 86.7091 52.0846 87.8475C52.6095 88.6637 53.2863 89.3702 54.0776 89.9281L56.1565 91.405C56.7593 91.8342 57.2098 92.4461 57.4423 93.1514C57.643 93.7961 57.7336 94.4705 57.7101 95.1457C57.6459 95.5554 57.5922 95.9327 57.5387 96.2776C57.4743 96.5942 57.4743 96.9205 57.5387 97.2371C57.6825 97.7506 57.8839 98.2461 58.1388 98.7139C58.4973 99.4189 59.0329 100.017 59.6925 100.45L61.7713 101.84C62.4501 102.3 63.0599 102.856 63.5821 103.49C64.0837 104.095 64.3602 104.857 64.3643 105.646C64.3505 106.055 64.2213 106.451 63.9917 106.789C63.7621 107.127 63.4417 107.392 63.0678 107.554C62.3588 107.978 61.5562 108.219 60.7319 108.254C60.4692 108.249 60.2072 108.221 59.9496 108.168C59.752 108.124 59.5515 108.096 59.3496 108.082C59.1139 108.082 58.2781 107.996 56.8423 107.823C55.3957 107.651 54.5705 107.554 54.3348 107.554C53.2497 107.532 52.1713 107.729 51.163 108.132C50.1546 108.536 49.2365 109.138 48.4628 109.904C47.6751 110.651 47.0524 111.556 46.6352 112.561C46.218 113.565 46.0155 114.647 46.0411 115.736C45.9676 116.213 46.029 116.702 46.2185 117.146C46.408 117.591 46.7178 117.972 47.1127 118.248C47.4594 118.448 47.7436 118.742 47.9329 119.096C48.1223 119.451 48.2093 119.851 48.1842 120.253C46.4841 120.353 44.7942 119.928 43.3408 119.035C42.1686 118.202 41.2191 117.091 40.5763 115.801C39.8499 114.372 39.327 112.848 39.0227 111.273C38.6798 109.602 38.3262 107.888 37.9511 106.141L38.0046 112.631ZM18.2134 134.666C19.635 134.485 21.0713 134.453 22.4996 134.569C22.1567 134.224 21.9316 134.051 21.8138 134.051C21.1085 133.865 20.3929 133.721 19.6707 133.62C18.9621 133.491 18.2465 133.404 17.5276 133.361V132.661C17.5223 131.406 17.6372 130.153 17.8706 128.92C18.1039 127.629 18.2186 126.319 18.2134 125.007C18.2589 122.414 17.8787 119.832 17.0883 117.364C16.3635 115.221 15.4379 113.153 14.3237 111.187C13.2308 109.275 11.995 107.334 10.6163 105.365C9.16234 103.276 7.88962 101.065 6.81228 98.7571C6.12608 97.2897 5.63261 95.7387 5.34428 94.1432C5.05734 92.6257 4.91023 91.0847 4.90492 89.54C4.90492 87.923 4.905 86.306 4.99072 84.7536C5.05266 83.1614 5.02396 81.567 4.90492 79.978C4.91145 78.842 4.67766 77.7175 4.21912 76.6793C3.75836 75.6013 3.26546 74.588 2.75112 73.5423C2.23679 72.4966 1.67959 71.3863 1.28313 70.3082C0.82485 69.2354 0.588 68.0802 0.586734 66.9125V66.74L4.3906 54.7417L5.60144 53.5235C5.86111 53.3742 6.16195 53.3137 6.45872 53.351H7.53025C8.63228 53.3379 9.7332 53.4245 10.8198 53.6098C11.9268 53.8933 12.9396 54.466 13.7558 55.2699V68.4864C13.7558 68.7128 13.8415 69.3811 14.013 70.4807C14.1844 71.5803 14.3344 72.4211 14.4416 73.0033C14.9118 75.4968 15.2303 78.0168 15.3953 80.5494C15.5638 83.1173 16.0571 85.6531 16.8633 88.0955C17.7841 90.873 19.0324 93.5295 20.5815 96.0081C22.1367 98.5064 23.87 100.888 25.7678 103.134C27.6644 105.398 29.6788 107.564 31.8111 109.602C33.9435 111.639 36.0973 113.72 38.1225 115.693C38.519 116.373 38.9821 117.013 39.5048 117.601C39.9362 118.271 40.1184 119.073 40.0191 119.865C40.026 121.186 39.654 122.481 38.9476 123.595C38.2231 124.768 37.851 126.127 37.876 127.508C37.876 127.864 37.8761 128.349 37.9618 128.985C38.0476 129.621 38.0475 130.009 38.0475 130.063C38.1774 130.624 38.414 131.155 38.744 131.626C39.1941 132.445 39.3762 132.963 39.2584 133.2C39.1405 133.437 38.8833 133.782 38.1868 134.278C37.7341 134.537 37.3008 134.829 36.8903 135.151C36.7724 135.151 36.6545 135.237 36.5473 135.41C36.4429 135.564 36.3284 135.712 36.2045 135.852H36.033C35.4075 135.866 34.7862 135.745 34.2115 135.496C33.6379 135.257 33.0213 135.139 32.4005 135.151C31.8305 135.18 31.2725 135.327 30.761 135.582L28.8538 136.455L27.1285 137.242C26.826 137.396 26.5058 137.512 26.175 137.587C25.9392 137.587 25.5963 137.35 25.1034 136.887C24.7644 136.574 24.4752 136.21 24.2462 135.808C24.9605 139.517 23.4032 141.371 19.5743 141.371C19.0693 141.423 18.5594 141.347 18.0914 141.149C17.6233 140.951 17.2121 140.638 16.8955 140.239C16.3388 139.328 16.0698 138.268 16.124 137.199C16.0704 135.733 16.7776 134.838 18.2134 134.666ZM23.1424 135.269C23.1424 135.733 23.3139 135.97 23.6568 135.97C23.9997 135.97 24.0105 135.733 24.0105 135.269C24.0105 134.806 23.8925 134.569 23.6568 134.569C23.421 134.569 23.1424 134.806 23.1424 135.269ZM27.8036 137.878C28.9267 136.962 30.3332 136.47 31.7791 136.488C33.0812 136.502 34.325 137.033 35.2401 137.965C35.736 138.414 36.1309 138.965 36.3988 139.58C36.6666 140.196 36.8013 140.861 36.7938 141.533C36.7973 142.064 36.6057 142.578 36.2557 142.976C35.9056 143.374 35.4218 143.628 34.8971 143.689C33.8765 143.948 32.8312 144.096 31.7791 144.131C31.4362 144.131 30.9218 144.131 30.2253 144.045C29.583 143.989 28.9476 143.87 28.3286 143.689C27.7682 143.527 27.2417 143.264 26.775 142.913C26.5547 142.756 26.3761 142.547 26.2546 142.305C26.1332 142.062 26.0727 141.793 26.0784 141.522C26.0675 140.816 26.223 140.118 26.5322 139.485C26.8414 138.851 27.2955 138.301 27.8572 137.878H27.8036ZM32.5613 82.5006C32.7453 85.8817 33.295 89.2326 34.2008 92.4938C34.2008 92.2674 34.2007 91.8901 34.2864 91.4158C34.3351 91.0584 34.3637 90.6984 34.3721 90.3378C34.3733 87.1952 34.1441 84.0569 33.6863 80.9482C33.221 77.7788 32.9883 74.5793 32.9899 71.3755C32.9916 68.9546 33.2247 66.5395 33.6863 64.1635C34.1457 61.7875 34.3754 59.3722 34.3721 56.9516C34.3721 56.7145 34.3722 56.2509 34.2864 55.561C34.2007 54.871 34.2008 54.3967 34.2008 54.1703C33.2817 57.1637 32.7311 60.2591 32.5613 63.3874C32.3898 66.5136 32.3041 69.5824 32.3041 72.5936C32.3041 75.8923 32.3898 79.1947 32.5613 82.5006ZM35.6687 100.665C36.1974 102.412 36.7473 104.093 37.3188 105.71C37.4519 105.506 37.5124 105.263 37.4903 105.02V104.147C37.5045 102.406 37.2404 100.673 36.7081 99.0158C36.1938 97.4527 35.6365 95.6847 34.8971 93.712V95.2751C34.8919 97.1 35.1519 98.9159 35.6687 100.665ZM37.4903 135.442C38.0889 135.186 38.737 135.068 39.3869 135.097C40.16 135.065 40.9298 135.213 41.6371 135.528C41.9403 135.718 42.1825 135.992 42.3346 136.317C42.4866 136.642 42.5422 137.005 42.4944 137.361C42.442 138.405 42.0675 139.408 41.4229 140.228C41.1727 140.657 40.8204 141.017 40.3977 141.275C39.9749 141.533 39.495 141.681 39.0012 141.705C38.8238 141.694 38.6479 141.665 38.4762 141.619C38.3094 141.567 38.1364 141.538 37.9618 141.533C37.5817 140.981 37.3156 140.358 37.1795 139.7C36.9594 139.055 36.8156 138.385 36.751 137.706C36.7939 136.434 37.0188 135.679 37.501 135.442H37.4903ZM68.1683 149.704C68.7181 149.098 69.3953 148.623 70.1506 148.313C70.9383 147.97 71.7472 147.678 72.5723 147.44C73.2433 147.233 73.9389 147.117 74.6404 147.095C75.4375 147.026 76.2335 147.24 76.8906 147.699C77.307 148.081 77.6677 148.52 77.9622 149.003C78.2233 149.42 78.4526 149.856 78.648 150.308C78.7419 150.509 78.8953 150.676 79.0871 150.786C79.2789 150.896 79.4997 150.943 79.7195 150.922C79.7276 150.39 79.6405 149.86 79.4623 149.359C79.2843 148.854 79.1972 148.321 79.2052 147.785V147.268C79.8416 146.309 80.5585 145.408 81.3483 144.573C81.7495 144.045 82.2582 143.609 82.8403 143.295C83.4224 142.981 84.0644 142.795 84.7235 142.751H83.8556C82.6437 142.707 81.4543 143.088 80.491 143.829C79.5293 144.633 78.6852 145.569 77.9836 146.61C77.0122 146.463 76.0295 146.405 75.0476 146.438C74.1228 146.407 73.197 146.465 72.283 146.61C71.625 146.737 70.9847 146.944 70.3757 147.225C69.7702 147.502 69.1333 147.705 68.4791 147.828H68.1362C67.9004 147.828 67.5897 147.602 67.1825 147.138C66.6763 146.576 66.1283 146.054 65.5431 145.575C64.7314 144.922 63.8289 144.392 62.8643 144.001C61.6244 143.52 60.3034 143.286 58.9746 143.311C58.9569 142.329 59.2251 141.362 59.7461 140.53C60.3043 139.587 60.5762 138.5 60.5283 137.404C60.5109 135.96 60.3964 134.52 60.1855 133.092C60.011 131.616 59.4071 130.224 58.4496 129.092L48.6021 117.094C48.2567 116.748 48.0442 116.289 48.0021 115.801C47.9397 115.307 47.9074 114.81 47.9056 114.313C47.8721 113.7 47.999 113.088 48.2735 112.54C48.548 111.991 48.9606 111.525 49.4701 111.187C50.5721 110.465 51.8017 109.964 53.0919 109.71C54.4541 109.419 55.8475 109.303 57.2387 109.365C58.621 109.419 59.6603 109.451 60.3568 109.451H63.4643C64.5637 109.417 65.664 109.475 66.754 109.623C66.8611 109.742 67.1826 110.087 67.6969 110.701C68.2113 111.316 68.7684 111.887 69.5185 112.523C70.2685 113.159 70.9008 113.774 71.5866 114.345C71.9694 114.746 72.444 115.045 72.9688 115.218L82.9983 117.126C83.9363 117.493 84.7661 118.094 85.4093 118.873C86.4808 119.951 86.8559 120.781 86.6201 121.482C86.2988 122.399 85.6546 123.166 84.8093 123.638C83.7785 124.305 82.6791 124.858 81.5303 125.287C80.3195 125.761 79.1302 126.16 77.9836 126.505C76.8371 126.85 75.9691 127.087 75.3905 127.206C76.4441 128.21 77.3987 129.315 78.2408 130.505C79.5695 132.251 80.8874 134.138 82.2161 136.164C83.5448 138.191 84.7236 140.131 85.763 141.986C86.5384 143.139 87.0674 144.442 87.3166 145.812C87.3891 146.861 87.182 147.911 86.7166 148.852C86.3407 149.459 85.7969 149.942 85.1521 150.243C84.4716 150.55 83.7493 150.754 83.009 150.847C82.1038 150.996 81.2284 151.291 80.416 151.72C79.9293 152.063 79.4927 152.473 79.1194 152.938C78.4872 153.639 78.1121 154.016 78.0478 154.156C77.5327 154.435 76.9808 154.638 76.4085 154.76C75.6748 154.966 74.9582 155.229 74.2654 155.547H73.9332C73.3185 155.527 72.7078 155.44 72.1116 155.288C71.3688 155.112 70.6495 154.848 69.9686 154.501C69.3124 154.18 68.703 153.771 68.1576 153.283C67.92 153.097 67.7265 152.861 67.5912 152.59C67.4559 152.32 67.3822 152.023 67.3754 151.72C67.3667 151.348 67.4324 150.977 67.5686 150.631C67.7048 150.285 67.9087 149.97 68.1683 149.704ZM86.3844 113.278C85.0021 113.332 83.5663 113.364 82.0983 113.364C80.6303 113.364 79.1623 113.364 77.8121 113.278C76.462 113.192 75.4977 113.192 75.0476 113.192C73.8873 113.254 72.7366 112.949 71.7579 112.319C70.984 111.774 70.3128 111.095 69.7756 110.313C69.2283 109.527 68.7649 108.685 68.3933 107.802C67.9672 106.842 67.4768 105.913 66.9253 105.02C65.6636 103.269 64.2777 101.612 62.7785 100.061C62.009 99.3029 61.3983 98.3971 60.9824 97.3973C60.5665 96.3975 60.3537 95.324 60.3568 94.2402C60.6056 94.2254 60.8543 94.2728 61.0805 94.3781C61.3068 94.4834 61.5036 94.6434 61.6535 94.8439C61.7994 95.0492 61.9951 95.2135 62.222 95.3211C62.449 95.4287 62.6997 95.4759 62.95 95.4584C62.9272 94.9599 62.7798 94.4752 62.5213 94.0493C62.2628 93.6234 61.9016 93.2701 61.4712 93.022C60.4961 92.3213 59.4353 91.599 58.2566 90.866C57.0797 90.1031 56.0002 89.198 55.042 88.171C54.0705 87.1398 53.5429 85.7644 53.574 84.344C53.5897 83.9792 53.6472 83.6175 53.7455 83.266C53.8616 82.7836 54.0342 82.3167 54.2598 81.8753C54.4669 81.4795 54.7304 81.1163 55.042 80.7973C55.1843 80.6488 55.366 80.5445 55.5654 80.4967C55.7648 80.449 55.9737 80.4598 56.1672 80.5278C56.7028 80.6264 57.1897 80.9036 57.5494 81.3148C57.8936 81.7269 58.2087 82.1628 58.4923 82.6192C58.7532 83.045 59.0433 83.452 59.3603 83.8373C59.4905 83.9972 59.6538 84.1264 59.839 84.2158C60.0241 84.3052 60.2265 84.3526 60.4319 84.3548C61.2355 84.3548 61.6641 84.1284 61.7284 83.6649C61.787 83.1459 61.8156 82.624 61.8141 82.1017C61.8141 80.4703 61.3534 79.4247 60.4319 78.9647C59.4658 78.4844 58.4532 78.1051 57.4101 77.8328C56.3373 77.5614 55.3139 77.1211 54.3777 76.5284C53.4562 75.957 52.9954 74.6742 52.9954 72.7122C53.0038 70.6304 53.4559 68.5745 54.3209 66.6833C55.186 64.7921 56.444 63.1094 58.0102 61.7488C58.0988 61.6499 58.2212 61.5883 58.353 61.5763C58.5671 61.5684 58.7777 61.6332 58.9507 61.7603C59.1237 61.8874 59.2491 62.0694 59.3067 62.277C59.3886 62.4921 59.5369 62.6751 59.7297 62.7993C59.9226 62.9234 60.1498 62.9822 60.3783 62.9669H61.0641L59.1674 59.8407L61.0641 57.9326L61.7606 58.6225L64.868 44.0154C64.9217 43.5261 65.14 43.07 65.487 42.7228C65.834 42.3757 66.2886 42.1585 66.7753 42.1073C67.1951 43.1959 67.7153 44.2426 68.3291 45.2336C69.0149 46.3978 69.7649 47.5513 70.5686 48.7156C71.3432 49.8211 72.0379 50.9811 72.6474 52.1868C73.1728 53.1513 73.4697 54.2249 73.5153 55.3238C73.3956 56.1751 73.131 56.9993 72.7331 57.7601C72.4709 58.4991 72.1105 59.199 71.6615 59.8407H72.0044C72.3767 59.8539 72.7464 59.773 73.0796 59.6054C73.4128 59.4377 73.6988 59.1888 73.9117 58.8813C74.3534 58.2635 74.8761 57.7087 75.4655 57.2319H76.1512C76.5048 57.5769 76.6764 57.814 76.6764 57.9326C76.7279 57.9743 76.7697 58.0268 76.7993 58.0863C76.8289 58.1458 76.8454 58.2111 76.8477 58.2776C76.776 58.7573 76.5273 59.1922 76.1512 59.4957C75.6598 59.9884 75.1411 60.4527 74.5975 60.8864C74.0189 61.3499 73.451 61.7811 72.8724 62.1908C72.4889 62.48 72.0841 62.7395 71.6615 62.9669H72.3581C73.1278 62.9763 73.8798 62.7342 74.5011 62.277C75.1478 61.8044 75.7568 61.2818 76.3227 60.7139C76.8825 60.1436 77.4883 59.6208 78.1336 59.1508C78.7053 58.7067 79.4045 58.4609 80.1267 58.4501C81.1833 58.4555 82.2218 58.726 83.1484 59.237C84.1021 59.7331 85.1188 60.0958 86.1702 60.315C87.8092 61.7653 89.2089 63.4682 90.317 65.3601C91.5814 67.4515 92.9101 69.5321 94.2923 71.6234C95.5778 73.5879 97.0843 75.3965 98.782 77.0135C100.319 78.4887 102.37 79.2978 104.493 79.2665C105.061 79.2665 105.811 79.2665 106.733 79.1803C107.118 79.1895 107.498 79.0943 107.834 78.9046C108.169 78.7149 108.448 78.4378 108.64 78.1023C106.68 78.3944 104.678 78.1524 102.843 77.4016C101.42 76.72 100.179 75.7075 99.2214 74.4478C98.1739 73.0713 97.2758 71.586 96.5425 70.0172C95.6782 68.243 94.6974 66.5288 93.6065 64.8858C92.9536 63.8833 92.1345 63.0009 91.1849 62.277C90.2633 61.5763 89.3419 60.9187 88.4203 60.2719C87.4877 59.6318 86.5932 58.9371 85.7415 58.1913C84.8474 57.3859 84.1192 56.4116 83.5984 55.3238V57.5769C82.3549 57.5825 81.1218 57.3483 79.9659 56.8869C78.8414 56.4357 77.7462 55.9136 76.687 55.3238C77.2656 54.7417 77.8336 54.1919 78.4123 53.6637C78.9818 53.1483 79.7251 52.8708 80.491 52.8875C80.7442 52.8746 80.9974 52.9139 81.2351 53.0029C81.4728 53.0918 81.69 53.2286 81.8733 53.4049C82.2162 53.7499 82.6234 54.2242 83.0841 54.7956V54.1057C83.0841 53.1786 82.7626 52.6288 82.1304 52.4563C81.4855 52.2733 80.8182 52.1825 80.1481 52.1868C79.7978 52.1441 79.4425 52.1854 79.111 52.3072C78.7795 52.4289 78.4813 52.6278 78.2408 52.8875C78.0008 53.1444 77.704 53.3407 77.3745 53.4606C77.0449 53.5805 76.6919 53.6205 76.3441 53.5774C75.7194 53.5472 75.1169 53.3343 74.6106 52.9647C74.1043 52.5952 73.7162 52.085 73.4938 51.4968C72.8461 50.3847 72.4783 49.1302 72.4223 47.8424C72.369 47.3128 72.5227 46.783 72.8509 46.3655C73.1402 46.0744 73.6331 45.5246 74.3189 44.7161C75.0734 43.7985 75.8821 42.9273 76.7406 42.1073C77.5586 41.2467 78.4244 40.4333 79.3338 39.671V38.9811C79.3809 38.4129 79.296 37.8415 79.0859 37.312C78.8757 36.7826 78.5461 36.3095 78.1229 35.9303C77.2591 35.2704 76.2535 34.8237 75.1869 34.6259C74.0191 34.3985 72.8284 34.3116 71.6401 34.3672C70.4328 34.4319 69.4256 34.5181 68.6184 34.6259C67.5155 34.2057 66.5136 33.5552 65.6788 32.7171C64.8439 31.8791 64.1952 30.8727 63.7751 29.764C62.8636 27.4964 62.3943 25.0736 62.3927 22.6276V20.8596C62.3766 20.6873 62.3956 20.5135 62.4485 20.3489C62.5014 20.1842 62.5872 20.0321 62.7005 19.902C62.8139 19.7718 62.9524 19.6662 63.1077 19.5918C63.263 19.5173 63.4317 19.4756 63.6036 19.469C64.9321 19.2521 66.2948 19.4673 67.4933 20.0835C68.6748 20.6699 69.9236 21.108 71.2114 21.3879C71.3186 21.3879 71.7258 21.3879 72.4223 21.4741C73.1188 21.5603 73.8582 21.6142 74.6619 21.7328C75.4655 21.8514 76.1942 21.9376 76.805 21.9915C77.4157 22.0454 77.8764 22.0778 78.1015 22.0778C78.5857 22.1352 79.0472 22.3171 79.4413 22.606C79.8354 22.8949 80.1489 23.281 80.3517 23.7272C80.7118 24.6989 80.8863 25.7303 80.866 26.7672C80.8627 27.9013 80.9199 29.0349 81.0375 30.1629C81.07 30.6596 81.2108 31.143 81.4496 31.579C81.6885 32.0149 82.0197 32.3926 82.4198 32.6855C83.7216 32.5525 85.0364 32.64 86.3095 32.9442C87.381 33.2353 88.4525 33.5587 89.3311 33.9036C90.2098 34.2486 91.2384 34.572 92.2671 34.8631C93.4542 35.1651 94.6753 35.31 95.8996 35.2943H99.3607C99.4707 35.0999 99.6254 34.9349 99.8118 34.813C99.9982 34.6911 100.211 34.6158 100.432 34.5936H101.793C102.726 34.5949 103.655 34.7145 104.558 34.9493C105.519 35.1824 106.505 35.2982 107.494 35.2943C108.535 35.3965 109.577 35.117 110.43 34.5073C111.236 33.8209 112.104 33.2111 113.023 32.6855C113.144 30.3123 113.61 27.9698 114.405 25.7323C114.999 24.1292 116.05 22.738 117.427 21.7328C118.914 20.7442 120.595 20.0897 122.356 19.814C124.698 19.4396 127.067 19.2665 129.439 19.2965C129.455 20.7169 129.223 22.1291 128.753 23.4684C128.296 24.7477 127.835 26.1383 127.371 27.6404C126.792 29.7964 126.299 31.5535 125.988 32.7717C125.712 33.8626 125.141 34.8552 124.338 35.6392C123.448 36.4125 122.38 36.9498 121.231 37.2024C119.902 37.5581 118.016 37.957 115.616 38.4205C115.315 39.0849 115.109 39.7891 115.005 40.5119C115.005 41.094 114.919 41.7839 114.919 42.5924C114.921 43.7286 115.298 44.832 115.991 45.7295C116.691 46.6645 117.505 47.5082 118.413 48.2412C119.334 49.0066 120.309 49.7505 121.349 50.5051C122.276 51.1531 123.093 51.9466 123.77 52.8552C124.553 53.937 125.218 55.1008 125.753 56.3264C126.409 57.7748 126.989 59.2573 127.488 60.7678C128.003 62.3309 128.431 63.894 128.785 65.4572C129.1 66.7968 129.272 68.1664 129.299 69.5428C129.325 71.8759 128.963 74.1969 128.228 76.4098C127.513 78.5805 127.049 80.8268 126.846 83.1043C126.621 84.9585 126.47 86.9959 126.417 89.1951C126.361 91.4086 126.16 93.6161 125.817 95.8033C125.481 97.9579 124.869 100.06 123.995 102.056C123.13 104.036 121.721 105.726 119.934 106.928C119.013 107.511 118.123 108.006 117.255 108.578C116.801 108.842 116.295 109.001 115.773 109.046C115.251 109.091 114.725 109.019 114.234 108.837C111.949 110.914 109.275 112.512 106.369 113.537C103.455 114.577 100.385 115.106 97.2927 115.1C96.0516 115.128 94.8104 115.042 93.5851 114.841C92.1022 114.446 90.6654 113.893 89.299 113.192C88.7525 113.192 87.7774 113.213 86.3951 113.278H86.3844ZM59.6817 144.831C60.4501 144.675 61.235 144.617 62.0177 144.659C63.1019 144.639 64.1628 144.976 65.0394 145.618C65.4746 145.951 65.8209 146.387 66.0472 146.888C66.2735 147.388 66.3728 147.937 66.336 148.486C66.3711 148.874 66.3008 149.264 66.1329 149.616C65.965 149.967 65.7056 150.266 65.3824 150.48C64.6833 150.909 63.8751 151.122 63.0571 151.095C62.5137 151.152 61.9647 151.079 61.4545 150.882C60.9443 150.686 60.4874 150.371 60.1211 149.963C59.5023 149.076 59.1968 148.005 59.2532 146.923C59.2639 145.64 59.4031 144.972 59.6925 144.831H59.6817ZM62.3606 59.8084H63.0571L62.3606 59.1184V59.8084ZM63.2286 63.1071C62.9928 63.1071 62.9392 63.2257 63.0571 63.4628C63.175 63.7 63.1107 63.8078 63.2286 63.8078C63.2748 63.8129 63.3216 63.8075 63.3655 63.792C63.4094 63.7765 63.4494 63.7512 63.4823 63.7181C63.5152 63.685 63.5403 63.6449 63.5557 63.6007C63.5711 63.5565 63.5765 63.5094 63.5714 63.4628C63.7 63.2257 63.5822 63.1071 63.2178 63.1071H63.2286ZM67.7182 61.7164C68.2458 61.7054 68.7691 61.6182 69.272 61.4577C69.5495 61.3809 69.8043 61.2379 70.0151 61.0408C70.2259 60.8438 70.3864 60.5985 70.4829 60.3258H63.5714C64.7677 61.2364 66.2289 61.7251 67.729 61.7164H67.7182ZM65.8323 99.6949C67.0055 100.674 68.458 101.251 69.9793 101.344C72.0798 101.369 74.1446 100.797 75.937 99.6949C77.7162 98.6012 79.3946 97.3493 80.9518 95.9542C82.5055 94.5636 83.9521 93.2592 85.2379 92.041C86.3566 90.9433 87.7669 90.1946 89.299 89.885C89.8313 89.9485 90.3557 90.0677 90.8635 90.2407C91.3687 90.4074 91.8891 90.523 92.4171 90.5857H94.8281C94.0076 89.9955 93.0606 89.6077 92.0636 89.4538C91.0936 89.2867 90.1117 89.2002 89.1276 89.1951C87.7039 89.1388 86.3029 89.5681 85.1521 90.4132C84.0892 91.2463 83.08 92.1465 82.1304 93.1083C81.1553 94.0893 80.1695 94.9948 79.1945 95.8033C78.1375 96.6394 76.8198 97.071 75.4761 97.0215C74.9347 97.0557 74.3923 96.9723 73.8857 96.777C73.3791 96.5816 72.9202 96.279 72.5401 95.8895C71.8446 95.1389 71.2632 94.2889 70.815 93.367C70.3435 92.4399 69.8828 91.4805 69.4221 90.4995C68.9749 89.5302 68.2561 88.7134 67.354 88.1494V89.3675C67.9326 90.6396 68.4255 91.6853 68.8219 92.4938C69.2184 93.3023 69.6256 94.1216 70.0328 94.9301C70.3314 95.5977 70.6901 96.2364 71.1043 96.8382C71.2578 97.1334 71.4608 97.3996 71.7044 97.6252C71.9938 97.9162 72.1973 98.0564 72.3152 98.0564C72.2009 98.6385 71.7401 98.9296 70.9328 98.9296H69.722C69.1155 98.9656 68.5092 98.8587 67.9511 98.6173C67.393 98.3758 66.8986 98.0066 66.5074 97.5389C66.1465 97.086 65.6854 96.7243 65.1607 96.4828C64.6359 96.2413 64.0623 96.1268 63.4857 96.1483C63.5603 96.887 63.8131 97.5962 64.222 98.2143C64.631 98.8324 65.1837 99.3407 65.8323 99.6949ZM64.0108 73.8226C63.9487 74.1965 63.9201 74.5754 63.9251 74.9545C63.9241 75.2763 63.9527 75.5975 64.0108 75.9139C64.0751 76.205 64.1608 76.2912 64.2787 76.1726C64.5433 75.8255 64.666 75.3897 64.6216 74.9545C64.6765 74.4646 64.5547 73.9711 64.2787 73.5638C64.1608 73.4345 64.0751 73.5207 64.0108 73.8226ZM65.4895 82.4467C65.9395 83.7188 66.4003 84.9908 66.8718 86.2737V84.883C66.8787 83.6736 66.7016 82.4703 66.3468 81.3148C66.0039 80.2152 65.5431 78.9108 64.9645 77.4016C64.9516 77.6048 64.923 77.8066 64.8788 78.0053C64.8351 78.2077 64.8063 78.413 64.793 78.6197C64.7951 79.9271 65.0311 81.2234 65.4895 82.4467ZM70.8472 33.0628C70.8001 33.0559 70.752 33.0599 70.7067 33.0746C70.6614 33.0894 70.6201 33.1144 70.586 33.1477C70.5518 33.181 70.5257 33.2218 70.5097 33.2669C70.4937 33.312 70.4882 33.3602 70.4936 33.4077C70.7293 33.8821 70.9543 33.8821 71.19 33.4077C71.2007 33.3588 71.1996 33.308 71.1867 33.2596C71.1738 33.2112 71.1496 33.1666 71.116 33.1296C71.0823 33.0926 71.0403 33.0643 70.9935 33.047C70.9468 33.0298 70.8966 33.0241 70.8472 33.0304V33.0628ZM76.0226 31.3272C75.6521 31.7466 75.2009 32.0861 74.6963 32.3251C74.1917 32.5641 73.644 32.6977 73.0866 32.7178H78.1015C78.2659 32.7412 78.4334 32.7258 78.5909 32.6728C78.7484 32.6199 78.8916 32.5308 79.009 32.4127C79.1264 32.2945 79.2149 32.1506 79.2676 31.9921C79.3202 31.8337 79.3355 31.6651 79.3123 31.4996V29.5916C79.2746 28.4803 79.0386 27.3849 78.6158 26.3575C78.4723 25.8254 78.1559 25.3569 77.717 25.0267C77.2782 24.6965 76.742 24.5237 76.1941 24.5357H75.5083C76.0645 25.009 76.5077 25.6022 76.805 26.2713C77.1561 26.9152 77.361 27.6295 77.4049 28.3626C77.3884 28.9157 77.2624 29.4599 77.0342 29.9634C76.8061 30.4669 76.4804 30.9195 76.0763 31.2948L76.0226 31.3272ZM74.2975 24.029H74.994L74.2975 23.3283V24.029ZM80.266 76.5284C79.7005 77.2936 79.2055 78.1091 78.7873 78.9647C78.3528 79.8597 77.9943 80.7901 77.7157 81.746C77.4761 82.4199 77.3282 83.1234 77.2764 83.8373C77.5767 83.8779 77.8819 83.8172 78.1444 83.6649C78.3694 83.5463 78.9801 83.1366 79.9552 82.4467C80.5414 82.0097 81.1493 81.6031 81.7768 81.2285C83.2646 80.9986 84.7787 80.9986 86.2666 81.2285C86.6462 81.0816 86.9688 80.8158 87.1869 80.4703C87.4049 80.1247 87.5068 79.7178 87.4774 79.3097C87.4561 78.9303 87.3483 78.5609 87.1626 78.23C86.9768 77.8992 86.7179 77.6158 86.4059 77.4016V80.1828C85.5977 80.1955 84.7894 80.1667 83.9842 80.0966C83.4677 80.0425 82.947 80.0425 82.4305 80.0966C81.9755 80.1581 81.5357 80.3043 81.1339 80.5278C80.7267 80.765 80.1267 81.1746 79.323 81.746L80.5339 78.1023C80.641 77.8651 80.7588 77.5741 80.8767 77.2291C80.9946 76.8841 81.1125 76.7116 81.2197 76.7116H86.2344C86.0566 76.3622 85.7841 76.0704 85.4485 75.8701C85.1129 75.6698 84.7278 75.5692 84.3377 75.5797C83.4055 75.5151 82.6018 75.4935 81.9161 75.4935C81.5823 75.5193 81.2593 75.6235 80.9727 75.7976C80.6861 75.9717 80.4441 76.2109 80.266 76.496V76.5284ZM83.2877 96.3531C83.2877 96.6981 83.3949 96.8706 83.6306 96.8706C83.7007 96.8816 83.7722 96.8758 83.8396 96.8537C83.9071 96.8316 83.9684 96.7938 84.0186 96.7434C84.0687 96.693 84.1062 96.6313 84.1282 96.5635C84.1502 96.4957 84.1559 96.4236 84.1449 96.3531C84.1449 95.8895 83.9735 95.6632 83.6306 95.6632C83.2877 95.6632 83.2877 95.8572 83.2877 96.3207V96.3531ZM100.572 165.454C101.651 164.358 102.947 163.503 104.376 162.942H103.679C102.961 162.947 102.264 163.189 101.697 163.632C101.054 164.096 100.454 164.505 99.875 164.85C99.8866 164.177 99.6411 163.525 99.1892 163.028C98.7457 162.518 98.2541 162.052 97.7212 161.638L96.2425 160.506C96.0389 160.374 95.8702 160.194 95.7508 159.982C95.6313 159.769 95.5648 159.531 95.5568 159.288C95.6188 158.072 96.0741 156.91 96.8533 155.978C97.6022 155.028 98.2119 153.976 98.6641 152.852C99.112 151.871 99.3493 150.805 99.3607 149.726V146.244C99.3781 143.096 98.8224 139.973 97.7212 137.027C96.6094 134.083 96.05 130.958 96.0711 127.81V125.902C96.0284 125.26 96.0862 124.616 96.2425 123.993C96.7388 123.438 97.2039 122.855 97.6355 122.247C98.1066 121.748 98.4713 121.157 98.707 120.511V120.177C97.9356 120.751 96.9848 121.027 96.0282 120.953C95.0531 120.9 94.153 120.867 93.3494 120.867H89.8991C89.0478 120.084 88.1217 119.387 87.1344 118.787C86.0662 118.16 85.1277 117.333 84.3699 116.35C85.5405 116.146 86.7208 116.002 87.906 115.919C88.8811 115.854 90.049 115.833 91.2813 115.833C92.8828 115.828 94.4782 116.031 96.0282 116.437C97.5817 116.843 99.1808 117.045 100.786 117.04C102.283 117.079 103.775 116.845 105.19 116.35C106.385 115.893 107.542 115.341 108.651 114.701C109.744 114.068 110.837 113.4 111.93 112.696C113.115 111.959 114.359 111.321 115.648 110.788C116.02 110.581 116.434 110.463 116.859 110.443C117.283 110.411 117.695 110.29 118.07 110.087C119.378 109.761 120.554 109.034 121.434 108.006C121.823 107.509 122.308 107.098 122.861 106.797C123.414 106.497 124.023 106.314 124.649 106.26C125.498 106.25 126.343 106.369 127.156 106.616C127.967 106.854 128.808 106.97 129.653 106.961H132.417C132.067 106.375 131.514 105.941 130.864 105.743C130.178 105.516 129.481 105.311 128.796 105.139C128.173 104.985 127.563 104.779 126.974 104.524C126.734 104.429 126.53 104.26 126.392 104.041C126.253 103.823 126.187 103.565 126.203 103.306V102.616C126.847 100.073 127.309 97.4862 127.585 94.8762C127.813 92.5046 128.217 89.8095 128.796 86.7911C129.12 84.8967 129.611 83.0351 130.264 81.2285C130.915 79.3883 131.238 77.4468 131.217 75.4935C131.19 71.6637 130.737 67.849 129.867 64.1204C129.017 60.3749 127.57 56.7926 125.581 53.5127C125.046 52.608 124.378 51.7901 123.599 51.0872C122.731 50.2679 121.895 49.4594 121.091 48.6509C120.288 47.8424 119.559 47.0554 118.948 46.3008C118.409 45.7652 118.075 45.055 118.005 44.2957C117.926 43.4026 118.169 42.5106 118.691 41.7839C119.184 41.2573 119.816 40.8833 120.513 40.7059C121.305 40.458 122.11 40.2529 122.924 40.0914C123.873 39.8949 124.78 39.5299 125.603 39.0134C126.425 38.4671 127.132 37.7632 127.683 36.9419C128.235 36.1207 128.62 35.1981 128.817 34.227C129.331 32.071 129.689 30.1306 129.889 28.4057C132.114 30.2737 134.062 32.4517 135.675 34.8738C137.236 37.2559 138.567 39.7828 139.65 42.42C140.745 45.1021 141.64 47.8622 142.329 50.6776C143.015 53.5235 143.647 56.3264 144.226 59.1184C144.28 59.4436 144.37 59.7618 144.494 60.0671C144.577 60.4106 144.722 60.7358 144.922 61.0265C145.077 61.5963 145.191 62.1762 145.265 62.7621C145.383 63.5814 145.437 64.045 145.437 64.1528V86.7911C145.456 88.3115 145.164 89.8197 144.579 91.2217C144.001 92.5585 143.369 93.8629 142.672 95.1349C141.976 96.407 141.343 97.6898 140.775 98.9619C140.19 100.273 139.894 101.696 139.907 103.134C139.896 104.35 140.103 105.559 140.518 106.702C140.924 107.843 141.127 109.048 141.118 110.26C141.143 111.185 140.935 112.102 140.511 112.924C140.087 113.746 139.463 114.447 138.697 114.96C137.198 116.083 135.38 116.691 133.51 116.695C133.475 116.138 133.584 115.581 133.826 115.078C134.068 114.576 134.436 114.145 134.893 113.828C135.335 113.537 135.695 113.136 135.938 112.664C136.18 112.191 136.296 111.664 136.275 111.133C136.275 109.393 136.104 108.466 135.761 108.351C135.021 108.197 134.265 108.139 133.51 108.179C133.507 109.485 133.275 110.781 132.825 112.006C132.362 113.249 132.003 114.529 131.753 115.833C131.517 118.151 131.325 120.404 131.153 122.614C130.969 124.891 130.288 127.099 129.16 129.082C128.162 130.935 126.942 132.658 125.528 134.213C124.038 135.895 122.592 137.609 121.241 139.344C119.874 141.058 118.662 142.89 117.62 144.821C116.6 146.652 116.061 148.715 116.055 150.814C116.011 153.806 116.92 156.734 118.648 159.169C118.07 159.395 117.213 159.805 116.055 160.387C115.101 160.803 114.27 161.46 113.644 162.295C113.644 162.414 113.751 162.468 113.987 162.468C114.725 162.401 115.421 162.095 115.969 161.595C116.547 161.093 117.228 160.725 117.962 160.517C118.188 160.743 118.627 161.153 119.259 161.735C119.891 162.317 120.331 162.716 120.556 162.953V163.298C120.561 163.855 120.448 164.406 120.224 164.916C120.001 165.425 119.672 165.88 119.259 166.252C118.502 167.015 117.48 167.452 116.409 167.47C115.435 167.552 114.463 167.305 113.644 166.769C113.066 166.306 112.83 165.271 112.948 163.643C112.444 163.754 111.916 163.661 111.48 163.384C110.98 163.1 110.415 162.952 109.84 162.953H108.629L112.433 166.769V167.847C112.451 168.665 112.231 169.471 111.801 170.166C111.371 170.861 110.75 171.415 110.012 171.76C108.531 172.596 106.866 173.045 105.168 173.065C104.59 173.065 103.925 173.065 103.186 172.978C102.457 172.922 101.738 172.777 101.043 172.547C100.38 172.326 99.7859 171.936 99.3178 171.415C98.8346 170.805 98.5874 170.039 98.6214 169.259C98.6611 168.522 98.8554 167.802 99.1915 167.147C99.5277 166.491 99.9979 165.914 100.572 165.454ZM89.9418 96.601C90.1204 96.7309 90.3254 96.8192 90.542 96.8598L93.0493 97.9378C93.6811 98.1657 94.2879 98.4583 94.8603 98.811H95.5568C94.9905 97.893 94.1394 97.1884 93.1351 96.8059C92.2013 96.426 91.2062 96.2214 90.1991 96.2022C90.0529 96.2099 89.9085 96.2389 89.7705 96.2884C89.6301 96.3424 89.4814 96.3715 89.3311 96.3747C89.5469 96.3983 89.7551 96.4682 89.9418 96.5795V96.601ZM92.01 162.5C92.7286 161.648 93.7535 161.117 94.8603 161.023C97.0605 161.023 98.157 162.126 98.1498 164.333C98.032 166.295 97.8069 167.287 97.4533 167.287H91.7528C91.5171 167.287 91.2599 167.049 90.9813 166.586C90.746 166.27 90.5948 165.899 90.542 165.508C90.572 164.93 90.7175 164.363 90.9697 163.843C91.2219 163.323 91.5757 162.859 92.01 162.479V162.5ZM97.0248 92.6878C97.488 93.0609 98.0717 93.249 98.6641 93.2161H99.3607C99.0106 92.6297 98.5391 92.126 97.9783 91.7392C97.478 91.3565 96.8708 91.1416 96.2425 91.1247C96.0084 91.1574 95.7786 91.2153 95.5568 91.2972C96.1354 91.8578 96.6176 92.3213 97.0248 92.6663V92.6878ZM96.4247 99.1559C96.1889 99.1559 96.1353 99.2745 96.2425 99.5009C96.3496 99.7273 96.3068 99.8566 96.4247 99.8566C96.472 99.8621 96.5198 99.8566 96.5646 99.8404C96.6095 99.8243 96.65 99.7981 96.6831 99.7637C96.7163 99.7293 96.7411 99.6877 96.7557 99.6422C96.7704 99.5966 96.7745 99.5483 96.7676 99.5009C96.8855 99.2206 96.7676 99.102 96.4354 99.102L96.4247 99.1559ZM99.3607 73.0787V72.378C99.2845 71.6467 99.1373 70.9245 98.9213 70.222C98.6427 69.144 98.257 68.5726 97.8498 68.5726H97.5069C97.6165 70.2226 98.2687 71.7889 99.3607 73.0248V73.0787ZM98.2891 101.42C98.7705 101.533 99.2629 101.59 99.7571 101.592C99.7787 101.341 99.7123 101.091 99.5694 100.884C99.4265 100.677 99.2162 100.527 98.9749 100.46C98.4606 100.288 97.9677 100.148 97.5069 100.029V100.374C97.491 100.6 97.5555 100.824 97.6891 101.005C97.8227 101.187 98.0166 101.315 98.2356 101.366L98.2891 101.42ZM99.5856 73.7687C99.5856 74.1244 99.7036 74.2969 99.9286 74.2969C100 74.3079 100.073 74.3018 100.142 74.2791C100.211 74.2565 100.273 74.2178 100.324 74.1664C100.375 74.115 100.413 74.0522 100.436 73.9831C100.459 73.914 100.465 73.8405 100.454 73.7687C100.454 73.3159 100.282 73.0787 99.9286 73.0787C99.575 73.0787 99.5322 73.262 99.5322 73.7148L99.5856 73.7687ZM101.311 59.7544C100.389 59.8191 99.9286 60.0132 99.9286 60.3581V64.8858C99.9286 65.2308 100.389 65.4356 101.311 65.4895C102.232 65.5434 102.757 65.5757 102.865 65.5757H103.936C104.633 65.5757 105.008 65.3494 105.008 64.8858V60.3581C104.665 62.4495 104.258 63.5275 103.797 63.5922C103.336 63.6569 102.35 63.6784 100.861 63.6784C100.861 62.1692 101.064 61.2421 101.461 60.8971C102.391 60.3396 103.422 59.9732 104.493 59.8191C104.202 59.8175 103.911 59.7886 103.625 59.7329C103.395 59.6905 103.163 59.6617 102.929 59.6467L101.311 59.7544ZM103.036 71.6665C104.023 71.5701 104.974 71.2415 105.811 70.7071C106.958 70.0711 107.536 69.3488 107.536 68.5511V59.8084C106.767 60.6487 106.283 61.7133 106.154 62.8484C106.058 63.8524 105.853 64.8429 105.543 65.8021C105.273 66.6545 104.726 67.3908 103.99 67.8935C102.729 68.5056 101.313 68.7198 99.9286 68.5079C100.166 68.904 100.494 69.2369 100.885 69.4789C101.277 69.7209 101.72 69.8648 102.179 69.8986C102.992 69.8117 103.768 69.5105 104.429 69.0254C105.164 68.6334 105.765 68.0289 106.154 67.2898C106.287 67.4936 106.348 67.7368 106.326 67.9797C106.318 68.3505 106.215 68.7129 106.027 69.0321C105.84 69.3512 105.573 69.6162 105.254 69.8016C104.637 70.2795 103.889 70.5543 103.111 70.5885L103.036 71.6665ZM100.625 95.8356C101.072 96.1766 101.618 96.3586 102.179 96.3531H102.522L99.9286 93.7443V94.445C99.921 94.7065 99.9754 94.966 100.087 95.2022C100.199 95.4384 100.365 95.6444 100.572 95.8033L100.625 95.8356ZM100.625 102.616C101.254 102.931 101.859 103.292 102.436 103.694C102.83 104.013 103.266 104.275 103.733 104.471H111.169C112.241 104.471 112.808 104.072 112.98 103.252C113.137 102.57 113.223 101.872 113.237 101.172C113.218 100.411 113.132 99.6535 112.98 98.908C112.808 97.9809 112.315 97.5173 111.512 97.5173H111.169C111.481 97.8852 111.741 98.2952 111.94 98.7355L112.551 99.9537V100.299C112.538 100.825 112.352 101.332 112.022 101.741C111.693 102.151 111.239 102.439 110.73 102.562C109.771 102.969 108.748 103.203 107.708 103.252C106.598 103.269 105.5 103.033 104.493 102.562C103.487 102.093 102.389 101.853 101.279 101.862H99.8964L100.625 102.616ZM103.647 74.879C104.678 75.2567 105.764 75.4642 106.861 75.4935C107.405 75.4406 107.934 75.2909 108.426 75.0515C109.13 74.743 109.784 74.3287 110.365 73.8226C110.956 73.3473 111.479 72.7923 111.919 72.1732C112.301 71.6745 112.515 71.0667 112.53 70.4376L111.833 64.1743L110.965 63.4844V71.1275C110.232 71.4768 109.562 71.9468 108.983 72.5182C108.233 73.2189 107.74 73.6824 107.515 73.9088H100.604C101.375 74.1244 102.382 74.4478 103.593 74.9006L103.647 74.879ZM103.818 98.2612L104.943 98.7894V98.4444C104.958 98.2133 104.898 97.9837 104.772 97.7895C104.647 97.5954 104.463 97.447 104.247 97.3664C103.855 97.1647 103.45 96.9883 103.036 96.8382V97.1939C103.033 97.4218 103.102 97.6447 103.233 97.8306C103.364 98.0165 103.55 98.1559 103.765 98.2288L103.818 98.2612ZM114.962 33.936C115.125 34.2247 115.331 34.4865 115.573 34.7121L116.173 35.3266H118.423C119.407 35.3211 120.389 35.2345 121.359 35.0679C121.861 34.9913 122.339 34.8024 122.758 34.515C123.177 34.2277 123.527 33.8493 123.781 33.4077H122.57C122.018 33.4551 121.469 33.5452 120.931 33.6772C120.391 33.8014 119.843 33.8879 119.291 33.936C118.595 33.936 118.22 33.8174 118.22 33.591C118.146 33.2367 118.117 32.8745 118.134 32.513C118.14 30.7937 118.283 29.0778 118.563 27.3816C118.674 26.5414 118.972 25.7373 119.436 25.0298C119.9 24.3222 120.517 23.7294 121.241 23.2959H120.898C120.43 23.3341 119.976 23.4791 119.571 23.7201C119.166 23.961 118.821 24.2916 118.563 24.6866C117.781 25.6686 117.142 26.7576 116.666 27.9206C116.162 29.0733 115.757 30.2671 115.455 31.4889C115.24 32.2283 115.093 32.9861 115.016 33.7527L114.962 33.936Z" fill="#FFD395"/>
</g>
<defs>
<clipPath id="clip0_114_531">
<rect width="145" height="173" fill="white" transform="translate(0.5)"/>
</clipPath>
</defs>
</svg>
