<svg width="161" height="187" viewBox="0 0 161 187" fill="none" xmlns="http://www.w3.org/2000/svg">
<g clip-path="url(#clip0_114_525)">
<path d="M95.7004 174.341L94.1818 173.657C93.7205 173.465 93.3136 173.162 92.9972 172.776C92.5943 172.121 92.4182 171.352 92.4962 170.587C92.4918 167.449 92.7252 164.314 93.1947 161.211C93.6558 158.035 93.8843 154.83 93.878 151.621C93.878 149.251 93.8781 147.199 93.9844 145.542C94.0139 143.596 93.7108 141.658 93.0883 139.813C92.7369 138.059 92.2287 136.34 91.5697 134.677C90.9049 133.046 90.5695 131.301 90.5827 129.54C90.5511 127.033 91.1296 124.555 92.2683 122.321C93.395 120.084 93.9678 117.608 93.9388 115.103C93.9388 113.664 93.9084 112.251 93.8476 110.863C93.7571 109.425 93.3138 108.031 92.5569 106.805L91.3724 105.027C90.8409 104.237 90.2941 103.34 89.7019 102.352C89.1096 101.365 88.5326 100.483 88.0163 99.6929C87.6186 99.1411 87.2872 98.5443 87.0291 97.9149C86.3969 98.309 85.8631 98.8425 85.4684 99.4746C85.0736 100.107 84.8282 100.821 84.7512 101.562C84.4625 103.03 84.2999 104.519 84.2653 106.015C84.2595 107.308 84.5287 108.588 85.055 109.769C85.5713 110.954 86.1331 112.139 86.7254 113.325C87.3176 114.51 87.8796 115.695 88.4111 116.881C88.9461 118.134 89.215 119.485 89.2007 120.847C89.21 124.608 88.4718 128.332 87.0291 131.804C85.5806 135.28 84.8422 139.011 84.8575 142.777C84.8412 144.852 85.2068 146.913 85.9358 148.855C86.6739 150.743 87.0449 152.755 87.0291 154.782C87.0775 155.319 86.995 155.859 86.7887 156.357C86.5824 156.855 86.2585 157.295 85.8447 157.639C85.0307 158.317 84.4909 159.268 84.3261 160.314C84.1066 161.524 83.9746 162.748 83.9312 163.977C83.7945 165.876 83.7338 167.168 83.7338 167.821C83.1555 168.565 82.4017 169.152 81.5402 169.531C80.6787 169.911 79.7365 170.07 78.7983 169.995H73.4528C71.9153 169.99 70.3845 169.791 68.897 169.402C68.1705 169.221 67.5361 168.779 67.1157 168.159C66.6953 167.539 66.5184 166.786 66.6191 166.043C66.5946 164.682 66.9752 163.343 67.7125 162.198C68.4367 161.043 68.8111 159.702 68.7907 158.338V156.819C68.5632 156.142 68.4005 155.445 68.3048 154.737C68.1644 154.054 68.063 153.364 68.0011 152.67C68.0535 150.742 68.525 148.85 69.383 147.123C70.1726 145.603 70.9016 144.205 71.752 142.685C72.5934 141.057 73.3191 139.371 73.9236 137.64C74.6765 135.212 75.0154 132.674 74.9259 130.133C74.9259 129.479 74.85 128.415 74.7133 126.972C74.4413 123.94 73.8144 120.951 72.8454 118.066C72.6228 117.126 72.0872 116.29 71.3268 115.695C69.5159 118.636 68.4041 121.953 68.077 125.391C67.7456 128.806 67.71 132.243 67.9707 135.664C67.7141 135.973 67.4854 136.303 67.2873 136.652C67.0885 137.004 66.8545 137.335 66.5888 137.64C65.8063 138.822 65.1448 140.079 64.6145 141.394C64.111 142.656 63.5173 143.88 62.8378 145.056C62.2117 146.143 61.3309 147.061 60.2714 147.731C58.871 148.469 57.2957 148.811 55.7155 148.719C54.0071 148.684 52.3111 148.418 50.6738 147.928C49.8478 147.67 49.0758 147.263 48.3959 146.728C48.089 146.499 47.8409 146.201 47.672 145.857C47.503 145.514 47.418 145.135 47.424 144.752C47.4116 144.16 47.5434 143.574 47.8079 143.045C48.0725 142.515 48.462 142.058 48.9426 141.713C49.8604 141.026 50.5231 140.053 50.8257 138.947C51.0452 138.174 51.1777 137.379 51.2205 136.576C51.2503 135.772 51.3829 134.976 51.6153 134.205C52.2445 132.151 53.2092 130.215 54.4703 128.476C55.7519 126.701 56.6611 124.685 57.143 122.549C56.8697 119.115 56.7482 115.695 56.7482 112.261C56.7454 108.813 57.076 105.372 57.7353 101.988C57.8568 101.593 58.0239 100.969 58.2213 100.103C58.4187 99.237 58.6161 98.3252 58.8136 97.3374C59.011 96.3496 59.2083 95.4681 59.4057 94.6627C59.5535 94.1665 59.6552 93.6578 59.7095 93.143C59.831 92.8846 60.1043 92.2919 60.4992 91.3649C60.7851 90.8055 60.9848 90.206 61.0915 89.5868C60.8181 87.4897 60.6359 86.1068 60.4992 85.4381C59.5678 80.96 58.8085 76.4465 58.2213 71.8975C57.6299 67.3638 57.4672 62.7844 57.7353 58.2201C56.8445 56.865 55.4608 55.9109 53.8781 55.5606C52.3204 55.0287 50.6935 54.7266 49.0489 54.664C48.5962 54.6272 48.1424 54.7189 47.7394 54.9286C47.3365 55.1383 47.0008 55.4574 46.7709 55.8494C46.2663 56.7473 45.8978 57.7152 45.6776 58.7216C45.4194 59.831 45.222 60.9252 45.0853 61.9738C45.0071 62.772 44.8751 63.5641 44.6905 64.3445C44.6179 64.6945 44.4843 65.0289 44.2957 65.3323C43.9876 65.8485 43.7186 66.3869 43.4908 66.9432C43.2934 67.6119 43.0959 68.2046 42.8985 68.7365C42.7571 69.052 42.6551 69.3838 42.5948 69.7243C42.4581 69.8458 42.5948 70.2866 42.7922 71.0009C42.9714 71.4154 43.1038 71.8486 43.1871 72.2926V73.8123C43.1031 75.3972 42.4361 76.895 41.3147 78.0173C40.1932 79.1396 38.6964 79.807 37.1127 79.8911H36.323C35.9282 79.6439 35.4902 79.4738 35.0322 79.3896C34.6159 79.2573 34.1892 79.1607 33.7566 79.1009C32.8193 79.2583 31.8953 79.4869 30.9927 79.7848C30.0917 80.0918 29.1674 80.3256 28.2289 80.4838C26.8272 80.5489 25.4517 80.0883 24.3716 79.1921C23.2143 78.4067 22.1891 77.4424 21.3343 76.335C20.9427 75.8008 20.6629 75.193 20.5116 74.548C20.3602 73.903 20.3405 73.2341 20.4536 72.5813C20.6327 71.3379 20.7291 70.0839 20.7422 68.8276C20.5453 67.7117 20.4134 66.5852 20.3473 65.4539C20.2831 64.262 20.1513 63.0747 19.9525 61.8978C19.7358 60.1509 19.0185 58.5042 17.8872 57.1563C16.7562 55.8066 16.0344 54.1615 15.8067 52.4148V46.336C15.6217 45.4599 15.2878 44.622 14.8196 43.8589C14.4247 43.2662 14.0602 42.7039 13.7413 42.172C13.3978 41.64 13.0982 41.0809 12.8454 40.5003C12.5502 39.7092 12.4159 38.867 12.4506 38.0232C12.4242 36.0591 12.7963 34.1101 13.544 32.2939C14.2693 30.5407 14.6358 28.6596 14.6221 26.7621V25.2424C14.6549 24.7279 14.5879 24.2118 14.4247 23.7227C14.2896 23.3926 14.0577 23.1113 13.7594 22.9159C13.4612 22.7206 13.1107 22.6204 12.7543 22.6285C12.1803 22.6265 11.6107 22.5289 11.0687 22.3398C8.02609 21.2229 5.39529 19.2056 3.52626 16.5561C1.65722 13.9066 0.638494 10.7505 0.605469 7.50748C2.00749 7.5209 3.40153 7.72017 4.75123 8.10015C6.26983 8.49527 7.60626 8.9208 8.98819 9.39191C10.3701 9.86302 11.7672 10.2429 13.1491 10.5773C14.4719 10.9098 15.8522 10.941 17.1886 10.6685L22.1392 15.4099V16.2154C20.2849 14.4251 17.9454 13.2202 15.4118 12.7504C13.4377 12.5529 10.856 12.4465 7.90995 12.4465C7.8396 13.6668 8.15288 14.8785 8.80587 15.9115C9.1052 16.4685 9.28545 17.0818 9.33512 17.7123C9.38479 18.3428 9.30281 18.9768 9.09441 19.5739C10.4484 20.4496 11.9597 21.0535 13.544 21.352C15.1267 21.6396 16.635 22.2444 17.9783 23.1301C17.8568 23.1301 17.6897 23.2972 17.4923 23.6163C17.3146 23.8836 17.2099 24.1927 17.1886 24.513C17.2784 24.9503 17.4107 25.3779 17.5834 25.7896C17.7626 26.2041 17.895 26.6374 17.9783 27.0813V35.3789L17.1886 36.7619L14.4247 34.7862V39.1326C14.4295 39.7958 14.4955 40.4572 14.6221 41.1082C14.7457 41.7536 15.0159 42.362 15.4118 42.8863C15.5829 43.1315 15.8099 43.3324 16.0739 43.4725C16.338 43.6125 16.6316 43.6877 16.9305 43.6917H17.1279C17.3074 43.4892 17.442 43.2509 17.5227 42.9926C17.616 42.7399 17.7492 42.5038 17.9175 42.2936L19.102 38.3423C19.4465 37.378 19.7106 36.3868 19.8917 35.3789C20.0284 33.6768 20.1195 32.3395 20.1954 31.2301C20.2713 30.1207 20.3624 29.0569 20.4839 27.8716C20.5999 26.9539 20.6658 26.0305 20.6814 25.1057C20.6572 24.5365 20.7239 23.967 20.8788 23.4188C21.0155 23.0996 21.4711 22.9325 22.2608 22.9325C22.6556 22.9325 23.4453 23.8443 24.645 25.6983C25.8447 27.5524 27.1051 29.6192 28.487 31.9291C29.8689 34.2391 31.0839 36.4883 32.1469 38.5399C32.8834 39.8272 33.3968 41.2299 33.6655 42.6887V42.8863C32.9164 45.3481 32.3529 47.8626 31.9798 50.4088C31.6465 52.9634 31.4841 55.5375 31.4938 58.1137V62.8552L32.2835 62.065V55.9861C32.2835 55.8494 32.6176 55.4694 33.2706 54.8008C33.8267 54.2533 34.4204 53.7455 35.0474 53.2811C35.9737 52.6276 36.5659 52.3237 36.7178 52.3844C36.9062 52.4455 37.0778 52.5495 37.219 52.6884C37.3556 52.8251 37.5531 52.6884 37.8112 52.4908C38.0694 52.2932 38.7376 51.3662 39.7854 49.9225C40.232 49.4032 40.5679 48.7982 40.7725 48.1444C40.7725 47.8709 41.2281 47.7493 42.1544 47.7493C42.6859 47.7493 43.0201 47.7493 43.1416 47.9469C43.4167 48.5897 43.65 49.2496 43.8401 49.9225C44.0306 50.5933 44.2588 51.2529 44.5234 51.8981C44.5082 52.0054 44.5182 52.1149 44.5525 52.2177C44.5869 52.3205 44.6446 52.4139 44.7211 52.4905C44.7977 52.5672 44.8911 52.6249 44.9938 52.6593C45.0966 52.6936 45.2059 52.7036 45.3131 52.6884C45.9694 52.2227 46.4964 51.5975 46.8444 50.8716C47.1925 50.1458 47.3502 49.3433 47.3025 48.5396V43.6005C47.3025 43.1902 47.3025 42.4456 47.0899 41.321C46.9614 40.1553 46.7636 38.9982 46.4976 37.856C46.2394 36.6706 45.9813 35.622 45.708 34.695C45.4347 33.768 45.1916 33.3121 44.9183 33.3121L44.5234 33.5097C43.8251 34.8251 42.9683 36.05 41.9722 37.1569C40.8548 38.2461 39.6677 39.2614 38.4186 40.1964C36.9124 39.1547 35.4627 38.0336 34.0754 36.8378C33.0956 36.0052 32.2323 35.0442 31.509 33.9808C30.8042 32.9235 30.2902 31.7508 29.9904 30.5158C29.6715 29.1937 29.2312 27.4764 28.7148 25.1816C28.4724 24.183 28.0336 23.2428 27.424 22.4158C26.8371 21.6145 26.5279 20.6433 26.5432 19.6499C27.7401 19.6022 28.9075 20.028 29.793 20.8353C30.6749 21.6563 31.4094 22.6227 31.9646 23.6924C32.5598 24.8111 32.9944 26.0083 33.2554 27.2485C33.5025 28.3873 33.6348 29.5481 33.6503 30.7134V31.9899C33.5136 31.9899 33.2554 32.1875 32.8606 32.5827C32.8504 33.1493 32.9695 33.7107 33.209 34.2243C33.4485 34.7378 33.8019 35.1899 34.2425 35.5461C35.0968 36.2937 36.0226 36.9554 37.0063 37.5217C37.6774 36.8918 38.1966 36.1175 38.5249 35.2573C39.0565 34.1327 39.5424 32.9777 40.0435 31.7924C40.5447 30.607 40.9548 29.5128 41.4255 28.525C41.8963 27.5372 42.443 27.0053 43.096 27.0053C43.9525 27.0356 44.766 27.3884 45.3739 27.9931C46.1305 28.6882 46.8218 29.4512 47.4391 30.2727C48.0946 31.1173 48.6312 32.0479 49.0337 33.0385C49.4286 34.0264 49.7474 34.7862 50.0056 35.3029C50.3624 34.9021 50.6314 34.431 50.7953 33.92C51.0686 33.2665 51.2661 32.8106 51.4028 32.537C51.5095 31.6696 51.2932 30.7932 50.7953 30.0751C49.7204 28.2737 48.4302 26.61 46.9533 25.1209C46.4363 24.5666 45.8722 24.0581 45.2675 23.6012H44.4779C43.6236 23.6214 42.8111 23.9761 42.2151 24.589C41.4873 25.2467 40.826 25.9746 40.241 26.7621C39.6487 27.5524 39.0565 28.2818 38.4642 28.9353C38.2384 29.2243 37.9537 29.4619 37.629 29.6322C37.3043 29.8026 36.9471 29.9018 36.5812 29.9232C36.4445 29.9232 36.0496 29.3001 35.3966 28.0387C34.7436 26.7773 34.0147 25.3792 33.225 23.7987C32.4354 22.2182 31.5698 20.6681 30.6586 19.1484C30.0187 17.9711 29.1454 16.9368 28.0921 16.109C27.5657 15.7037 26.776 15.1263 25.7231 14.3765C24.6601 13.6471 23.6123 12.8568 22.5493 12.0514C21.4863 11.2459 20.5144 10.5317 19.5121 9.92381C18.9372 9.46488 18.2598 9.15202 17.5378 9.01198C17.5378 7.93299 18.1605 7.32509 19.421 7.18831C20.6814 7.05154 21.4863 6.99074 21.8963 6.99074C21.7634 6.58905 21.7204 6.16304 21.7703 5.74286C21.8201 5.32268 21.9616 4.91863 22.1848 4.55925C22.3467 4.19738 22.6085 3.88927 22.9394 3.67121C23.2703 3.45314 23.6565 3.33419 24.0527 3.32829C24.5204 3.32811 24.9875 3.36364 25.4498 3.43463C25.9094 3.54318 26.3237 3.79294 26.6343 4.1489C26.4977 4.1489 26.361 4.2553 26.2395 4.45286C26.118 4.65042 25.9661 4.75677 25.8446 4.75677V5.56221C27.1918 7.9424 28.3789 10.4098 29.3981 12.948C29.8458 14.1819 30.5808 15.2913 31.542 16.1845C32.5032 17.0778 33.6631 17.7291 34.9259 18.0846C36.7033 16.2596 38.1112 14.1076 39.0717 11.7474C40.1026 9.35566 40.5101 6.74124 40.2562 4.1489L41.0459 3.32829H41.6382C41.8492 3.52823 42.0837 3.70173 42.3367 3.84498C42.5401 3.99407 42.7731 4.0977 43.02 4.1489C43.2934 4.1489 43.9768 4.14889 45.1005 4.04251C45.7945 3.94532 46.5006 3.98144 47.181 4.1489C47.3025 4.1489 47.5303 4.34645 47.8644 4.75677C48.1985 5.16709 48.4263 5.42544 48.5478 5.56221H49.1552C50.211 5.56024 51.2422 5.24276 52.1165 4.65043C53.0276 4.04254 53.954 3.40424 54.8803 2.72037C55.8067 2.0365 56.7178 1.41345 57.6442 0.80557C58.5382 0.194971 59.5992 -0.123573 60.6814 -0.106264H60.8788C61.1602 0.18087 61.4594 0.449888 61.7748 0.699179C62.0937 0.972726 62.2607 1.17028 62.2607 1.30705V6.38287C62.3985 6.3763 62.5332 6.34 62.6556 6.27648C62.778 6.21296 62.9127 6.17671 63.0504 6.17013C63.2654 6.3653 63.4995 6.53839 63.749 6.68683C63.9509 6.83852 64.1845 6.94241 64.4323 6.99074C64.8271 6.58549 65.0246 6.31197 65.0246 6.17013H65.4194C65.951 6.17013 66.2395 6.38288 66.3155 6.77801C66.3754 7.1805 66.4059 7.58682 66.4066 7.99376C66.3662 9.51007 65.8331 10.9719 64.888 12.1578C63.8143 13.7227 63.2811 15.5958 63.3694 17.4919H69.8841V16.7929C69.8025 15.4017 69.6403 14.0164 69.3982 12.6441C69.0641 10.5469 68.8363 9.16396 68.6996 8.49529L67.5151 9.10316V7.08192C68.1548 7.17528 68.7673 7.40382 69.3119 7.75231C69.8565 8.1008 70.3208 8.56128 70.6738 9.10316C70.6738 8.73638 70.8194 8.38463 71.0785 8.12528C71.3377 7.86593 71.6892 7.72022 72.0557 7.72022C72.4222 7.72022 72.7738 7.86593 73.0329 8.12528C73.2921 8.38463 73.4376 8.73638 73.4376 9.10316C73.5743 8.55606 73.8325 8.29772 74.2273 8.29772H75.3815C75.8521 8.3218 76.3197 8.38792 76.7786 8.49529C77.0246 8.54906 77.2572 8.65245 77.462 8.7992C77.6703 8.94944 77.9086 9.05311 78.1605 9.10316C78.3695 9.07906 78.5711 9.01178 78.7527 8.90559C79.0109 8.76882 79.1476 8.63206 79.1476 8.49529V10.9268H76.7483C76.4685 11.6508 76.2351 12.3919 76.0497 13.1456C75.8685 13.9055 75.6351 14.6519 75.3511 15.3796C75.3555 15.6512 75.3912 15.9215 75.4574 16.185C75.5112 16.384 75.5468 16.5874 75.5637 16.7929H81.4559C81.3192 16.3978 81.0914 15.4859 80.7573 14.0726C80.524 13.1749 80.3615 12.2603 80.2713 11.3371C80.1084 11.0965 80.0384 10.8049 80.074 10.5165C80.074 9.8478 80.2713 9.4375 80.6662 9.30073C81.159 9.15621 81.6714 9.08954 82.1848 9.10316H83.1719C83.4066 9.09275 83.6368 9.16908 83.8189 9.31761C84.0009 9.46614 84.122 9.6765 84.159 9.9086L84.9487 9.10316H85.5409C85.9196 9.28279 86.3168 9.42037 86.7254 9.51346C87.0786 9.5739 87.4151 9.70858 87.7125 9.9086C87.8492 9.9086 88.0314 10.1214 88.3048 10.5165C88.0314 11.2003 87.8492 11.6715 87.7125 11.945C87.5758 12.2186 87.2114 12.8113 86.6192 13.7687C86.2871 14.3235 85.9272 14.8611 85.5409 15.3796V16.2002C86.1843 15.7786 86.7075 15.1975 87.0595 14.5133C87.4544 13.7839 87.8795 13.0696 88.3503 12.3401C88.7618 11.6726 89.274 11.0728 89.8689 10.5621C90.4147 10.0872 91.1204 9.83738 91.8432 9.86301V10.714L89.0793 16.261C91.7078 15.9789 94.3661 16.2481 96.8848 17.0512C99.3442 17.8527 101.7 18.9444 103.901 20.3034C106.148 21.6949 108.289 23.2492 110.309 24.9537C112.334 26.676 114.359 28.3224 116.384 29.8927C121.313 33.5508 125.305 38.3268 128.031 43.8285C130.545 49.5713 131.763 55.7976 131.6 62.065C131.6 66.153 131.403 70.3473 131.008 74.6177C130.652 78.7993 129.149 82.8013 126.665 86.1827C131.129 86.3144 135.473 86.6437 139.694 87.1705C143.986 87.7403 148.026 89.5221 151.342 92.3071C152.008 92.8332 152.579 93.4707 153.028 94.1916C153.347 94.7842 153.681 95.3466 154.015 95.8785C154.368 96.4456 154.803 96.9576 155.306 97.3982C155.997 97.9458 156.809 98.3209 157.675 98.4924V99.2826C157.28 99.6777 157.006 99.8753 156.885 99.8753C157.538 100.666 158.297 101.653 159.148 102.839C159.945 103.856 160.397 105.102 160.438 106.395C160.39 108.01 159.913 109.584 159.056 110.954V119.844C159.056 120.255 158.889 120.482 158.555 120.543C158.265 120.604 157.971 120.64 157.675 120.65C157.537 120.645 157.401 120.609 157.28 120.543C157.156 120.486 157.021 120.455 156.885 120.452C156.49 119.388 155.928 118.036 155.199 116.395C154.484 114.759 153.657 113.175 152.724 111.653C151.857 110.197 150.839 108.837 149.687 107.595C148.727 106.502 147.446 105.741 146.027 105.422C146.027 105.681 146.027 106.212 145.936 106.942C145.845 107.671 145.769 108.553 145.632 109.419C145.505 110.248 145.238 111.05 144.842 111.79C144.712 112.092 144.502 112.352 144.234 112.542C143.966 112.733 143.651 112.845 143.324 112.869H142.534C142.718 110.81 142.47 108.735 141.806 106.777C141.142 104.82 140.076 103.022 138.677 101.501C137.382 100.083 135.924 98.8228 134.334 97.7477C132.582 96.5685 130.773 95.478 128.912 94.4803C128.437 94.2104 127.976 93.9163 127.53 93.5989C127.315 93.4478 127.112 93.2801 126.923 93.0974C126.764 92.9583 126.557 92.8873 126.346 92.8998H124.827C123.408 92.897 122.032 93.3917 120.94 94.298C119.729 95.2623 118.7 96.4358 117.902 97.7629C117.045 99.1275 116.347 100.586 115.822 102.109C115.334 103.408 115.068 104.78 115.032 106.167C115.036 110.098 115.269 114.025 115.731 117.929C116.176 121.892 117.136 125.78 118.586 129.494C119.399 131.537 120.417 133.492 121.623 135.33C122.81 137.252 123.392 139.486 123.293 141.743C123.31 143.887 123.013 146.022 122.413 148.08C121.803 150.264 121.633 152.547 121.911 154.798C121.246 155.718 120.39 156.485 119.402 157.046C118.414 157.608 117.318 157.95 116.186 158.05L109.672 158.946V159.539C109.793 159.797 110.127 160.724 110.659 162.305C110.941 163.243 111.27 164.166 111.646 165.071V166.454C111.663 167.041 111.527 167.622 111.251 168.141C110.97 168.651 110.833 169.229 110.856 169.812C110.855 169.949 110.886 170.085 110.947 170.207C111.015 170.328 111.052 170.464 111.053 170.602C111.76 171.178 112.42 171.808 113.028 172.487C113.838 173.366 114.598 174.289 115.306 175.253C115.993 176.198 116.617 177.188 117.173 178.216C117.652 179.029 117.923 179.948 117.963 180.891C117.975 181.457 117.842 182.017 117.576 182.518C117.31 183.018 116.921 183.441 116.444 183.748C115.278 184.531 114.018 185.165 112.694 185.632C111.289 186.152 109.833 186.518 108.35 186.727C107.239 186.894 106.118 186.99 104.994 187.015C101.031 187.015 98.7072 186.058 97.9783 184.143C97.1763 181.491 96.9383 178.701 97.2797 175.952C96.8965 175.291 96.3534 174.737 95.7004 174.341ZM19.0564 55.4542C19.974 57.0595 20.9882 58.6074 22.0936 60.0893V57.7186C22.0602 55.8065 21.7587 53.9086 21.1977 52.0805C20.988 51.1813 20.5881 50.3375 20.0248 49.6061C19.4616 48.8747 18.7482 48.2726 17.9327 47.8405C17.9327 47.9621 17.9327 48.3268 17.8416 48.9195C17.7812 49.3477 17.7456 49.7789 17.7353 50.2112C17.7212 52.0431 18.176 53.8481 19.0564 55.4542ZM21.137 45.1658C21.4711 46.1536 21.8203 47.1718 22.2152 48.2052C22.61 49.2386 22.9745 50.272 23.3086 51.2447C23.4992 51.8877 23.7325 52.5172 24.0071 53.1291C24.6052 55.0537 24.9673 57.0439 25.0853 59.0559C25.0853 60.7732 25.2524 62.9464 25.3891 65.5755L27.3632 64.7852C27.3111 60.6642 27.9107 56.561 29.14 52.6276C30.3226 49.0227 30.9224 45.2519 30.9167 41.4577C30.8095 40.5039 30.4707 39.5909 29.9297 38.7983C29.2094 37.5973 28.4183 36.4403 27.5607 35.3333C26.6343 34.1479 25.7839 33.1297 24.9942 32.2939C24.2046 31.4581 23.6731 30.8806 23.3997 30.607C22.4728 32.5128 21.9064 34.5738 21.7292 36.6858C21.5604 38.7425 21.1943 40.7782 20.6358 42.7647V43.175C20.7217 43.8564 20.89 44.525 21.137 45.1658ZM21.6229 74.1315C21.6179 74.1859 21.6252 74.2408 21.6443 74.2921C21.6634 74.3433 21.6936 74.3897 21.733 74.4276C21.7724 74.4656 21.8198 74.4942 21.8718 74.5113C21.9237 74.5284 21.9787 74.5336 22.0329 74.5265C22.5493 74.253 22.5493 73.9947 22.0329 73.7363C21.7596 73.7363 21.6229 73.8579 21.6229 74.1315ZM26.5735 77.1709C27.4847 77.1101 28.4718 77.0797 29.5348 77.0797C30.5827 77.0797 31.5394 77.0797 32.3898 77.1709C33.2402 77.262 33.9084 77.2772 34.2729 77.2772C34.6124 77.3331 34.9439 77.4301 35.26 77.566C35.5753 77.7075 35.9068 77.8096 36.247 77.8699H37.0367C37.7237 77.7863 38.3914 77.5859 39.0109 77.2772C39.9373 76.8821 40.3929 76.4262 40.3929 75.8943V71.1528C40.3929 70.8792 39.9069 70.4233 38.8743 69.7699C37.7628 69.0345 36.6064 68.3696 35.4118 67.779C34.0906 67.1256 32.8454 66.5633 31.6609 66.1074C30.9077 65.7649 30.1103 65.5296 29.2919 65.4083C28.2631 65.3972 27.2708 65.79 26.528 66.5025C25.8443 67.1809 24.9244 67.5677 23.9616 67.5815C23.6657 67.5999 23.3716 67.5247 23.1208 67.3665C22.8701 67.2083 22.6754 66.9751 22.5644 66.7001C22.2996 66.0965 22.1061 65.4641 21.9874 64.8156C21.9678 65.0508 21.9323 65.2843 21.8811 65.5147C21.8314 65.7402 21.7959 65.9686 21.7748 66.1986C21.7593 67.2159 21.8305 68.2327 21.9874 69.238C22.1089 70.0282 22.3062 71.0768 22.5644 72.399C23.646 72.3035 24.7348 72.4704 25.7383 72.8853C26.2954 73.0301 26.8059 73.3158 27.2208 73.715C27.6357 74.1142 27.9409 74.6135 28.1073 75.1648H22.3822C22.3617 75.4478 22.4259 75.7304 22.5665 75.9767C22.7072 76.223 22.9179 76.4218 23.1719 76.5478C23.6882 76.8061 24.1438 77.0797 24.5539 77.338C24.9943 77.2924 25.6472 77.262 26.5735 77.186V77.1709ZM22.2304 8.10015C22.2304 8.49527 22.3671 8.69285 22.6252 8.69285C22.7065 8.70526 22.7896 8.69862 22.8679 8.67347C22.9462 8.64831 23.0175 8.60532 23.0764 8.54788C23.1353 8.49043 23.18 8.42006 23.2071 8.34238C23.2342 8.26469 23.2429 8.18178 23.2326 8.10015C23.2326 7.58345 23.0201 7.30992 22.6252 7.30992C22.2304 7.30992 22.2304 7.58345 22.2304 8.10015ZM22.2304 10.0757C22.2304 10.4709 22.3671 10.6685 22.6252 10.6685C22.7065 10.6809 22.7896 10.6742 22.8679 10.6491C22.9462 10.6239 23.0175 10.5809 23.0764 10.5235C23.1353 10.466 23.18 10.3957 23.2071 10.318C23.2342 10.2403 23.2429 10.1574 23.2326 10.0757C23.2326 9.55905 23.0201 9.28552 22.6252 9.28552C22.2304 9.28552 22.2304 9.55905 22.2304 10.0757ZM23.4149 39.5277C23.9095 38.4443 24.3108 37.3207 24.6146 36.1691H25.4043C25.5258 36.1691 25.8294 36.6706 26.285 37.6889C26.7406 38.7071 27.1051 39.4973 27.3784 40.1508C27.8642 41.4186 28.1312 42.7599 28.1681 44.1172V45.105C28.0314 45.5002 27.8037 46.4879 27.4696 48.0684C27.1355 49.6489 26.9077 50.6976 26.7862 51.2295H26.3913C26.0382 51.2148 25.6955 51.1055 25.399 50.913C25.1025 50.7205 24.8631 50.4519 24.7057 50.1353C24.2291 49.3712 23.8658 48.5419 23.6275 47.6733C23.3541 46.7463 23.1264 45.8193 22.929 44.9075C22.7675 44.2545 22.6658 43.5881 22.6252 42.9166C22.655 41.7662 22.9185 40.6338 23.3997 39.5885L23.4149 39.5277ZM22.8378 5.33427C22.8378 5.72939 23.0201 5.92698 23.4149 5.92698C23.8098 5.92698 23.8097 5.72939 23.8097 5.33427C23.8097 4.93914 23.6883 4.54404 23.4149 4.54404C23.1416 4.54404 22.8226 4.80237 22.8226 5.33427H22.8378ZM22.8378 10.866C22.8378 11.2611 23.0201 11.4587 23.4149 11.4587C23.8098 11.4587 23.8097 11.2611 23.8097 10.866C23.8097 10.4709 23.6883 10.0757 23.4149 10.0757C23.1416 10.0757 22.8226 10.3493 22.8226 10.866H22.8378ZM25.6016 8.10015C25.6016 8.49527 25.7231 8.69285 25.9965 8.69285C26.0772 8.70595 26.1599 8.69964 26.2377 8.67449C26.3156 8.64933 26.3863 8.60603 26.4442 8.54816C26.502 8.49028 26.5453 8.41948 26.5704 8.34159C26.5955 8.2637 26.6018 8.18094 26.5887 8.10015C26.5887 7.58345 26.3913 7.30992 25.9965 7.30992C25.6016 7.30992 25.5865 7.58345 25.5865 8.10015H25.6016ZM26.1939 9.48309C26.1808 9.56388 26.1871 9.64664 26.2122 9.72453C26.2374 9.80242 26.2807 9.87322 26.3385 9.9311C26.3963 9.98897 26.4671 10.0323 26.5449 10.0574C26.6227 10.0826 26.7054 10.0888 26.7862 10.0757C27.0443 10.0757 27.181 9.87821 27.181 9.48309C27.181 9.08796 27.0443 8.69285 26.7862 8.69285C26.528 8.69285 26.1787 8.96638 26.1787 9.48309H26.1939ZM26.9836 10.866C26.9836 11.2611 27.1051 11.4587 27.3784 11.4587C27.4592 11.4718 27.5419 11.4655 27.6197 11.4404C27.6975 11.4152 27.7683 11.3719 27.8261 11.314C27.884 11.2562 27.9272 11.1854 27.9524 11.1075C27.9775 11.0296 27.9838 10.9468 27.9707 10.866C27.9707 10.3493 27.7733 10.0757 27.3784 10.0757C26.9836 10.0757 26.9684 10.3493 26.9684 10.866H26.9836ZM32.5113 12.3857C32.3784 11.4161 32.1805 10.4565 31.9191 9.51346C31.6614 8.61566 31.2941 7.75305 30.8256 6.94515C30.3507 6.14183 29.625 5.51709 28.7603 5.16712C28.9958 5.06081 29.2003 4.89615 29.3544 4.68874C29.5085 4.48132 29.6072 4.23799 29.6412 3.98175C29.6412 3.46505 30.0663 3.19148 30.7345 3.19148C31.1219 3.15338 31.5106 3.25066 31.8344 3.46673C32.1583 3.6828 32.3975 4.00435 32.5113 4.37685C32.7695 5.16709 33.0428 5.89659 33.3009 6.55006V3.11551L35.67 5.09111L37.6442 3.11551C38.1018 3.31812 38.4896 3.6509 38.7596 4.07242C39.0296 4.49395 39.1699 4.9856 39.1628 5.48625C38.8372 5.46584 38.5137 5.55089 38.2402 5.7288C37.9667 5.90671 37.7578 6.16801 37.6442 6.47405L36.9456 7.85699C36.4937 8.98247 36.1281 10.1408 35.8522 11.3219C35.3966 13.1 35.1081 14.255 34.9715 14.7717C34.8348 15.2884 34.6981 15.3643 34.1818 15.3643C33.9231 15.3658 33.6669 15.314 33.4291 15.212C33.1914 15.11 32.9772 14.9602 32.7999 14.7717C32.7543 14.1638 32.6328 13.3431 32.4961 12.3553L32.5113 12.3857ZM28.9578 59.4967C28.9447 59.5775 28.951 59.6602 28.9761 59.7381C29.0013 59.816 29.0445 59.8868 29.1024 59.9447C29.1602 60.0025 29.2309 60.0458 29.3088 60.071C29.3866 60.0962 29.4693 60.1024 29.55 60.0893C29.8082 60.0893 29.9449 59.8918 29.9449 59.4967C29.9449 59.1015 29.8082 58.7064 29.55 58.7064C29.2919 58.7064 28.9426 58.98 28.9426 59.4967H28.9578ZM33.6958 47.0503L37.6442 42.8863H38.039C38.692 42.8863 39.2843 44.2844 39.8158 47.0503V47.4454C39.5631 48.4545 39.0377 49.3746 38.2972 50.1049C37.2494 51.3662 36.3838 51.9893 35.7308 51.9893C35.2823 52.0245 34.8375 51.8866 34.4874 51.604C34.1372 51.3215 33.9084 50.9156 33.8477 50.4696C33.6744 49.5573 33.5779 48.6321 33.5592 47.7037C33.4832 47.187 33.5439 47.0503 33.6806 47.0503H33.6958ZM37.6442 72.3534C37.8031 72.4951 37.9704 72.6271 38.1453 72.7485C38.2231 72.7842 38.2905 72.8393 38.341 72.9085C38.3916 72.9776 38.4235 73.0586 38.4338 73.1436V73.7363C38.1757 74.6481 37.9024 75.1193 37.6442 75.1193H33.8932C33.91 74.387 34.1904 73.6854 34.6829 73.1436C35.0828 72.5777 35.601 72.1059 36.2015 71.7607C36.4678 71.7528 36.7327 71.8016 36.9788 71.9037C37.2249 72.0059 37.4465 72.1591 37.629 72.3534H37.6442ZM34.6829 61.7154C34.4109 63.3475 34.2788 64.9999 34.2881 66.6545C34.553 66.6508 34.8101 66.5637 35.0227 66.4054C35.2354 66.2472 35.3927 66.0259 35.4725 65.7731C35.7356 65.1675 35.9341 64.5358 36.0648 63.8886C36.1914 63.2376 36.2575 62.5762 36.2622 61.913V60.8644C36.7903 60.7857 37.285 60.5581 37.6884 60.2082C38.0919 59.8583 38.3873 59.4006 38.5401 58.8888C38.6528 58.434 38.9211 58.033 39.2983 57.7554C39.6756 57.4778 40.138 57.3411 40.6054 57.3691C41.5318 57.3691 42.1241 58.0985 42.5797 59.5423C42.6308 59.2952 42.7343 59.0619 42.8833 58.8584C43.0311 58.6502 43.1298 58.4112 43.1719 58.1593V57.3691C43.0343 56.9135 42.8351 56.4788 42.5797 56.0773C42.1848 55.3631 41.9267 54.8616 41.79 54.5576V53.9649C40.6673 54.4615 39.6071 55.089 38.6313 55.8342C37.6068 56.5952 36.3525 56.9814 35.0778 56.9284C35.0695 58.5173 34.9324 60.103 34.6677 61.6698L34.6829 61.7154ZM35.0778 48.4788H35.67V47.8861H35.0778V48.4788ZM36.2622 19.6043C36.6133 20.0123 36.9428 20.4384 37.2494 20.8809C37.6102 21.4131 38.0059 21.9208 38.4338 22.4006C38.8287 22.7957 39.0261 23.0541 39.0261 23.1908H39.8158C40.2568 22.9982 40.7215 22.8653 41.1977 22.7957C41.6728 22.7211 42.1369 22.5884 42.5797 22.4006L43.4756 17.9479C43.5991 17.1145 43.9396 16.3284 44.4627 15.6683C44.7157 15.3962 45.0209 15.1778 45.3601 15.0264C45.6993 14.8749 46.0655 14.7935 46.4369 14.7868C47.2873 14.7868 48.6388 14.6805 50.4763 14.6805C50.4906 15.5547 50.2535 16.4145 49.793 17.1576C49.3375 17.887 48.8666 18.5709 48.4111 19.2396C47.9555 19.9083 47.4848 20.5466 47.0292 21.2152C46.548 21.9099 46.303 22.7412 46.3306 23.586C47.7671 23.5565 49.1807 23.2197 50.4763 22.5982C51.9047 21.958 53.2384 21.1245 54.44 20.121C55.5969 19.158 56.565 17.9883 57.2949 16.6713C58.0113 15.4006 58.3879 13.9663 58.3883 12.5073C58.3883 9.08795 56.733 7.37067 53.4528 7.37067C51.4719 7.33071 49.4989 7.6341 47.6214 8.26734C46.0127 8.83687 44.5093 9.66873 43.1719 10.7293C41.8455 11.8037 40.6525 13.0333 39.6184 14.3918C38.5705 15.7747 37.4468 17.3248 36.2622 19.0421V19.6347V19.6043ZM39.4058 68.4629C39.9423 68.4629 40.3372 67.9564 40.5903 66.9432C40.7397 66.2712 40.9376 65.611 41.1825 64.9676V64.3749C40.9882 63.8344 40.8557 63.2736 40.7876 62.7032C40.7737 62.3627 40.6764 62.0308 40.5043 61.7367C40.3322 61.4425 40.0905 61.1952 39.8006 61.0164C38.7528 61.2899 38.282 62.141 38.282 63.5847C38.282 65.0284 38.3731 66.229 38.3731 67.1408C38.3731 68.0526 38.7528 68.4629 39.4058 68.4629ZM40.5903 5.39507C40.5772 5.47587 40.5834 5.55862 40.6086 5.63651C40.6337 5.7144 40.677 5.7852 40.7348 5.84308C40.7926 5.90096 40.8634 5.94426 40.9412 5.96941C41.0191 5.99457 41.1018 6.00087 41.1825 5.98778C41.4558 5.98778 41.5774 5.79019 41.5774 5.39507C41.5774 4.99995 41.4558 4.60484 41.1825 4.60484C40.9091 4.60484 40.5903 4.80237 40.5903 5.33427V5.39507ZM45.4347 17.6591C44.8532 19.0348 44.5487 20.5118 44.5386 22.0055C45.6017 22.0055 46.6799 21.1848 47.8037 19.5283C48.7135 18.2687 49.4729 16.907 50.0664 15.4707H48.6844C47.9856 15.4255 47.291 15.6085 46.705 15.9922C46.1189 16.3758 45.6732 16.9394 45.4347 17.5983V17.6591ZM51.5091 40.8802C51.2357 42.1264 50.9775 43.4486 50.7194 44.8315C50.4612 46.2144 50.1878 47.5061 49.9297 48.6915L49.3374 51.2598V52.6428H51.5091C51.6162 49.7838 51.9821 46.9404 52.6024 44.1476C53.2337 41.3773 54.2563 38.7113 55.6396 36.2299C56.4293 34.7102 57.0823 33.2969 57.6138 32.1875C58.1247 31.0973 58.5512 29.9694 58.8895 28.8138C59.2313 27.6525 59.4651 26.462 59.588 25.2577C59.7094 24.0115 59.7854 22.5982 59.7854 21.0177V19.0421C59.841 18.5717 59.7729 18.095 59.588 17.6591L58.9958 16.8688L56.2319 21.0177C56.0106 21.468 55.8129 21.9296 55.6396 22.4006L57.6138 27.1421C57.7416 27.4062 57.799 27.699 57.7804 27.9919C57.7617 28.2848 57.6677 28.5679 57.5075 28.8138C57.1492 29.4565 56.7215 30.0578 56.2319 30.607C55.7055 31.1946 55.1436 31.7873 54.5463 32.3851C54.0426 32.8346 53.6699 33.4123 53.468 34.0567C53.234 34.8003 53.0663 35.5631 52.9669 36.3363C52.8554 37.0301 52.55 37.6781 52.0861 38.2055C51.919 38.6767 51.7216 39.5885 51.4635 40.8194L51.5091 40.8802ZM53.4832 29.3152C53.6515 29.105 53.7849 28.8689 53.8781 28.6162C53.9624 28.364 54.0966 28.1313 54.2729 27.9323V27.1421C54.1362 26.8837 53.9084 26.3215 53.5744 25.4552C53.2403 24.589 53.0125 24.0419 52.891 23.7835L51.5091 24.5738C52.6437 25.8825 53.3207 27.5258 53.4376 29.2545L53.4832 29.3152ZM52.8454 144.448H53.0428C53.3496 144.458 53.6512 144.367 53.901 144.189C54.1508 144.01 54.3348 143.754 54.4248 143.46C54.6661 142.898 54.8 142.295 54.8196 141.682V141.09C53.9968 142.104 53.3312 143.236 52.8454 144.448ZM55.4118 51.1534C55.4118 51.9437 55.4118 52.3996 55.6092 52.5364L56.2015 53.1291C56.323 53.1291 56.5964 52.9315 56.9912 52.5364C57.9024 50.3024 58.692 48.3116 59.3602 46.6095C59.9945 44.9402 60.7508 43.3198 61.6229 41.7617C62.4885 40.2419 63.4453 38.7222 64.4931 37.2025C65.7787 35.3807 67.1626 33.6304 68.6389 31.9596C69.0337 29.8522 69.3982 27.7094 69.7323 25.5312C70.0549 23.3424 70.2172 21.1329 70.2182 18.9205H62.3215V30.5766C60.2564 33.2716 58.5608 36.2308 57.2797 39.3757C56.02 42.5523 55.3857 45.9427 55.4118 49.3602V51.1534ZM63.2326 129.965C64.2314 130.502 65.1304 131.206 65.8902 132.047V130.665C65.7535 130.406 65.5257 129.935 65.2068 129.282C65.0223 128.86 64.7878 128.462 64.5083 128.096C63.8553 127.306 62.9897 126.288 61.7444 125.057C60.4992 123.826 59.831 123.188 59.5729 123.188H58.9806C58.3999 125.615 57.4688 127.944 56.2167 130.102H57.5986C57.9956 129.796 58.4231 129.531 58.8743 129.312C59.3363 129.016 59.8525 128.814 60.3929 128.719C61.3919 129.003 62.3474 129.422 63.2326 129.965ZM58.9806 105.361H59.5729L58.9806 104.769V105.361ZM58.9806 117.808C59.3198 117.872 59.6508 117.974 59.9676 118.112C60.2831 118.25 60.6148 118.347 60.9547 118.4C61.9854 118.757 62.8603 119.461 63.4301 120.391C64.1438 121.44 64.8423 121.911 65.4953 121.911C65.5438 121.852 65.604 121.805 65.672 121.771C65.74 121.737 65.8143 121.717 65.8902 121.713C65.9339 121.242 66.0359 120.777 66.1939 120.331C66.3483 119.878 66.4452 119.409 66.4825 118.932V118.34C66.4714 117.916 66.3998 117.497 66.2699 117.094C66.1332 116.638 65.7383 116.395 65.0853 116.395H59.5577C59.1628 116.668 58.9654 116.866 58.9654 116.987V117.777L58.9806 117.808ZM59.5729 15.4099C59.7145 15.569 59.8462 15.7365 59.9676 15.9115C60.1043 16.109 60.2258 16.2154 60.3625 16.2154V15.4099C59.9676 15.0148 59.6943 14.8173 59.5729 14.8173V15.4099ZM82.4885 75.1193C84.1765 76.4328 85.958 77.6213 87.8188 78.6754V76.3046C87.7336 75.4346 87.5657 74.5746 87.3177 73.7363C86.974 72.3594 86.5481 71.0044 86.0421 69.6787C85.5106 68.2957 84.9943 67.0496 84.5235 65.925C84.0527 64.8004 83.5363 64.2381 83.1415 64.2381C80.3047 64.2246 77.5122 64.9416 75.0322 66.3201C72.5586 67.7006 69.7703 68.4178 66.938 68.4021C65.6514 68.4021 64.3666 68.3005 63.0959 68.0982C61.7668 67.8661 60.5506 67.2041 59.6336 66.2137V68.4629C59.7551 69.3747 60.0284 71.5023 60.4233 74.5418L61.0154 75.1345C61.4586 75.2907 61.9283 75.3578 62.3974 75.332H63.916C66.1042 75.3396 68.2773 74.9694 70.3397 74.2378C72.4042 73.516 74.5765 73.1511 76.7634 73.1588C78.834 73.144 80.8479 73.8355 82.4733 75.1193H82.4885ZM64.1135 112.778C64.9031 112.778 65.8295 112.869 66.8773 112.869H68.6541C69.0656 112.295 69.274 111.599 69.2463 110.893C69.1878 109.947 68.9881 109.015 68.6541 108.127C67.1325 108.177 65.6276 107.798 64.3109 107.033C63.1183 106.319 61.7525 105.945 60.3625 105.954C60.366 107.112 60.4319 108.268 60.5599 109.419C60.6426 110.378 60.7744 111.331 60.9547 112.276C61.993 112.499 63.0423 112.666 64.0983 112.778H64.1135ZM62.9137 59.3447C64.3836 59.8253 65.9234 60.0564 67.4695 60.0286H69.8385C70.322 59.2835 71.0626 58.7426 71.919 58.5089C72.7124 58.2116 73.5479 58.0423 74.3943 58.0073C75.8515 58.1001 77.2832 58.4338 78.6313 58.9951C79.9817 59.5656 81.42 59.8997 82.8834 59.983C82.8982 59.7683 82.9286 59.5549 82.9745 59.3447C83.0333 59.1158 83.069 58.8816 83.0808 58.6456C83.0916 57.7854 83.0255 56.9258 82.8834 56.0773C82.7518 55.4289 82.5543 54.4411 82.2911 53.1139C81.2745 52.4654 80.1767 51.9544 79.0262 51.5942C77.774 51.2553 76.481 51.0917 75.184 51.1078C73.2105 51.154 71.2445 51.3676 69.3071 51.7461C67.2982 52.0773 65.2518 52.1132 63.2326 51.8525C62.0481 52.2477 61.3952 52.81 61.2585 53.5242C61.1224 54.2763 61.0563 55.0395 61.0611 55.8038C60.9396 57.7186 61.5925 58.9344 62.9137 59.3447ZM60.9395 98.386C61.9995 99.6898 63.1903 100.881 64.4931 101.942V101.152C64.4931 99.6321 64.4931 98.0212 64.2957 96.1064C64.2789 95.2701 64.0957 94.4456 63.7567 93.6811C63.4177 92.9165 62.9298 92.2273 62.3215 91.6537L62.1241 91.4561C61.5926 91.4561 61.2736 91.8512 61.137 92.6415C61.0095 93.3589 60.9435 94.086 60.9395 94.8146V98.386ZM70.8105 33.0385C69.4893 34.5583 68.1529 36.1995 66.771 37.9776C65.4667 39.6409 64.2793 41.3928 63.2174 43.2206C62.3739 44.4554 61.8519 45.8815 61.6988 47.3694V47.7645C61.7118 47.6804 61.7448 47.6005 61.7951 47.5317C61.8453 47.463 61.9112 47.4073 61.9874 47.3694C62.2 47.2326 62.2911 47.0958 62.2911 46.9742C62.2911 46.8527 62.853 46.3056 63.5819 45.4545C64.3108 44.6035 65.1005 43.5701 65.7535 42.5823C66.4065 41.5945 67.1659 40.6675 67.8189 39.8164C68.4719 38.9654 68.9426 38.4031 69.2007 38.1296C70.403 36.6712 71.691 35.2858 73.058 33.9808C74.3997 32.6375 75.4357 31.0202 76.0952 29.2393C76.7634 27.2637 77.3861 25.3488 77.9783 23.51C78.6131 21.5764 79.5847 19.7705 80.8484 18.1758H76.1408C76.0193 18.1758 75.8826 18.267 75.7459 18.4646C75.6342 18.6465 75.5017 18.8148 75.3511 18.966C75.1941 19.3159 75.0621 19.6765 74.9562 20.0451C74.8675 20.3376 74.8065 20.6378 74.774 20.9417C74.7466 21.569 74.6756 22.1935 74.5615 22.8109C74.44 23.6771 74.3337 24.5586 74.2729 25.4856C74.2122 26.4126 74.1362 27.2941 74.0755 28.1451C74.0147 28.9961 73.9844 29.5736 73.9844 29.8319C72.8509 30.8455 71.795 31.9428 70.8257 33.1145L70.8105 33.0385ZM64.402 90.1643C65.8766 91.1881 67.5641 91.8636 69.3375 92.1399C71.344 92.474 73.379 92.6064 75.4119 92.5351C77.4488 92.4534 79.4882 92.6167 81.4863 93.0214C81.8946 93.0601 82.2942 93.1626 82.6707 93.3253C82.9855 93.465 83.3175 93.5622 83.6579 93.6141C83.7386 93.6272 83.8213 93.6209 83.8991 93.5957C83.977 93.5706 84.0477 93.5273 84.1056 93.4694C84.1634 93.4115 84.2067 93.3407 84.2318 93.2628C84.2569 93.185 84.2632 93.1022 84.2502 93.0214C84.6694 91.855 85.0292 90.6682 85.3283 89.4653C85.6037 88.3187 85.9694 87.1956 86.4217 86.1067C86.4366 85.8417 86.467 85.5779 86.5129 85.3165C86.5698 85.0564 86.6053 84.7921 86.6192 84.5262C86.1667 84.4913 85.7136 84.5837 85.311 84.7932C84.9084 85.0027 84.5725 85.3209 84.3413 85.7116C84.1425 86.0829 83.8435 86.3909 83.4783 86.6004C83.1132 86.81 82.6965 86.9128 82.2759 86.897C82.0025 86.897 81.6533 86.6386 81.1825 86.1067C80.6921 85.5308 80.2645 84.9042 79.9069 84.2375C79.512 83.508 79.1172 82.8242 78.7224 82.1555C78.4032 81.7053 78.1998 81.1834 78.1301 80.6358H73.3769C72.7733 80.5615 72.1784 80.4292 71.6002 80.2407C71.0411 79.9979 70.4221 79.9291 69.8234 80.0431C69.4142 80.3758 69.1085 80.8187 68.9426 81.3196C68.6085 82.0491 68.5174 82.5506 68.6389 82.8393L61.7292 84.815C61.7894 85.8522 62.057 86.8669 62.5161 87.7988C62.9752 88.7307 63.6165 89.5609 64.402 90.2403V90.1643ZM64.6905 125.65C64.6905 125.908 64.8271 125.969 65.0853 125.847C65.3435 125.726 65.4801 125.771 65.4801 125.65C65.4877 125.596 65.4828 125.541 65.4657 125.49C65.4485 125.438 65.4196 125.392 65.3813 125.353C65.343 125.315 65.2964 125.286 65.245 125.269C65.1936 125.252 65.1389 125.247 65.0853 125.254C64.8271 125.194 64.7513 125.33 64.7513 125.725L64.6905 125.65ZM66.3762 100.741C66.3673 101.306 66.5799 101.852 66.9684 102.261C67.4214 102.575 67.9415 102.778 68.487 102.854C69.4393 103.089 70.3653 103.42 71.2509 103.842L72.7695 104.632C73.1707 104.888 73.605 105.087 74.0603 105.225C75.3685 105.426 76.6865 105.558 78.0086 105.62C79.9828 105.757 81.2889 105.817 81.957 105.817C81.9494 105.085 81.7871 104.362 81.4809 103.697C81.1747 103.032 80.7314 102.439 80.1802 101.957C78.9278 100.803 77.4904 99.8683 75.9281 99.1914C74.2746 98.471 72.5557 97.9112 70.7953 97.5197C69.3371 97.1656 67.8457 96.9669 66.3458 96.9271C66.2698 98.7659 66.2699 100.027 66.3762 100.818V100.741ZM76.0497 44.1476C78.348 44.6191 80.4898 45.6646 82.2759 47.187C83.4952 46.0852 84.4104 44.6878 84.9334 43.1294C85.6723 41.2534 86.8615 39.5885 88.3959 38.2816C86.9243 37.7238 85.3969 37.3263 83.8401 37.0961C82.3966 36.9574 80.9471 36.8915 79.4969 36.8986C78.5374 36.915 77.5794 36.9809 76.6267 37.0961C75.4823 37.2346 74.3567 37.4997 73.2706 37.8864C72.2322 38.2205 71.2606 38.7349 70.4004 39.4061C70.0199 39.7151 69.7153 40.1072 69.5099 40.5525C69.3046 40.9977 69.204 41.4842 69.2159 41.9744V42.9622C71.342 43.1598 73.6047 43.5549 76.0497 44.1476ZM70.613 166.499V163.733C70.4042 164.037 70.2405 164.37 70.1271 164.721C69.9897 165.038 69.8879 165.37 69.8234 165.709C69.8181 165.812 69.8353 165.914 69.8739 166.009C69.9126 166.104 69.9718 166.19 70.0472 166.259C70.1226 166.329 70.2123 166.381 70.3101 166.412C70.4079 166.443 70.5113 166.452 70.613 166.438V166.499ZM72.982 145.147C72.5872 146.074 72.2684 146.804 71.995 147.321H76.1408C76.5508 147.321 76.7483 147.062 76.7483 146.53C76.6258 145.895 76.3133 145.312 75.8522 144.859C75.26 144.129 74.774 143.764 74.3336 143.764C73.8932 143.764 73.3769 144.175 72.982 145.087V145.147ZM74.774 118.568C75.0173 119.734 75.4812 120.843 76.1408 121.835H75.3815C76.0813 121.415 76.8124 121.049 77.5683 120.741C78.0073 120.593 78.4106 120.354 78.7527 120.042C79.0301 119.746 79.2011 119.367 79.2387 118.963C79.3302 118.14 79.3658 117.313 79.345 116.486H85.8599C85.8673 115.34 85.5571 114.214 84.9639 113.233C84.3881 112.29 83.958 111.266 83.6882 110.194H81.4559C79.34 110.194 77.9581 110.787 77.3101 111.972C76.4258 113.415 75.2889 114.687 73.954 115.726C74.1058 116.03 74.3792 116.987 74.774 118.507V118.568ZM83.6579 156.226C83.916 155.557 84.1135 155.071 84.2502 154.706C84.3916 154.296 84.4584 153.864 84.4475 153.43C84.4725 153.242 84.454 153.051 84.3934 152.872C84.3327 152.693 84.2317 152.53 84.0981 152.397C83.9644 152.263 83.8017 152.162 83.6227 152.101C83.4436 152.04 83.253 152.022 83.0656 152.047H80.894C78.9595 152.034 77.053 152.509 75.3511 153.43L83.6579 156.226ZM79.4058 124.89C78.5849 125.353 77.9044 126.03 77.4366 126.848C76.9687 127.667 76.7309 128.597 76.7483 129.54V130.133C78.0397 129.651 79.4095 129.414 80.7877 129.434C81.7489 129.517 82.7171 129.45 83.6579 129.236C84.059 129.129 84.4329 128.939 84.7549 128.677C85.0769 128.415 85.3396 128.088 85.5257 127.716C86.1357 126.275 86.4408 124.722 86.4217 123.157H84.6449C82.7757 123.207 80.9591 123.787 79.4058 124.829V124.89ZM81.4863 143.126H82.2759C82.299 141.388 81.9251 139.667 81.1825 138.096C80.7601 137.312 80.1103 136.675 79.3187 136.268C78.5271 135.861 77.631 135.703 76.7483 135.816V138.369L81.4863 143.126ZM84.736 33.2209C87.0007 34.2486 89.4629 34.7673 91.9494 34.7406C93.5436 34.6869 95.0734 34.0981 96.2927 33.0689C97.8113 31.9443 98.9958 30.987 100.059 30.1967H109.732L111.114 29.2089C109.324 27.4445 106.915 26.4517 104.402 26.443C103.352 26.4475 102.315 26.6809 101.365 27.1269C100.378 27.598 99.4513 28.0539 98.6009 28.5098C97.7505 28.9657 96.8546 29.4368 95.9282 29.908C95.0741 30.3518 94.1268 30.5862 93.1643 30.5918C91.7287 30.5978 90.3345 30.1096 89.2159 29.2089C87.9684 28.2652 86.4358 27.7772 84.8727 27.826C83.4162 27.8286 81.9627 27.9608 80.5296 28.2211C79.7836 28.3506 79.0942 28.7029 78.5521 29.2319C78.0101 29.7608 77.6406 30.4415 77.4923 31.1845C80.0001 31.4628 82.4462 32.1453 84.736 33.2057V33.2209ZM87.105 23.8291C88.1812 24.0907 89.2072 24.527 90.1423 25.1209C90.8291 25.5889 91.4883 26.0963 92.1165 26.6406C92.4799 27.0301 92.9696 27.2778 93.4984 27.3396H93.6958C93.8325 27.3396 93.8932 27.3396 93.8932 27.1421C94.6829 26.4886 96.0041 25.5312 97.8416 24.2699C99.2665 23.1732 100.984 22.5228 102.777 22.4006C102.747 22.1695 102.629 21.9589 102.448 21.8119C102.268 21.665 102.037 21.5928 101.805 21.6104H100.803C99.7077 21.6113 98.6166 21.7439 97.553 22.0055C96.4832 22.2605 95.3879 22.3931 94.2881 22.4006C92.8666 22.4001 91.4482 22.2678 90.0511 22.0055C88.6499 21.7364 87.2259 21.6041 85.7991 21.6104C85.0639 21.5799 84.3291 21.6776 83.6275 21.8991C83.096 22.0966 82.6404 22.7197 82.2456 23.7835C83.8525 23.4827 85.502 23.493 87.105 23.8139V23.8291ZM86.0269 48.1444C85.4021 48.7049 84.9032 49.3915 84.5629 50.159C84.2226 50.9266 84.0487 51.7575 84.0527 52.5972C84.0527 52.734 84.0527 53.0531 84.1438 53.585C84.1974 53.912 84.2329 54.2418 84.2502 54.5728L89.1856 51.2142H89.7778C90.0295 51.2563 90.2684 51.3551 90.4764 51.503C90.6783 51.6547 90.912 51.7586 91.1598 51.8069C91.2965 51.8069 91.5546 51.6094 91.9494 51.2142V49.2386C91.9494 48.57 91.9494 47.9165 91.8583 47.263C91.7672 46.6095 91.3572 46.2752 90.5675 46.2752C89.7234 46.268 88.8862 46.4281 88.1043 46.7463C87.3224 47.0645 86.6112 47.5345 86.0117 48.1292L86.0269 48.1444ZM94.3184 40.9258C94.4245 41.3801 94.4906 41.8429 94.5158 42.3088C94.5158 42.7039 94.5158 43.3422 94.6221 44.1932C94.7284 45.0442 94.7436 45.9409 94.8196 46.8679C94.8955 47.7949 94.9107 48.7067 94.9107 49.6337V51.1534C95.6612 51.1383 96.3985 50.9527 97.0668 50.6104C97.7351 50.2681 98.3168 49.7783 98.768 49.1778C99.6947 48.0022 100.879 47.0558 102.23 46.412C104.387 45.3345 106.735 44.6941 109.14 44.5275C111.63 44.33 114.015 44.2388 116.247 44.2388C117.936 44.232 119.622 44.3641 121.289 44.6339C122.886 44.8913 124.5 45.0234 126.118 45.029C126.065 43.5372 125.586 42.092 124.736 40.865C123.872 39.5329 122.852 38.3085 121.699 37.2177C120.794 36.3685 119.717 35.7256 118.54 35.3333C117.297 34.9285 116.004 34.6984 114.698 34.6494C113.316 34.6494 111.661 34.543 109.656 34.543C108.593 34.543 107.287 34.5431 105.708 34.6494C104.08 34.7156 102.46 34.9138 100.864 35.2421C99.2865 35.557 97.7335 35.9836 96.2167 36.5187C94.9727 36.9156 93.8738 37.6716 93.058 38.6919C93.0186 38.5151 92.9173 38.3583 92.7726 38.2496C92.6278 38.1409 92.4489 38.0876 92.2683 38.0992H91.2812C90.5648 38.1349 89.8655 38.331 89.2347 38.6729C88.604 39.0148 88.0579 39.4938 87.6366 40.0748C86.6575 41.1965 85.7641 42.3903 84.9639 43.6461H85.5561C86.2984 43.6528 87.0353 43.5188 87.7277 43.251C88.3521 42.9846 89.0231 42.8451 89.7019 42.8407C90.171 42.8149 90.6407 42.882 91.0839 43.0382C91.5929 43.379 92.0571 43.7823 92.4658 44.2388L93.8476 39.4821C94.068 39.935 94.2263 40.4155 94.3184 40.9106V40.9258ZM88.5933 17.9023C88.129 18.0046 87.6932 18.209 87.3176 18.5008C86.942 18.7925 86.636 19.1643 86.4217 19.5891H98.2668C98.2632 19.324 98.1761 19.0667 98.018 18.8539C97.8598 18.6411 97.6387 18.4836 97.386 18.4038C96.7567 18.1206 96.093 17.9213 95.4118 17.8111C94.6603 17.6749 93.8977 17.6087 93.1339 17.6135H91.6153C90.6011 17.5964 89.588 17.6881 88.5933 17.8871V17.9023ZM88.5022 57.5362C87.7733 59.0559 87.2722 60.2413 86.9836 60.8948H87.7732C88.4142 60.6885 89.0766 60.556 89.7475 60.4997C90.4821 60.4363 91.2092 60.304 91.9191 60.1045L91.1294 55.3631L90.932 55.1655C90.0309 55.1554 89.221 55.9405 88.5022 57.521V57.5362ZM88.2896 69.8003C88.5197 70.3023 88.8216 70.7681 89.1856 71.1832H89.3829C89.866 71.1676 90.3393 71.0434 90.7678 70.8198C91.1963 70.5962 91.569 70.2789 91.8583 69.8915C92.1796 69.4757 92.5799 69.1275 93.0359 68.8667C93.4919 68.606 93.9948 68.4377 94.5158 68.3717L92.5417 64.2078C92.2864 64.1134 92.0217 64.0472 91.7521 64.0102C91.2046 64.0289 90.6691 64.1761 90.189 64.4401C89.7088 64.7041 89.2975 65.0774 88.9882 65.5299C88.2759 66.3231 87.8577 67.3371 87.8036 68.4021C87.8813 68.8886 88.046 69.357 88.2896 69.7851V69.8003ZM89.1856 95.6353C89.3063 96.9263 89.7848 98.158 90.5675 99.1914C91.7034 98.5767 92.6054 97.6046 93.1339 96.4255C93.9236 94.9666 94.7133 94.2372 95.503 94.2372C96.118 94.2275 96.7267 94.3628 97.2797 94.6323C97.8314 94.9056 98.4411 95.0412 99.0565 95.0274C100.924 95.0546 102.777 94.6869 104.493 93.9484C106.208 93.2047 108.061 92.8318 109.93 92.8542C111.147 92.7759 112.348 93.1675 113.286 93.9484C114.095 94.6799 115.157 95.067 116.247 95.0274H116.384C116.824 94.7567 117.223 94.4239 117.568 94.0396L118.555 93.0518V92.2616C117.795 92.221 117.039 92.1245 116.293 91.9728L112.724 91.3801L109.17 90.7874C108.406 90.6712 107.65 90.5037 106.908 90.2859C106.558 90.2133 106.224 90.0796 105.921 89.8908C105.389 89.6325 104.797 89.3741 104.144 89.1005C103.496 88.8529 102.866 88.5583 102.261 88.2191C101.315 87.8841 100.443 87.3679 99.6943 86.6994C99.3682 86.438 98.9978 86.2372 98.6009 86.1067H98.0087C96.3796 86.1195 94.7693 86.4553 93.2707 87.0946C91.7934 87.7047 90.4001 88.5014 89.1248 89.4653C89.115 89.8976 89.0795 90.329 89.0185 90.757C89.0185 91.3497 88.9274 91.7145 88.9274 91.836C88.946 93.1213 89.0323 94.4047 89.1856 95.6809V95.6353ZM90.4764 82.2923C90.279 83.1433 90.036 83.9639 89.7778 84.7542C90.036 84.6326 90.7042 84.2679 91.7521 83.6752C92.7999 83.0825 93.2707 82.657 93.2707 82.3835C93.2707 82.1099 93.2707 81.9883 93.0732 81.9883C92.8326 81.5839 92.536 81.2155 92.1924 80.8941C91.8669 80.555 91.4994 80.2588 91.099 80.0127C90.8326 80.7708 90.6245 81.5481 90.4764 82.3379V82.2923ZM103.202 104.024C104.093 104.595 104.923 105.258 105.678 106C106.407 106.729 107.029 107.383 107.561 107.975C108.092 108.568 108.472 108.872 108.745 108.872L108.943 108.674C109.878 107.31 110.672 105.854 111.312 104.328C111.984 102.712 112.846 101.182 113.878 99.7689C111.767 99.237 109.626 98.7811 107.454 98.386C105.335 97.9957 103.185 97.7973 101.031 97.7933C100.393 97.8887 99.7664 98.0518 99.1628 98.2796L96.0041 99.3738C94.9431 99.7193 93.9243 100.183 92.9669 100.757C92.1013 101.289 91.676 101.745 91.676 102.14C91.676 102.535 91.6761 102.535 91.8735 102.535C91.872 102.794 91.9239 103.05 92.0258 103.288C92.1277 103.526 92.2774 103.74 92.4658 103.918C93.9844 103.659 95.1688 103.462 96.2167 103.325C97.4667 103.18 98.7246 103.114 99.9829 103.127C101.126 103.109 102.249 103.438 103.202 104.07V104.024ZM93.8325 131.212C95.2145 131.348 96.2319 131.409 96.8697 131.409C97.5365 131.387 98.201 131.321 98.8591 131.212C99.8206 131.065 100.774 130.867 101.714 130.619C102.625 130.384 103.518 130.085 104.387 129.722C105.176 129.403 105.571 129.038 105.571 128.643C105.571 126.273 104.645 125.087 102.792 125.087C102.588 125.11 102.391 125.178 102.215 125.285C101.596 125.392 100.997 125.591 100.438 125.877C99.5121 126.273 98.9198 126.531 98.6465 126.668H98.0542C97.796 126.531 97.2038 126.273 96.2775 125.877C95.7176 125.593 95.1189 125.394 94.5007 125.285L93.9084 125.087C93.1188 125.087 92.5568 125.649 92.2379 126.759C91.9504 127.624 91.7819 128.523 91.7369 129.434C91.752 130.528 92.4506 131.12 93.8325 131.257V131.212ZM92.7391 134.175C92.7391 134.57 92.8758 134.768 93.1339 134.768C93.2147 134.781 93.2974 134.775 93.3752 134.749C93.453 134.724 93.5238 134.681 93.5816 134.623C93.6395 134.565 93.6827 134.494 93.7079 134.417C93.733 134.339 93.7393 134.256 93.7262 134.175C93.7262 133.643 93.5288 133.385 93.1339 133.385C92.7391 133.385 92.7391 133.689 92.7391 134.221V134.175ZM93.5288 78.6298C93.8021 79.5568 94.2577 80.0127 94.9107 80.0127H95.3055L99.4513 75.8639C99.2874 75.3528 99.0185 74.8817 98.6617 74.481L97.2797 73.098H97.0823C96.1134 73.1762 95.2039 73.5963 94.5158 74.2834C94.1446 74.5268 93.8294 74.8465 93.5912 75.2212C93.3529 75.5959 93.1971 76.017 93.1339 76.4566C93.1935 77.2136 93.3518 77.9595 93.6047 78.6754L93.5288 78.6298ZM95.7004 61.1379C97.1357 62.1717 98.7962 62.8489 100.545 63.1136C102.471 63.4439 104.422 63.6066 106.376 63.5998H111.312L113.969 63.5087L116.444 63.4023C117.334 63.4155 118.203 63.138 118.92 62.612C119.593 62.1411 120.162 61.5357 120.59 60.834H129.489V55.895C129.073 55.5965 128.596 55.394 128.092 55.3023C126.391 54.7704 124.478 54.0865 122.367 53.2203C120.484 52.409 118.486 51.8963 116.444 51.7006H111.889C109.949 51.6343 108.013 51.9016 106.164 52.4908C104.817 52.9726 103.499 53.5307 102.215 54.1625C101.015 54.7704 99.8006 55.3327 98.5554 55.8494C97.0081 56.4287 95.362 56.6972 93.711 56.6396C93.6379 57.5029 93.7815 58.3708 94.129 59.1644C94.4764 59.958 95.0166 60.6521 95.7004 61.1835V61.1379ZM93.9236 135.604C94.5918 138.111 95.2448 139.494 95.8978 139.752C96.314 139.394 96.7793 139.097 97.2797 138.871C97.7044 138.618 98.1735 138.448 98.6617 138.369H99.4513C99.7962 138.431 100.133 138.533 100.454 138.673C100.768 138.813 101.1 138.91 101.441 138.962H102.23L102.807 136.196C99.778 136.878 96.6029 136.384 93.9236 134.813V135.604ZM94.7133 69.1924C94.7002 69.2732 94.7065 69.3559 94.7316 69.4338C94.7567 69.5117 94.8 69.5825 94.8578 69.6404C94.9157 69.6982 94.9864 69.7415 95.0643 69.7667C95.1421 69.7919 95.2248 69.7982 95.3055 69.7851C95.5789 69.7851 95.7004 69.5875 95.7004 69.1924C95.7004 68.7973 95.5789 68.4021 95.3055 68.4021C95.0322 68.4021 94.7133 68.6605 94.7133 69.1924ZM96.399 111.288C97.1234 112.353 98.0218 113.288 99.0565 114.054C100.12 114.844 101.304 115.68 102.625 116.531C104.076 117.544 105.289 118.861 106.179 120.391C106.437 119.328 106.634 118.507 106.771 117.914C106.917 117.097 106.983 116.267 106.968 115.437C106.996 114.973 106.96 114.508 106.862 114.054C106.476 113.619 106.049 113.222 105.587 112.869C104.918 112.352 103.962 111.562 102.716 110.498C101.456 109.449 100.408 108.583 99.5576 107.93C98.7072 107.276 98.206 106.881 98.039 106.744H95.2751C95.1845 108.338 95.5762 109.921 96.399 111.288ZM98.0694 162.198C97.4023 162.56 96.8142 163.052 96.3396 163.644C95.8649 164.237 95.5133 164.918 95.3055 165.648H102.23C103.278 164.341 103.931 163.475 104.205 163.08C104.478 162.685 104.523 162.366 104.797 161.697C104.797 161.044 104.007 160.77 102.413 160.907C100.874 160.932 99.3722 161.379 98.0694 162.198ZM95.8978 121.166C96.0521 121.309 96.185 121.472 96.2927 121.653C96.4293 121.85 96.566 121.881 96.6875 121.759L102.23 120.376C101.612 119.636 100.879 119 100.059 118.492C99.2387 117.93 98.2733 117.618 97.2797 117.595C96.6318 117.595 96.237 117.793 96.0952 118.188C95.9589 118.683 95.8924 119.194 95.8978 119.707V121.166ZM97.5834 150.618C98.3413 151.567 99.2021 152.428 100.15 153.187C101.106 153.96 102.17 154.59 103.309 155.056C104.21 155.475 105.186 155.712 106.179 155.755V154.767L104.888 150.907C104.554 149.919 104.205 148.871 103.81 147.746C103.415 146.621 103.081 145.74 102.807 145.071C102.714 144.516 102.425 144.012 101.994 143.65C101.563 143.288 101.017 143.091 100.454 143.096H100.059L98.3731 144.783L96.6875 146.454C96.5916 146.982 96.5257 147.515 96.4901 148.05C96.5534 149.01 96.9386 149.92 97.5834 150.634V150.618ZM97.1886 157.138C97.972 157.46 98.8194 157.595 99.6639 157.533H100.059L96.6419 153.399C96.4873 153.632 96.4175 153.911 96.4445 154.19V155.177C96.49 156.226 96.7178 156.895 97.1886 157.153V157.138ZM99.9525 72.1406C100.645 73.3969 101.405 74.6144 102.23 75.7879C103.013 76.911 104.055 77.8285 105.268 78.4626C106.912 79.1998 108.707 79.5383 110.507 79.4504C112.053 79.4609 113.591 79.2249 115.063 78.7513C116.581 78.2954 117.933 77.8395 119.315 77.3684C120.697 76.8973 122.109 76.5174 123.552 76.183C125.047 75.8548 126.583 75.7575 128.107 75.8943C128.655 75.3367 128.975 74.5939 129.003 73.8123C129.003 72.9612 129.11 72.2014 129.11 71.5479C127.462 71.5346 125.824 71.8018 124.265 72.3382C122.705 72.8673 121.068 73.1343 119.421 73.1284C116.116 73.163 112.824 72.7281 109.641 71.8367C106.387 70.8778 103.192 69.7259 100.074 68.387H97.2949C98.3217 69.5376 99.2133 70.8021 99.9525 72.1558V72.1406ZM101.471 84.891C102.149 85.3334 102.94 85.5709 103.749 85.5748C103.902 85.564 104.044 85.4929 104.144 85.3773C104.265 85.2557 104.994 84.2679 106.315 82.4138L106.118 82.0187C105.845 81.7604 105.283 81.2893 104.432 80.6358C103.582 79.9823 103.02 79.5112 102.747 79.2529H102.17C101.903 79.5565 101.668 79.8876 101.471 80.2407C101.137 80.7726 100.909 81.1677 100.772 81.426C100.589 81.6437 100.427 81.8777 100.287 82.1251C100.14 82.3283 100.041 82.5621 99.9981 82.809C100.218 83.6807 100.768 84.4327 101.532 84.9062L101.471 84.891ZM101.441 182.441V176.712C101.094 176.866 100.798 177.114 100.586 177.428C100.373 177.743 100.254 178.111 100.241 178.49C100.129 179.275 100.068 180.067 100.059 180.86C100.059 181.924 100.514 182.441 101.441 182.441ZM102.959 121.166C102.946 121.247 102.952 121.33 102.978 121.408C103.003 121.486 103.046 121.556 103.104 121.614C103.162 121.672 103.232 121.716 103.31 121.741C103.388 121.766 103.471 121.772 103.552 121.759C103.81 121.759 103.946 121.561 103.946 121.166C103.946 120.771 103.81 120.376 103.552 120.376C103.293 120.376 103.02 120.65 103.02 121.182L102.959 121.166ZM103.749 121.957C103.749 122.337 103.87 122.549 104.144 122.549C104.417 122.549 104.539 122.337 104.539 121.957C104.539 121.577 104.402 121.166 104.144 121.166C103.886 121.166 103.81 121.44 103.81 121.972L103.749 121.957ZM105.268 146.849C105.416 148.605 106.231 150.236 107.545 151.409C107.973 151.131 108.323 150.75 108.564 150.301C108.806 149.852 108.931 149.35 108.927 148.84C108.943 148.086 108.696 147.35 108.229 146.758C107.733 146.031 107.492 145.16 107.545 144.281C107.535 143.149 107.667 142.021 107.94 140.923C108.207 139.823 108.339 138.695 108.335 137.564V136.576C108.346 136.344 108.272 136.115 108.127 135.933C107.981 135.751 107.775 135.629 107.545 135.588C106.607 136.319 105.918 137.323 105.571 138.461C105.106 139.555 104.838 140.723 104.782 141.91C104.824 143.572 104.992 145.228 105.283 146.865L105.268 146.849ZM115.245 125.315V124.525C115.033 123.885 114.9 123.222 114.85 122.549C114.78 121.815 114.648 121.088 114.455 120.376H113.073C111.859 120.406 110.658 120.637 109.52 121.06C108.911 121.239 108.383 121.623 108.023 122.146C107.664 122.669 107.495 123.299 107.545 123.932V124.525C107.931 124.185 108.416 123.978 108.927 123.932H110.309C112.06 123.906 113.781 124.392 115.26 125.33L115.245 125.315ZM109.019 85.6812C108.741 86.285 108.513 86.9101 108.335 87.5504H109.717C110.535 87.5653 111.343 87.3741 112.068 86.9943C112.792 86.6146 113.41 86.0585 113.863 85.3773L111.099 83.9943H110.704C110.051 84.0095 109.504 84.5718 109.034 85.6964L109.019 85.6812ZM110.704 132.625C111.415 133.201 112.177 133.71 112.982 134.145C113.825 134.601 114.717 134.963 115.64 135.224C116.342 135.455 117.073 135.588 117.811 135.619H119.193C119.056 135.36 118.738 134.768 118.206 133.841C117.675 132.914 117.356 132.321 117.219 132.063C117.016 131.767 116.881 131.429 116.824 131.075C116.767 130.72 116.632 130.383 116.429 130.087C116.337 129.588 116.134 129.116 115.837 128.704H111.099C110.826 128.704 110.37 129.358 109.717 130.68V131.075C109.754 131.395 109.863 131.702 110.037 131.974C110.211 132.245 110.444 132.473 110.719 132.64L110.704 132.625ZM111.388 115.726C111.704 116.066 112.087 116.337 112.513 116.523C112.939 116.709 113.398 116.804 113.863 116.805C113.845 115.213 113.683 113.626 113.377 112.063C113.043 110.361 112.739 109.024 112.481 108.112C111.923 108.905 111.416 109.732 110.962 110.589C110.543 111.411 110.34 112.326 110.37 113.249C110.366 113.712 110.455 114.172 110.633 114.6C110.81 115.028 111.072 115.416 111.403 115.741L111.388 115.726ZM110.309 154.782H110.704C111.357 154.782 111.691 154.585 111.691 154.19V151.424L110.309 154.782ZM115.837 143.217C116.969 143.663 118.174 143.895 119.391 143.901C120.454 143.901 121.031 143.643 121.167 143.111C121.315 142.463 121.381 141.8 121.365 141.135V139.752C120.556 139.558 119.734 139.426 118.905 139.357C118.069 139.306 117.24 139.174 116.429 138.962H115.64C115.187 138.91 114.731 139.018 114.349 139.266C113.882 139.86 113.456 140.484 113.073 141.135C113.768 142.094 114.737 142.82 115.852 143.217H115.837ZM118.707 85.59C120.027 85.9399 121.382 86.1387 122.747 86.1827C123.81 86.1827 124.463 85.4685 124.721 84.0096C123.202 83.7512 122.124 83.584 121.274 83.5232C120.423 83.4624 119.254 83.4168 117.811 83.4168H115.245C115.649 83.9944 116.165 84.4846 116.762 84.858C117.36 85.2314 118.026 85.4803 118.722 85.59H118.707ZM118.115 89.1461C117.775 89.508 117.474 89.9055 117.219 90.3315H121.957C121.675 89.8462 121.31 89.4141 120.879 89.0549C120.15 88.3255 119.588 88.0367 119.193 88.1583C118.79 88.4303 118.431 88.7635 118.13 89.1461H118.115ZM126.71 90.6658C127.69 90.6883 128.654 90.4128 129.474 89.8756C130.258 89.3598 130.985 88.764 131.646 88.0976H126.71V90.6658Z" fill="#FFD395"/>
</g>
<defs>
<clipPath id="clip0_114_525">
<rect width="160" height="187" fill="white" transform="translate(0.5)"/>
</clipPath>
</defs>
</svg>
